<svg version="1.1" xmlns="http://www.w3.org/2000/svg" xmlns:xlink="http://www.w3.org/1999/xlink" class="spritemapSVG" style="display:none"><symbol viewBox="0 0 19.8 11.3" id="icon-arrow-up"><title>arrow-up</title> <polygon points="8.5,1.4 0,9.9 1.4,11.3 9.9,2.8 18.4,11.3 19.8,9.9 11.3,1.4 9.9,0 "/> </symbol><symbol viewBox="0 0 19.4 19.4" id="icon-audio-off"><title>audio-off</title> <g> <path d="M18.4,18L1.4,1L0,2.4l4.4,4.4H2.9c-0.4,0-0.6,0.3-0.6,0.6V14c0,0.4,0.3,0.6,0.6,0.6h3.5l4.7,4.3c0.1,0.1,0.3,0.2,0.4,0.2
		c0.1,0,0.2,0,0.3-0.1c0.2-0.1,0.4-0.3,0.4-0.6v-3.9l4.8,4.8L18.4,18z"/> <path d="M12.2,3c0-0.3-0.1-0.5-0.4-0.6c-0.2-0.1-0.5-0.1-0.7,0.1l-3.2,3l4.3,4.3V3z"/> </g> </symbol><symbol viewBox="0 0 19.4 19.4" id="icon-audio-on"><title>audio-on</title> <path d="M11.8,2.4c-0.2-0.1-0.5-0.1-0.7,0.1L6.4,6.8H2.9c-0.4,0-0.6,0.3-0.6,0.6V14c0,0.4,0.3,0.6,0.6,0.6h3.5l4.7,4.3
	c0.1,0.1,0.3,0.2,0.4,0.2c0.1,0,0.2,0,0.3-0.1c0.2-0.1,0.4-0.3,0.4-0.6V3C12.2,2.7,12,2.5,11.8,2.4z"/> </symbol><symbol viewBox="0 0 9.4 6.9" id="icon-email"><title>email</title> <polygon points="0.2,0 4.6,3.4 9,0 "/> <polygon points="9.4,0.9 4.6,4.4 0,0.9 0,6.7 0,6.9 9.4,6.9 "/> </symbol><symbol viewBox="0 0 8 16" id="icon-fb-logo"><title>fb-logo</title> <path d="M2.058,16V8.492H0.016V5.789h2.042c0,0,0-1.107,0-2.31C2.058,1.666,3.265,0,6.045,0
	c1.126,0,1.957,0.104,1.957,0.104L7.936,2.63c0,0-0.847-0.009-1.773-0.009c-1.003,0-1.164,0.448-1.164,1.194
	c0,0.589,0-1.255,0,1.974h3.018L7.885,8.492H4.998V16H2.058z"/> </symbol><symbol viewBox="0 0 23 32" id="icon-ipad"><title>ipad</title> <g> <path d="M21.5,0H1.5C0.7,0,0,0.7,0,1.5v29C0,31.3,0.7,32,1.5,32h20.1c0.8,0,1.5-0.7,1.5-1.5v-29C23,0.7,22.3,0,21.5,0z M11.5,31
		c-0.4,0-0.7-0.3-0.7-0.7c0-0.4,0.3-0.7,0.7-0.7c0.4,0,0.7,0.3,0.7,0.7C12.2,30.7,11.9,31,11.5,31z M20.8,28.6H2.2v-26h18.6V28.6z"/> </g> </symbol><symbol viewBox="0 0 32 28" id="icon-rotate"><title>rotate</title> <g> <path d="M13.9,0c7.6,0,13.7,6.1,13.9,13.7H32l-6.3,7l-6.3-7h4.9C24.2,8,19.6,3.5,13.9,3.5C8.1,3.5,3.5,8.2,3.5,14
		c0,5.8,4.7,10.5,10.4,10.5c2.3,0,4.4-0.8,6.2-2l2.4,2.6c-2.4,1.9-5.3,3-8.6,3C6.2,28,0,21.7,0,14C0,6.3,6.2,0,13.9,0L13.9,0z"/> </g> </symbol><symbol viewBox="0 0 136.3 16.9" id="icon-tiffany-logo"><title>tiffany-logo</title> <path d="M17.4,14.8c0,0.6-0.1,1.1-0.4,1.4c-0.3,0.2-0.8,0.3-1.6,0.3c0,0,0,0.2,0,0.2h6.1c0,0,0-0.2,0-0.2c-0.8,0-1.3-0.1-1.6-0.3
	c-0.3-0.3-0.4-0.8-0.4-1.4V5.7c0-0.6,0.1-1.1,0.4-1.4C20.1,4.1,20.7,4,21.4,4c0,0,0-0.2,0-0.2h-6.1c0,0,0,0.2,0,0.2
	c0.8,0,1.3,0.1,1.6,0.3c0.3,0.3,0.4,0.8,0.4,1.4V14.8z"/> <path d="M13.4,0.3l0,4.2c0,0-0.2,0.1-0.2,0c-1-2.6-1.8-3.9-5-3.9H7.8v14c0,0.7,0.1,1.2,0.4,1.5c0.2,0.2,1.1,0.3,1.8,0.3
	c0,0,0,0.3,0,0.3H3.3c0,0,0-0.3,0-0.3c0.7,0,1.6-0.1,1.8-0.3c0.3-0.3,0.4-0.8,0.4-1.5v-14H5.2c-3.2,0-4,1.3-5,3.9c0,0-0.2,0-0.2,0
	l0-4.2H13.4z"/> <path d="M33.2,3.8h-9.3c0,0,0,0.2,0,0.2c0.7,0,1.2,0.1,1.5,0.3c0.3,0.3,0.4,0.8,0.4,1.4v9.1c0,0.6-0.1,1.1-0.4,1.4
	c-0.2,0.2-0.7,0.3-1.5,0.3c0,0,0,0.2,0,0.2h5.9c0,0,0-0.2,0-0.2c-0.8,0-1.3-0.1-1.6-0.3c-0.3-0.3-0.4-0.8-0.4-1.4v-4.4h0.9
	c1,0,1.5,0.2,1.9,0.5c0.3,0.3,0.6,0.9,0.6,1.4c0,0,0.2,0,0.2,0V8.1c0,0-0.2,0-0.2,0c0,0.5-0.3,1.1-0.6,1.4c-0.4,0.3-0.9,0.5-1.9,0.5
	h-0.9V4.1H29c2.9,0,3.6,1.4,4.1,3c0,0,0.2,0,0.2,0L33.2,3.8z"/> <path d="M44.4,3.8H35c0,0,0,0.2,0,0.2c0.7,0,1.2,0.1,1.5,0.3c0.3,0.3,0.4,0.8,0.4,1.4v9.1c0,0.6-0.1,1.1-0.4,1.4
	c-0.2,0.2-0.7,0.3-1.5,0.3c0,0,0,0.2,0,0.2h5.9c0,0,0-0.2,0-0.2c-0.8,0-1.3-0.1-1.6-0.3c-0.3-0.3-0.4-0.8-0.4-1.4v-4.4h0.9
	c1,0,1.5,0.2,1.9,0.5c0.3,0.3,0.6,0.9,0.6,1.4c0,0,0.2,0,0.2,0V8.1c0,0-0.2,0-0.2,0c0,0.5-0.3,1.1-0.6,1.4c-0.4,0.3-0.9,0.5-1.9,0.5
	h-0.9V4.1h1.2c2.9,0,3.6,1.4,4.1,3c0,0,0.2,0,0.2,0L44.4,3.8z"/> <path d="M56.9,16.4c-1-0.1-1.3-0.5-1.8-1.7L50.8,3.5c0,0-0.3,0-0.3,0l-4.2,11.1c-0.6,1.5-1,1.7-2.2,1.9c0,0,0,0.2,0,0.2h3.8
	c0,0,0-0.2,0-0.2c-1.1-0.1-1.7-0.5-1.1-1.9l1-2.6h4.1l1,2.7c0.5,1.2,0,1.8-1.1,1.8c0,0,0,0.2,0,0.2h5.1
	C56.9,16.7,56.9,16.5,56.9,16.4 M47.9,11.6l1.9-5.1l2,5.1H47.9z"/> <path d="M70.3,3.8H66c0,0,0,0.2,0,0.2c1,0.1,1.4,0.2,1.7,0.6C68,5.1,68.1,6,68.1,7.1v6.2l-7.3-9.5h-3.6c0,0,0,0.2,0,0.2
	c1.4,0,2,0.8,2,1.9v7.5c0,1.1-0.1,2-0.4,2.5c-0.3,0.4-0.5,0.5-1.4,0.6c0,0,0,0.2,0,0.2h4.3c0,0,0-0.2,0-0.2c-1-0.1-1.4-0.2-1.7-0.6
	c-0.3-0.5-0.4-1.3-0.4-2.5V5.7l8.6,11c0.1,0.1,0.3,0.1,0.3,0V7.1c0-1.1,0.1-2,0.4-2.5c0.3-0.4,0.5-0.5,1.5-0.6
	C70.4,4,70.4,3.8,70.3,3.8"/> <path d="M83.2,3.8h-3.7c0,0,0,0.2,0,0.2c1.2,0,1.6,0.5,1.2,1.3l-2.6,4.9l-2.8-5c-0.4-0.8,0-1.3,1.2-1.3c0,0,0-0.2,0-0.2h-5.3
	c0,0,0,0.2,0,0.2c1.1,0.1,1.3,0.3,1.7,1.1l3.2,5.9v3.7c0,0.6-0.1,1.1-0.4,1.4c-0.2,0.2-0.7,0.3-1.5,0.3c0,0,0,0.2,0,0.2h5.7
	c0,0,0-0.2,0-0.2c-0.7,0-1.2-0.1-1.5-0.3c-0.3-0.3-0.4-0.8-0.4-1.4v-4.1l2.9-5.3c0.5-1,0.9-1.2,2-1.3C83.3,4,83.3,3.8,83.2,3.8"/> <path d="M126.9,3.6c3.6,0,6.4,3,6.4,6.6s-2.9,6.6-6.4,6.6c-3.6,0-6.4-3-6.4-6.6S123.3,3.6,126.9,3.6 M126.9,3.9c-2.6,0-4,2.7-4,6.3
	s1.3,6.3,4,6.3c2.6,0,4-2.7,4-6.3S129.5,3.9,126.9,3.9"/> <path d="M118.5,11.9c0,0-0.2-0.1-0.2,0c-0.6,2.9-2.7,4.6-4.7,4.6c-3.7,0-6.1-3.4-6.1-8c0-4.6,2.1-8.1,5.8-8.1c2.1,0,4.3,1.6,4.9,4.4
	c0,0,0.2,0,0.2,0L118.3,0c0,0-0.2,0-0.2,0c-0.1,0.7-0.5,1.1-1.3,0.9c-1.1-0.4-2.3-0.8-3.5-0.8c-4.6,0-8.6,3.8-8.6,8.5
	c0,4.7,3.9,8.4,8.6,8.4c1.9,0,3.6-0.4,5-1.4L118.5,11.9z"/> <path d="M135,14.3c0.7,0,1.3,0.6,1.3,1.3s-0.6,1.3-1.3,1.3c-0.7,0-1.3-0.6-1.3-1.3S134.3,14.3,135,14.3"/> <path d="M100.8,9h-5.2c0,0,0,0.2,0,0.2c1.2,0,2,0.5,1.5,1.5c-0.4,0.8-0.8,1.5-1.3,2.2L92.1,8c2.2-1.1,3.4-2.1,3.4-3.8
	c0-1.2-1.3-2.6-3.1-2.6c-1.9,0-3.6,1.6-3.6,3.3c0,1.1,0.3,1.9,1.4,3.5c-2.1,0.8-4,2.5-4,4.6c0,2.3,1.8,3.9,4.2,3.9
	c1.8,0,3.2-1,4.5-2.3l1.5,2h3.8c0,0,0-0.2,0-0.2c-0.7,0-0.9-0.1-1.3-0.3c-0.5-0.3-1-0.8-1.5-1.4l-1.2-1.6c0.7-1,1.4-2,2-2.8
	c0.5-0.7,1-1,2.7-1.1C100.8,9.2,100.8,9,100.8,9 M92.4,2c1.2,0,1.9,0.9,1.9,2.4c0,1.3-1.1,2.8-2.5,3.3c-1.1-1.5-1.3-2.5-1.3-3.4
	C90.5,2.6,91.3,2,92.4,2 M88.3,12.1c0-1.6,0.7-2.7,2.1-3.4l4.2,5.6c-1,0.9-2.1,1.5-3.1,1.5C89.7,15.8,88.3,14.3,88.3,12.1"/> </symbol><symbol viewBox="0 0 20 16" id="icon-twitter-logo"><title>twitter-logo</title> <path d="M20,1.895c-0.736,0.321-1.527,0.538-2.356,0.635c0.846-0.499,1.498-1.291,1.803-2.234
	c-0.792,0.463-1.67,0.8-2.604,0.981C16.092,0.493,15.026,0,13.847,0c-2.267,0-4.104,1.809-4.104,4.04
	c0,0.316,0.036,0.625,0.106,0.921C6.441,4.792,3.417,3.185,1.394,0.74C1.039,1.337,0.838,2.03,0.838,2.77
	c0,1.401,0.724,2.64,1.825,3.363C1.99,6.112,1.356,5.93,0.804,5.628c0,0.016,0,0.032,0,0.05c0,1.958,1.415,3.591,3.292,3.96
	C3.75,9.73,3.389,9.779,3.014,9.779c-0.265,0-0.521-0.023-0.771-0.072c0.52,1.605,2.036,2.773,3.832,2.807
	c-1.403,1.082-3.173,1.729-5.096,1.729c-0.332,0-0.658-0.02-0.979-0.057C1.817,15.33,3.973,16,6.289,16
	c7.55,0,11.676-6.154,11.676-11.492c0-0.176-0.004-0.349-0.012-0.523C18.754,3.416,19.45,2.706,20,1.895z"/> </symbol></svg>