<?xml version="1.0" encoding="UTF-8"?>
<svg width="70px" height="85px" viewBox="0 0 70 85" version="1.1" xmlns="http://www.w3.org/2000/svg" xmlns:xlink="http://www.w3.org/1999/xlink">
    <!-- Generator: Sketch 52.4 (67378) - http://www.bohemiancoding.com/sketch -->
    <title>Group 55</title>
    <desc>Created with Sketch.</desc>
    <g id="Page-1" stroke="none" stroke-width="1" fill="none" fill-rule="evenodd">
        <g id="Start-Copy" transform="translate(-240.000000, -9020.000000)">
            <g id="Group-55" transform="translate(240.000000, 9020.000000)">
                <path d="M25,38.4681429 L25,61.1704321 C25,61.1704321 28.0976819,67.7843798 34.4337447,68.9340515 C40.7682697,70.084508 45,55.8018967 45,55.8018967 L44.579441,37.4126422 C44.579441,37.4126422 28.5620651,33.6175483 25,38.4681429" id="Fill-1" fill="#3B0640"></path>
                <path d="M48.9922165,24.5556552 C48.6672769,35.4867671 42.9494117,47 35.4957251,47 C28.0420384,47 22,35.491381 22,24.5556552 C22,6.48144825 49.5302062,6.48144825 48.9922165,24.5556552" id="Fill-3" fill="#FF0843"></path>
                <path d="M51.222015,18.701972 C51.222015,18.701972 52.8684017,3.72488347 37.5581789,1.90197203 C37.5581789,1.90197203 37.3931491,0 35.4996089,0 C33.6068509,0 33.4426033,1.90197203 33.4426033,1.90197203 C18.1315983,3.72488347 19.777985,18.701972 19.777985,18.701972 C17.3087961,19.3359627 18.1315983,21 18.1315983,21 L35.4996089,21 L52.8684017,21 C52.8684017,21 53.6912039,19.3359627 51.222015,18.701972" id="Fill-5" fill="#FFAA00"></path>
                <path d="M70,71.1414417 L70,75.2896348 C70,80.6486939 54.3321861,85 35.0038859,85 C15.6678139,85 0,80.6486939 0,75.2896348 L0,72.3132477 C0,61.6263775 7.5385811,52.3925466 17.9915621,50.4317247 C18.2791162,50.3770404 18.4734096,50.3536043 18.5511269,50.3536043 C19.4992783,50.3536043 24.4343289,45.5023277 24.7607416,45.3148387 L24.7607416,49.5255281 C24.7607416,52.8456449 28.973021,53.6346609 31.7708449,59.5249388 C32.1672033,60.353015 33.7992672,63.4778309 34.9106251,65.5870815 C35.524592,66.7510755 35.9753525,67.6103998 35.9753525,67.6103998 C35.9753525,67.6103998 36.7058954,66.9463764 37.7395359,65.6183297 C40.2886644,62.3450851 44.7030088,55.033016 44.7030088,43.7055586 C44.7030088,42.9556028 45.4413234,40.7760437 47.5630066,42.9165426 C49.6924614,45.0492294 50.0344177,48.6115195 50.0344177,48.6115195 L53.8891973,49.713017 C63.4251138,52.4316068 70,61.1810912 70,71.1414417" id="Fill-7" fill="#3BC4F4"></path>
                <path d="M48.9506227,61.4838999 L45.0488447,71.0383284 C44.8708661,71.4747411 45.2016159,71.9495281 45.6790261,71.9420037 L50.2896628,71.8690174 C50.7655452,71.8614931 51.096295,72.3317654 50.9228996,72.7674257 L48.3975907,79.0969148 C48.1226024,79.7876508 49.0369384,80.3286521 49.5265703,79.7650777 L57.8380908,70.2053821 C58.2123803,69.7749889 57.89538,69.1113406 57.3201962,69.1196174 L52.3581856,69.1986231 C51.8662622,69.2061475 51.5355124,68.7050253 51.7417536,68.2656029 L54.7078076,61.933104 C54.913285,61.4936815 54.5825352,60.9925594 54.0906117,61.0000837 L49.5594161,61.0715651 C49.2913026,61.0760797 49.0506878,61.2378534 48.9506227,61.4838999" id="Fill-15" fill="#FFAA00"></path>
            </g>
        </g>
    </g>
</svg>