<?xml version="1.0" encoding="UTF-8"?>
<svg width="70px" height="85px" viewBox="0 0 70 85" version="1.1" xmlns="http://www.w3.org/2000/svg" xmlns:xlink="http://www.w3.org/1999/xlink">
    <!-- Generator: Sketch 52.4 (67378) - http://www.bohemiancoding.com/sketch -->
    <title>Group 55</title>
    <desc>Created with Sketch.</desc>
    <defs>
        <polygon id="path-1" points="0.523153846 0.55505042 69.8076923 0.55505042 69.8076923 42.8203982 0.523153846 42.8203982"></polygon>
    </defs>
    <g id="Page-1" stroke="none" stroke-width="1" fill="none" fill-rule="evenodd">
        <g id="Start-Copy" transform="translate(-240.000000, -9160.000000)">
            <g id="Group-55" transform="translate(240.000000, 9160.000000)">
                <path d="M25,38.3933507 L25,60.4076917 C25,60.4076917 28.097801,66.8212167 34.4333385,67.9360499 C40.7688759,69.0516441 45,55.2018392 45,55.2018392 L44.5794249,37.3698349 C44.5794249,37.3698349 28.5614332,33.6897438 25,38.3933507" id="Fill-17" fill="#3B0640"></path>
                <path d="M48.9922165,24.5556552 C48.6672769,35.4867671 42.9501781,47 35.4964914,47 C28.0428048,47 22,35.491381 22,24.5556552 C22,6.48144825 49.5302062,6.48144825 48.9922165,24.5556552" id="Fill-19" fill="#FF0843"></path>
                <path d="M50.2732819,18.701972 C50.2732819,18.701972 51.8718923,3.72488347 36.9988891,1.90197203 C36.9988891,1.90197203 36.8393319,0 34.9998663,0 C33.1611604,0 33.0008434,1.90197203 33.0008434,1.90197203 C18.1278402,3.72488347 19.7272104,18.701972 19.7272104,18.701972 C17.328535,19.3359627 18.1278402,21 18.1278402,21 L34.9998663,21 L51.8718923,21 C51.8718923,21 52.6719573,19.3359627 50.2732819,18.701972" id="Fill-21" fill="#FFAA00"></path>
                <g id="Group-25" transform="translate(0.000000, 42.000000)">
                    <mask id="mask-2" fill="white">
                        <use xlink:href="#path-1"></use>
                    </mask>
                    <g id="Clip-24"></g>
                    <path d="M69.8077692,29.1986125 L69.8077692,33.2759339 C69.8077692,36.3857554 64.4000769,39.1500411 56.0308462,40.8930768 C54.2923846,41.2616482 52.4154615,41.5764696 50.4385385,41.8375411 C45.8308462,42.4671839 40.6462308,42.8203982 35.1693077,42.8203982 C29.6846923,42.8203982 24.5000769,42.4671839 19.8923846,41.8375411 C17.9154615,41.5764696 16.0385385,41.2616482 14.3000769,40.8930768 C5.93084615,39.1500411 0.523153846,36.3857554 0.523153846,33.2759339 L0.523153846,30.3503982 C0.523153846,21.2666482 6.10007692,13.2578982 14.3000769,10.0098625 C15.5846923,9.49539821 16.9308462,9.10379107 18.3308462,8.84271964 C18.6154615,8.78896964 18.8077692,8.76593393 18.8846923,8.76593393 C19.077,8.76593393 19.4393077,8.56629107 19.8923846,8.24379107 C21.6385385,6.99218393 24.777,3.95914821 25.0308462,3.81325536 L25.0308462,7.95200536 C25.0308462,11.2153982 29.2000769,11.9909339 31.9700769,17.7805768 C32.3616154,18.5945054 33.977,21.6659339 35.077,23.7391482 C35.6846923,24.8832554 36.1308462,25.7278982 36.1308462,25.7278982 C36.1308462,25.7278982 36.8539231,25.0752196 37.877,23.7698625 C40.4008462,20.5525411 44.7693077,13.3653982 44.7693077,2.23146964 C44.7693077,1.49432679 45.5000769,-0.647994643 47.6000769,1.45593393 C49.7077692,3.55218393 50.047,7.0536125 50.047,7.0536125 L50.4385385,7.1611125 L53.8623846,8.13629107 C54.6000769,8.3436125 55.3308462,8.59700536 56.0308462,8.8811125 C64.2846923,12.1675411 69.8077692,20.1762911 69.8077692,29.1986125" id="Fill-23" fill="#3BC4F4" mask="url(#mask-2)"></path>
                </g>
                <path d="M48.9537086,72.3522613 L58.0470561,72.3522613 L58.0470561,68.8615578 L48.9537086,68.8615578 L48.9537086,72.3522613 Z M48.9537086,67.1384422 L58.0470561,67.1384422 L58.0470561,63.6477387 L48.9537086,63.6477387 L48.9537086,67.1384422 Z M59.023528,77 C59.5618493,77 60,76.5680905 60,76.0374372 L60,59.9633166 C60,59.4326633 59.5618493,59 59.023528,59 C58.4852068,59 58.0462914,59.4326633 58.0462914,59.9633166 L58.0462914,61.9238693 L48.9537086,61.9238693 L48.9537086,59.9633166 C48.9537086,59.4326633 48.5147932,59 47.976472,59 C47.4381507,59 47,59.4326633 47,59.9633166 L47,76.0374372 C47,76.5680905 47.4381507,77 47.976472,77 C48.5147932,77 48.9537086,76.5680905 48.9537086,76.0374372 L48.9537086,74.0761307 L58.0462914,74.0761307 L58.0462914,76.0374372 C58.0462914,76.5680905 58.4852068,77 59.023528,77 Z" id="Fill-26" fill="#FFAA00"></path>
                <path d="M17.5,83 C16.1249579,83 15,81.9914071 15,80.7578436 L15,51.2421564 C15,50.0093479 16.1249579,49 17.5,49 C18.8750421,49 20,50.0093479 20,51.2421564 L20,80.7578436 C20,81.9914071 18.8750421,83 17.5,83" id="Fill-53" fill="#FFAA00"></path>
            </g>
        </g>
    </g>
</svg>