<?xml version="1.0" encoding="UTF-8"?>
<svg width="69px" height="76px" viewBox="0 0 69 76" version="1.1" xmlns="http://www.w3.org/2000/svg" xmlns:xlink="http://www.w3.org/1999/xlink">
    <!-- Generator: Sketch 52.4 (67378) - http://www.bohemiancoding.com/sketch -->
    <title>Group 55</title>
    <desc>Created with Sketch.</desc>
    <defs>
        <polygon id="path-1" points="0.43304 0.541721739 7.61224 0.541721739 7.61224 18 0.43304 18"></polygon>
    </defs>
    <g id="Page-1" stroke="none" stroke-width="1" fill="none" fill-rule="evenodd">
        <g id="Start-Copy" transform="translate(-238.000000, -9308.000000)">
            <g id="Group-55" transform="translate(238.000000, 9308.000000)">
                <path d="M25,29.3933504 L25,51.4084501 C25,51.4084501 28.0976819,57.8212135 34.4337447,58.9360466 C40.7682697,60.0516407 45,46.2025982 45,46.2025982 L44.579441,28.3698347 C44.579441,28.3698347 28.5620651,24.6897441 25,29.3933504" id="Fill-9" fill="#3B0640"></path>
                <path d="M47.9922165,15.5556552 C47.6672769,26.4867671 41.9494117,38 34.4957251,38 C27.0420384,38 21,26.491381 21,15.5556552 C21,-2.51855175 48.5302062,-2.51855175 47.9922165,15.5556552" id="Fill-11" fill="#FF0843"></path>
                <path d="M69,61.4637338 L69,65.5154572 C69,70.7498871 53.556012,75 34.5038304,75 C15.443988,75 0,70.7498871 0,65.5154572 L0,62.6082884 C0,52.1699501 7.43088709,43.1508595 17.7345398,41.2356381 C18.017986,41.1822255 18.2095037,41.1593344 18.2861108,41.1593344 C19.2207172,41.1593344 24.085267,36.4208782 24.4070168,36.2377495 L24.4070168,40.3505158 C24.4070168,43.5934206 32.2347285,46.0420045 33.3302098,48.1022029 C33.9361719,49.2391272 35.4614189,50.0784672 35.4614189,50.0784672 C35.4614189,50.0784672 36.1815255,49.4298863 37.2003997,48.1327243 C39.713112,44.9356017 44.0643944,45.7299226 44.0643944,34.6658944 C44.0643944,33.9333795 44.7921617,31.8045078 46.883535,33.8952276 C48.9825691,35.9783171 49.3196403,39.4577632 49.3196403,39.4577632 L53.1193516,40.5336446 C62.5190407,43.1890113 69,51.7350193 69,61.4637338" id="Fill-13" fill="#3BC4F4"></path>
                <path d="M22.5109465,17.4859561 L23.6371579,26 L20.9963595,26 C20.9963595,26 19,20.0400154 19,14.8010773 C19,9.56136976 21.5995481,0 34.7070299,0 C47.8145117,0 50,11.9846095 50,17.092728 C50,22.201616 48.0791363,26 48.0791363,26 L45.8928697,26 L46.8867688,17.6167757 C46.8867688,17.6167757 40.2633693,19.5159677 34.0369069,12.3778376 C34.0369069,12.3778376 30.7244288,16.5694498 22.5109465,17.4859561" id="Fill-28" fill="#FFAA00"></path>
                <polygon id="Fill-38" fill="#FFAA00" points="33 52 38 52 37.0667463 57 33.866806 57"></polygon>
                <g id="Group-42" transform="translate(31.000000, 58.000000)">
                    <mask id="mask-2" fill="white">
                        <use xlink:href="#path-1"></use>
                    </mask>
                    <g id="Clip-41"></g>
                    <polygon id="Fill-40" fill="#FFAA00" mask="url(#mask-2)" points="5.36184 0.541721739 7.61224 18.0001565 0.43304 18.0001565 2.14744 0.541721739"></polygon>
                </g>
                <path d="M59.5985335,2.13546682 C56.8628964,2.66248801 54.6618909,4.85867186 54.1343771,7.57951711 C53.6685517,9.98100325 54.4483546,12.2110109 55.9391542,13.7613971 C56.4983029,14.3442668 56.8534059,15.0899625 56.8534059,15.8954396 L57.2440982,18.8569841 C57.2440982,20.4876034 58.3101979,21.813809 59.6697122,21.972702 C59.6689213,21.9907937 59.65864,22.0073123 59.65864,22.0261907 C59.65864,22.5642243 60.0975757,23 60.6385343,23 L61.3613941,23 C61.9023527,23 62.3404975,22.5642243 62.3404975,22.0261907 C62.3404975,22.0073123 62.3317979,21.9907937 62.3302162,21.972702 C63.6905214,21.813809 64.7558302,20.4876034 64.7558302,18.8569841 L65.1473134,15.8915066 C65.1473134,15.0938955 65.4929258,14.3505596 66.048911,13.7747693 C67.2557865,12.5248638 68,10.8321032 68,8.96235781 C68,4.66123556 64.079632,1.27099473 59.5985335,2.13546682" id="Fill-43" fill="#FFAA00"></path>
            </g>
        </g>
    </g>
</svg>