<?xml version="1.0" standalone="no"?>
<!DOCTYPE svg PUBLIC "-//W3C//DTD SVG 20010904//EN"
 "http://www.w3.org/TR/2001/REC-SVG-20010904/DTD/svg10.dtd">
<svg version="1.0" xmlns="http://www.w3.org/2000/svg"
 width="197.000000pt" height="197.000000pt" viewBox="0 0 197.000000 197.000000"
 preserveAspectRatio="xMidYMid meet">
<metadata>
Created by potrace 1.11, written by Peter Selinger 2001-2013
</metadata>
<g transform="translate(0.000000,197.000000) scale(0.100000,-0.100000)"
fill="#000000" stroke="none">
<path d="M1370 1898 c-111 -23 -137 -37 -213 -117 -63 -66 -91 -120 -103 -201
-4 -30 -9 -58 -10 -62 -1 -5 -2 -46 -3 -92 l-1 -83 -57 -6 -58 -7 -70 74 c-73
77 -111 102 -185 121 -121 31 -226 14 -320 -51 -36 -24 -89 -61 -119 -80 -29
-19 -65 -49 -80 -66 -29 -34 -51 -79 -45 -90 7 -11 92 18 132 45 31 21 111 45
134 39 3 -1 59 16 125 37 75 25 133 38 158 36 25 -1 77 -22 137 -52 l96 -50
-39 -37 c-40 -37 -65 -81 -50 -91 5 -2 12 -20 15 -38 8 -43 32 -76 64 -88 25
-10 25 -10 5 -24 -11 -8 -33 -16 -48 -19 -54 -10 -128 -75 -87 -77 9 0 32 -2
51 -4 18 -2 44 0 57 5 31 12 30 3 -3 -25 -19 -17 -32 -21 -47 -15 -23 8 -76
-6 -76 -21 0 -5 -7 -9 -16 -9 -23 0 -73 -60 -80 -96 -17 -91 85 -106 131 -20
11 21 27 36 38 36 14 0 16 -4 7 -19 -26 -50 10 -88 59 -62 15 9 25 8 39 0 16
-10 26 -8 55 10 l36 22 11 -21 c12 -22 49 -27 81 -10 13 8 25 7 39 0 14 -8 29
-7 56 5 33 14 39 14 54 0 9 -8 28 -15 42 -15 27 0 88 51 88 74 0 7 9 16 20 19
23 6 24 -1 10 -38 -8 -21 -6 -29 11 -46 22 -22 50 -19 81 8 15 13 18 12 33
-10 54 -83 219 -47 344 75 59 58 89 110 96 168 5 36 2 45 -25 72 -28 27 -36
30 -76 25 -56 -6 -116 -45 -151 -99 -22 -32 -28 -53 -28 -95 0 -57 13 -75 49
-71 27 4 32 28 7 35 -49 13 -30 105 33 159 67 58 135 45 135 -26 1 -99 -173
-260 -281 -260 -40 0 -68 21 -68 50 0 10 13 43 29 74 l30 56 -29 0 c-24 0 -33
-9 -61 -57 -17 -32 -39 -63 -48 -70 -30 -22 -32 5 -4 58 15 30 29 57 31 62 8
18 -43 5 -70 -18 -37 -31 -51 -31 -72 0 -13 19 -23 24 -52 21 -39 -3 -64 -26
-89 -83 -9 -22 -21 -33 -34 -33 -28 0 -26 21 4 50 37 35 105 179 105 223 0 49
-21 49 -69 0 -25 -26 -47 -39 -68 -40 -28 -3 -33 1 -43 31 -6 19 -16 36 -22
38 -6 2 10 16 35 31 26 15 54 41 62 57 34 66 3 167 -60 197 -19 9 -35 20 -35
24 0 28 43 134 69 173 60 87 72 97 236 195 107 64 205 151 205 183 0 10 -67
26 -110 26 -19 0 -78 -9 -130 -20z m-110 -960 c-17 -43 -71 -130 -77 -124 -3
3 14 41 38 85 43 81 63 101 39 39z m-513 -154 c9 -24 -14 -64 -37 -64 -24 0
-26 26 -4 58 18 26 32 28 41 6z m603 -21 c0 -8 -46 -43 -57 -43 -18 0 -16 45
2 64 14 14 18 14 35 -2 11 -9 20 -18 20 -19z"/>
<path d="M565 1106 c-17 -7 -36 -20 -43 -28 -11 -14 -19 -14 -55 -3 -190 56
-415 -105 -455 -325 -32 -176 76 -301 225 -259 53 14 113 67 113 98 0 31 -34
24 -38 -7 -5 -30 -57 -62 -102 -62 -106 0 -160 114 -121 255 47 168 183 284
320 272 29 -3 55 -8 59 -12 4 -3 -2 -21 -12 -38 -10 -18 -42 -74 -70 -125 -28
-51 -65 -109 -81 -128 -31 -35 -31 -35 -76 -23 -56 15 -99 6 -99 -21 0 -35 43
-53 108 -46 31 4 68 5 82 4 71 -7 168 0 195 14 76 40 125 120 120 197 -5 63
-18 93 -61 141 -35 39 -36 41 -18 55 22 17 64 20 64 5 0 -17 27 -11 34 7 5 11
1 22 -10 30 -22 16 -41 16 -79 -1z m-30 -143 c13 -27 16 -51 12 -93 -9 -103
-74 -172 -173 -184 l-37 -5 36 34 c43 40 68 88 91 170 22 78 37 115 46 115 4
0 16 -16 25 -37z m-305 -273 c0 -5 -13 -10 -30 -10 -16 0 -30 5 -30 10 0 6 14
10 30 10 17 0 30 -4 30 -10z"/>
<path d="M569 651 c-65 -21 -142 -79 -165 -123 -52 -101 23 -206 115 -160 40
19 58 63 35 83 -21 17 -49 -8 -32 -28 9 -11 8 -17 -3 -28 -19 -19 -58 -8 -64
19 -14 67 -8 92 33 138 59 66 136 92 220 73 l30 -6 -45 -65 c-27 -38 -52 -64
-63 -64 -9 0 -23 -7 -31 -16 -10 -13 -10 -19 0 -36 11 -18 8 -27 -23 -73 -31
-45 -41 -52 -70 -52 -57 0 -69 -9 -63 -48 6 -38 5 -38 -61 -37 -46 0 -85 37
-77 72 3 14 15 32 25 40 24 19 12 45 -17 36 -22 -7 -43 -45 -43 -77 0 -34 29
-78 62 -95 34 -18 111 -25 143 -13 38 13 127 -12 169 -48 22 -18 44 -34 50
-34 50 -6 65 -5 96 8 36 14 77 59 65 71 -3 3 -9 1 -13 -5 -11 -17 -58 -33 -84
-28 -47 9 -92 45 -55 45 7 0 29 13 49 30 56 46 79 135 49 188 -6 10 0 27 15
49 25 38 27 100 4 128 -10 12 -9 15 4 15 9 0 16 -4 16 -10 0 -15 37 -12 43 3
11 29 -11 42 -75 43 -35 1 -97 5 -138 8 -41 3 -87 2 -101 -3z m196 -93 c-1
-13 -3 -30 -4 -38 -3 -29 -18 -42 -40 -35 -20 6 -20 7 -5 38 30 60 53 76 49
35z m-38 -204 c-5 -47 -28 -87 -62 -110 -17 -11 -23 -10 -42 5 l-22 18 25 34
c14 19 32 49 39 67 11 25 20 32 41 32 26 0 26 -1 21 -46z m-223 -85 c-8 -14
-24 -10 -24 6 0 9 6 12 15 9 8 -4 12 -10 9 -15z m76 -43 c0 -11 -19 -15 -25
-6 -3 5 1 10 9 10 9 0 16 -2 16 -4z"/>
<path d="M1012 589 c-32 -12 -116 -100 -132 -138 -7 -17 -19 -31 -27 -31 -9 0
-13 -6 -10 -14 3 -7 1 -32 -5 -55 -21 -81 16 -120 81 -86 28 14 33 14 47 0 18
-17 55 -20 71 -4 8 8 17 7 32 -3 18 -11 26 -10 53 5 30 17 32 17 52 -1 35 -32
93 -12 159 54 l37 37 0 -37 c0 -34 -4 -38 -42 -56 -105 -47 -134 -116 -61
-147 32 -13 38 -12 71 5 43 22 73 68 74 111 1 29 8 34 122 91 126 62 156 84
193 136 27 38 33 70 21 106 -11 31 -35 43 -54 27 -17 -14 -18 -46 -2 -51 21
-7 -2 -59 -48 -103 -42 -42 -227 -145 -238 -134 -3 3 -7 23 -9 45 -4 36 0 43
45 85 51 49 56 79 14 79 -28 0 -56 -31 -85 -92 -40 -84 -117 -152 -146 -128
-22 18 -18 30 8 30 34 0 69 36 65 68 -2 22 -9 28 -34 30 -26 3 -36 -3 -60 -33
-87 -109 -117 -120 -70 -26 14 28 26 52 26 54 0 3 -12 5 -26 5 -20 0 -29 -9
-42 -37 -22 -48 -51 -91 -63 -91 -15 0 -10 33 11 75 25 50 25 57 -2 53 -13 -2
-29 -15 -36 -31 -18 -37 -81 -99 -95 -94 -15 5 -17 60 -3 78 6 8 29 23 51 34
93 47 146 218 57 184z m-5 -102 c-14 -23 -40 -51 -57 -61 l-33 -19 26 44 c31
53 80 104 85 89 2 -5 -7 -29 -21 -53z m250 -134 c-9 -9 -20 -13 -24 -9 -4 4 1
14 11 22 25 18 35 8 13 -13z m93 -135 c-20 -37 -52 -68 -72 -68 -21 0 -21 2
-7 32 9 20 78 69 87 62 2 -1 -2 -13 -8 -26z"/>
</g>
</svg>
