<?xml version="1.0" encoding="UTF-8" standalone="no"?>
<!DOCTYPE svg  PUBLIC '-//W3C//DTD SVG 1.1//EN'  'http://www.w3.org/Graphics/SVG/1.1/DTD/svg11.dtd'>
<svg xmlns="http://www.w3.org/2000/svg">
<defs>
<font id="NarzissSwirls-Regular" horiz-adv-x="500">
<font-face underline-position="-50" font-weight="400" descent="-200" panose-1="2 0 5 6 0 0 0 2 0 4" units-per-em="1000" unicode-range="U+0020-25CA" bbox="-189 -244 1108 939" x-height="507" underline-thickness="50" font-family="NarzissSwirls" ascent="800" cap-height="700"/>
<missing-glyph horiz-adv-x="1000"/>
<glyph glyph-name=".notdef" horiz-adv-x="1000"/>
<glyph glyph-name=".null" horiz-adv-x="0"/>
<glyph glyph-name="nonmarkingreturn" horiz-adv-x="333"/>
<glyph glyph-name="space" horiz-adv-x="260" unicode=" "/>
<glyph glyph-name="exclam" horiz-adv-x="222" unicode="!" d="M116 227h-4q0 90 -23 230t-23 187q0 29 13.5 45t34.5 16t34.5 -16t13.5 -45q0 -47 -23 -187t-23 -230zM163 45q0 -22 -14.5 -36.5t-34.5 -14.5q-21 0 -34.5 14t-13.5 36t14 37t34 15q22 0 35.5 -14t13.5 -37z"/>
<glyph glyph-name="quotedbl" horiz-adv-x="368" unicode='&quot;' d="M298 659q0 -19 -19.5 -68t-19.5 -85h-3q0 36 -20 85t-20 68q0 21 12 33.5t29 12.5q18 0 29.5 -12.5t11.5 -33.5zM152 659q0 -19 -19.5 -68t-19.5 -85h-3q0 36 -20 85t-20 68q0 21 12 33.5t29 12.5q18 0 29.5 -12.5t11.5 -33.5z"/>
<glyph glyph-name="numbersign" d="M242 196q13 0 25 -0.5t25.5 -1.5t21.5 -1q3 27 10 63l13 75q-48 -2 -72 -2q-28 0 -78 2q-9 -69 -10 -75l-12 -63q75 3 77 3zM465 337v-3q-64 0 -118 -2q-8 -64 -10 -76q-2 -11 -6 -32t-6 -31q52 -2 117 -2v-3q-66 0 -118 -2q-19 -89 -34 -186h-3q2 10 26 185 q-48 -2 -71 -2q-28 0 -78 2q-19 -92 -34 -185h-3q0 2 26 186q-52 2 -111 2v3q60 0 112 2q3 29 10 63l13 76q-52 2 -112 2v3q62 0 114 2q19 102 31 173h3q-11 -67 -25 -173q75 3 77 3q13 0 25 -0.5t26.5 -1.5t22.5 -1q24 128 31 173h3q-9 -55 -25 -173q52 -2 117 -2z" unicode="#"/>
<glyph glyph-name="dollar" horiz-adv-x="513" unicode="$" d="M265 706v-311q8 -3 34 -13t35.5 -14.5t32 -14.5t32 -17t26.5 -19t24.5 -24.5t17 -28t13 -34t3.5 -40.5q0 -86 -63 -142.5t-155 -57.5v-71h-3v71q-60 1 -113.5 27.5t-79.5 26.5q-35 0 -35 -36h-4v209h4q17 -99 77.5 -160.5t150.5 -62.5v314q-5 2 -30.5 12t-32.5 13t-29 13 t-29.5 15t-25.5 16.5t-24.5 20t-18 22.5t-16 27.5t-8.5 31t-4 37.5q0 88 59 140.5t159 53.5v89h3v-89q46 0 93.5 -18.5t67.5 -18.5q16 0 25.5 10t9.5 27h3v-196q0 -51 -24.5 -80.5t-65.5 -29.5q-31 0 -50 17.5t-19 46.5q0 27 16.5 44t42.5 17q19 0 31.5 -8.5t16.5 -16.5 l3 -9h-2q-1 4 -3.5 9t-15 14t-30.5 9q-25 0 -41 -16.5t-16 -42.5q0 -28 18 -45t49 -17q40 0 62 28t22 76q0 88 -56 142t-137 54zM110 564q0 -66 39.5 -102.5t112.5 -65.5v310q-71 -1 -111.5 -41.5t-40.5 -100.5zM416 141q0 65 -39 101t-112 65v-313q72 1 111.5 41.5 t39.5 105.5z"/>
<glyph glyph-name="percent" horiz-adv-x="744" unicode="%" d="M361 531q0 -76 -48 -130t-114 -54q-68 0 -113.5 51.5t-45.5 127.5q0 75 48 129t114 54q69 0 114 -51t45 -127zM292 527q0 79 -23.5 128.5t-66.5 49.5q-46 0 -69.5 -48t-23.5 -127t23.5 -129t66.5 -50q46 0 69.5 48.5t23.5 127.5zM704 175q0 -76 -48 -130t-114 -54 q-68 0 -113.5 51.5t-45.5 127.5q0 75 48 129t114 54q69 0 114 -51t45 -127zM635 171q0 79 -23.5 128.5t-66.5 49.5q-46 0 -69.5 -48t-23.5 -127t23.5 -129t66.5 -50q46 0 69.5 48.5t23.5 127.5zM529 723h3q-54 -132 -95.5 -239t-52.5 -135q-15 -35 -62.5 -141t-99.5 -233h-3 q48 116 87 215.5t63 158.5q21 50 65 150.5t95 223.5z"/>
<glyph glyph-name="ampersand" horiz-adv-x="759" unicode="&amp;" d="M338 695q95 0 144 -41t49 -103q0 -57 -33.5 -91t-90.5 -34q-42 0 -69 25t-27 62q0 30 20.5 49.5t50.5 19.5q29 0 47.5 -18t18.5 -46q0 -19 -9.5 -33t-18.5 -19l-10 -4v2q4 1 10 4.5t16 17t10 32.5q0 27 -18 44.5t-46 17.5q-29 0 -49 -19t-20 -48q0 -36 26.5 -60.5 t67.5 -24.5q56 0 89 33.5t33 89.5q0 59 -46 97.5t-131 38.5q-66 0 -107 -41t-41 -109t37 -108t102 -40h9v-3h-17q-89 0 -146.5 -54t-57.5 -141q0 -80 65.5 -139.5t189.5 -59.5q122 0 184.5 53.5t62.5 132.5q0 64 -31.5 99.5t-94.5 36.5q-66 0 -104 -25t-38 -53q0 -5 5 -5 q1 0 5 2t11 4t14 2q20 0 35 -13.5t15 -37.5q0 -22 -15 -36.5t-38 -14.5q-22 0 -36.5 16t-14.5 41q0 55 43 89t118 34q66 0 102 26t36 54q0 5 -5 5q-1 0 -5 -2t-11 -4t-14 -2q-20 0 -35 14t-15 37q0 21 15 36t38 15q22 0 36.5 -16t14.5 -41q0 -49 -34 -83.5t-96 -40.5 q79 -6 125.5 -40.5t46.5 -88.5q0 -81 -81.5 -139t-238.5 -58q-168 0 -252 56t-84 148q0 83 71 135.5t176 61.5q-168 28 -168 141q0 74 59.5 119t149.5 45z"/>
<glyph glyph-name="quotesingle" horiz-adv-x="222" unicode="&apos;" d="M152 659q0 -19 -19.5 -68t-19.5 -85h-3q0 36 -20 85t-20 68q0 21 12 33.5t29 12.5q18 0 29.5 -12.5t11.5 -33.5z"/>
<glyph glyph-name="parenleft" horiz-adv-x="317" unicode="(" d="M60 324q0 171 72 289t175 148v-4q-80 -24 -122.5 -123.5t-42.5 -302.5q0 -383 165 -432v-4q-104 30 -175.5 144t-71.5 285z"/>
<glyph glyph-name="parenright" horiz-adv-x="317" unicode=")" d="M257 324q0 -171 -71.5 -285t-175.5 -144v4q165 49 165 432q0 203 -42.5 302.5t-122.5 123.5v4q103 -30 175 -148t72 -289z"/>
<glyph glyph-name="asterisk" horiz-adv-x="367" unicode="*" d="M78 614q14 -5 46 -32t59 -36q-1 28 -17 67t-16 55q0 17 9.5 27t23.5 10t23.5 -10t9.5 -27q0 -15 -15.5 -54.5t-15.5 -67.5q26 9 57.5 36t46.5 32q5 2 14 2q24 0 32 -22q1 -3 1 -9q0 -25 -26 -34q-11 -4 -27 -4q-8 0 -25.5 1.5t-27.5 1.5q-26 0 -44 -6q17 -22 52 -44 t44 -34q8 -13 8 -24q0 -16 -13 -26q-9 -6 -19 -6q-17 0 -30 16q-9 13 -18 53.5t-26 63.5q-16 -23 -26 -63.5t-19 -53.5q-13 -16 -30 -16q-10 0 -19 6q-13 10 -13 26q0 11 8 24q9 12 44.5 34t52.5 44q-18 6 -44 6q-10 0 -28 -1.5t-26 -1.5q-16 0 -27 4q-26 9 -26 34q0 6 1 9 q8 22 32 22q9 0 14 -2z"/>
<glyph glyph-name="plus" d="M249 463h3q0 -69 2.5 -125.5t2.5 -68.5q11 0 68 -2.5t125 -2.5v-3q-65 0 -118.5 -2.5t-74.5 -2.5q0 -16 -2.5 -72t-2.5 -121h-3q0 62 -2.5 115t-2.5 78q-25 0 -78 2.5t-116 2.5v3q66 0 121.5 2.5t72.5 2.5q0 22 2.5 75t2.5 119z" unicode="+"/>
<glyph glyph-name="comma" horiz-adv-x="222" unicode="," d="M70 -94v3q39 11 59.5 41t20.5 53q0 5 -5 5q-1 0 -5 -2t-11 -4t-14 -2q-20 0 -35 14t-15 37q0 21 14 36t36 15q24 0 39 -17.5t15 -42.5q0 -41 -26 -82t-73 -54z"/>
<glyph glyph-name="hyphen" horiz-adv-x="397" unicode="-" d="M347 285v-3q-51 0 -91.5 -2.5t-58.5 -2.5q-21 0 -59.5 2.5t-87.5 2.5v3q49 0 87.5 2.5t59.5 2.5q18 0 58.5 -2.5t91.5 -2.5z"/>
<glyph glyph-name="period" horiz-adv-x="222" unicode="." d="M163 45q0 -22 -14.5 -36.5t-34.5 -14.5q-21 0 -34.5 14t-13.5 36t14 37t34 15q22 0 35.5 -14t13.5 -37z"/>
<glyph glyph-name="slash" horiz-adv-x="312" unicode="/" d="M269 723h3q-40 -130 -69.5 -234.5t-39.5 -139.5q-16 -51 -49.5 -151.5t-70.5 -222.5h-3q37 120 65.5 220.5t44.5 153.5q15 50 48 150.5t71 223.5z"/>
<glyph glyph-name="zero" horiz-adv-x="586" unicode="0" d="M294 514h-2q-82 0 -123 -71t-41 -186q0 -116 41.5 -189t120.5 -73q83 0 125 71t42 187q0 94 -28.5 161.5t-82.5 89.5q51 -25 51 -87q0 -37 -23.5 -61.5t-59.5 -24.5q-35 0 -58 22.5t-23 56.5q0 24 11.5 41t23.5 22l11 5v-2q-5 -2 -12.5 -5.5t-19.5 -20.5t-12 -40 q0 -34 22 -55.5t57 -21.5t58 23.5t23 60.5q0 44 -28 70t-73 27zM541 258q0 -110 -74 -188.5t-177 -78.5q-106 0 -175.5 75.5t-69.5 185.5t73.5 188t176.5 78q106 0 176 -75t70 -185z"/>
<glyph glyph-name="one" horiz-adv-x="247" unicode="1" d="M83 495l-42 -9q-106 -23 -106 -95q0 -31 17 -49t45 -18q26 0 42.5 16t16.5 41q0 18 -8 30t-16 15l-8 4v2q4 -1 9.5 -3.5t15 -15.5t9.5 -32q0 -26 -17 -42.5t-44 -16.5q-29 0 -46.5 19t-17.5 50q0 74 107 97l125 26v-511h62v-3h-207v3h63v492z"/>
<glyph glyph-name="two" horiz-adv-x="529" unicode="2" d="M243 511q-84 0 -131 -44.5t-47 -105.5q0 -56 33 -88t89 -32q41 0 67.5 24.5t26.5 60.5q0 29 -20 48t-49 19q-28 0 -46 -17.5t-18 -44.5q0 -19 9 -32.5t18 -17.5l9 -4v-2q-4 1 -10.5 4.5t-17 18t-10.5 33.5q0 28 18.5 46t47.5 18q30 0 50.5 -19.5t20.5 -49.5 q0 -37 -27 -62t-69 -25q-57 0 -90.5 32.5t-33.5 89.5q0 63 50 109.5t144 46.5q99 0 158 -40t59 -117q0 -68 -45 -113.5t-146 -99.5l-142 -81h166q89 0 133 15.5t62 62.5h3l-51 -144h-414l225 159q122 86 122 203q0 149 -144 149z"/>
<glyph glyph-name="three" horiz-adv-x="529" unicode="3" d="M227 -138q85 0 134 46.5t49 116.5q0 73 -46.5 119t-132.5 46h-71v3h70q80 2 117.5 47t37.5 117q0 76 -30.5 116t-101.5 40t-115 -42.5t-60 -112.5h-3v159h3q0 -27 28 -27q16 0 62.5 13.5t84.5 13.5q99 0 159 -40.5t60 -116.5q0 -65 -55.5 -111t-142.5 -57 q101 -5 160.5 -47t59.5 -110q0 -80 -67.5 -130.5t-179.5 -50.5q-99 0 -153 45t-54 107q0 57 34.5 90t91.5 33q42 0 69 -25t27 -62q0 -30 -20.5 -49.5t-50.5 -19.5q-29 0 -47.5 18t-18.5 46q0 19 9.5 33t19.5 18l9 5v-2q-4 -1 -10 -4.5t-16 -17t-10 -32.5q0 -27 18 -44.5 t46 -17.5q29 0 49 19t20 48q0 36 -26.5 60.5t-67.5 24.5q-57 0 -90.5 -32.5t-33.5 -88.5q0 -60 49.5 -102t135.5 -42z"/>
<glyph glyph-name="four" horiz-adv-x="529" unicode="4" d="M67 63h253v86q-43 30 -43 89q0 56 43 88v96zM320 152v172q-41 -33 -41 -86q0 -58 41 -86zM393 348v-214q26 3 45 17.5t25 27.5l6 13h2q-1 -2 -2.5 -6t-8 -13.5t-14.5 -17t-22 -14.5t-31 -9v-68q131 0 131 140q0 65 -36 104.5t-95 39.5zM393 350q60 0 96.5 -40.5 t36.5 -105.5q0 -40 -20 -94l-42 -110h-71v-143h62v-3h-198v3h63v143h-302l375 530v-180z"/>
<glyph glyph-name="five" horiz-adv-x="529" unicode="5" d="M42 8q0 -57 47 -101.5t131 -44.5q85 0 134 53.5t49 135.5q0 86 -41.5 132.5t-124.5 46.5q-30 0 -57 -7.5t-44.5 -18t-30.5 -21.5t-19 -19l-6 -7h-3l63 332h160q89 0 133 15.5t62 62.5h3l-51 -144h-317l-50 -262q2 3 7 8.5t21.5 19t36 24t51 19t66.5 8.5q105 0 165 -46.5 t60 -134.5q0 -89 -68 -147t-179 -58q-97 0 -148.5 47t-51.5 107q0 61 37.5 98.5t98.5 37.5q45 0 74 -26.5t29 -66.5q0 -32 -22 -53t-54 -21q-31 0 -51 19.5t-20 49.5q0 20 10 35t20 20l10 5v-2q-4 -1 -10.5 -4.5t-17 -18.5t-10.5 -35q0 -29 19.5 -48t49.5 -19q31 0 52.5 20 t21.5 52q0 39 -28.5 65t-72.5 26q-61 0 -97.5 -36.5t-36.5 -97.5z"/>
<glyph glyph-name="six" horiz-adv-x="548" unicode="6" d="M276 374q-56 0 -89 -29.5t-33 -71.5q0 -31 17 -49t45 -18q26 0 42.5 16t16.5 41q0 18 -8 30t-16 15l-8 4v2q4 -1 9.5 -3.5t15 -15.5t9.5 -32q0 -26 -17 -42.5t-44 -16.5q-29 0 -46.5 19t-17.5 50q0 45 39 78t110 33q96 0 151.5 -49t55.5 -138q0 -87 -66.5 -146 t-161.5 -59q-106 0 -168 63t-62 186q0 87 31 163.5t81 127.5t105 85t110 49v-4q-86 -25 -142.5 -88.5t-80 -146t-23.5 -184.5q0 -116 42 -181.5t107 -65.5q69 0 106.5 55.5t37.5 137.5q0 87 -36.5 136t-111.5 49z"/>
<glyph glyph-name="seven" horiz-adv-x="529" unicode="7" d="M20 279q0 39 15 84l50 144h421l-164 -289q-69 -121 -73 -285q-2 -89 -54 -89q-16 0 -26.5 10.5t-10.5 30.5q0 51 130 279q21 37 32 57l125 220h-253q-93 0 -141 -42.5t-48 -119.5q0 -58 31.5 -93t84.5 -35q43 0 71.5 28t28.5 70q0 41 -25.5 67t-65.5 26q-27 0 -46.5 -13 t-25.5 -26l-6 -13h-2q2 6 6.5 15t25 24t48.5 15q41 0 67 -27t26 -68q0 -42 -29 -71t-73 -29q-54 0 -86.5 36.5t-32.5 93.5z"/>
<glyph glyph-name="eight" horiz-adv-x="572" unicode="8" d="M284 328q-75 0 -115 -45.5t-40 -116.5q0 -75 40 -122.5t117 -47.5q78 0 117.5 46t39.5 120q0 62 -40.5 107.5t-101.5 45.5q-40 0 -67 -22t-27 -60q0 -31 17 -49t45 -18q26 0 42.5 16t16.5 41q0 18 -8 30t-16 15l-8 4v2q4 -1 9.5 -3.5t15 -15.5t9.5 -32q0 -26 -17 -42.5 t-44 -16.5q-29 0 -46.5 19t-17.5 50q0 40 30.5 64.5t74.5 24.5q100 0 158.5 -40.5t58.5 -109.5q0 -80 -65 -130t-176 -50q-112 0 -176.5 47.5t-64.5 126.5q0 74 66.5 119.5t172.5 45.5q65 0 97 46.5t32 115.5q0 158 -127 158q-65 0 -96 -44.5t-31 -118.5q0 -64 27 -105 t74 -41q31 0 50.5 17t19.5 49q0 25 -14 40t-37 15q-22 0 -35 -13t-13 -34q0 -15 6.5 -25t12.5 -13l7 -2v-2q-3 1 -7.5 3t-12.5 13t-8 26q0 22 14 35.5t36 13.5q24 0 38.5 -15.5t14.5 -41.5q0 -33 -22 -52t-58 -19q-74 0 -127 45.5t-53 107.5q0 74 60.5 119.5t153.5 45.5 q95 0 154.5 -42t59.5 -117q0 -68 -61.5 -118t-154.5 -50z"/>
<glyph glyph-name="nine" horiz-adv-x="548" unicode="9" d="M282 134q56 0 89 29.5t33 71.5q0 31 -17 49t-45 18q-26 0 -42.5 -16t-16.5 -41q0 -18 8 -30t16 -15l8 -4v-2q-4 1 -9.5 3.5t-15 15.5t-9.5 32q0 26 17 42.5t44 16.5q29 0 46.5 -19t17.5 -50q0 -45 -39 -78t-110 -33q-94 0 -150.5 53t-56.5 138q0 86 66.5 143.5 t161.5 57.5q106 0 168 -63t62 -186q0 -87 -31 -163.5t-81 -127.5t-105 -85t-110 -49v4q86 25 142.5 88.5t80 146t23.5 184.5q0 116 -42 181.5t-107 65.5q-69 0 -106.5 -53.5t-37.5 -135.5q0 -84 37 -136.5t111 -52.5z"/>
<glyph glyph-name="colon" horiz-adv-x="222" unicode=":" d="M163 456q0 -22 -14.5 -36.5t-34.5 -14.5q-21 0 -34.5 14t-13.5 36t14 37t34 15q22 0 35.5 -14t13.5 -37zM163 45q0 -22 -14.5 -36.5t-34.5 -14.5q-21 0 -34.5 14t-13.5 36t14 37t34 15q22 0 35.5 -14t13.5 -37z"/>
<glyph glyph-name="semicolon" horiz-adv-x="222" unicode=";" d="M163 456q0 -22 -14.5 -36.5t-34.5 -14.5q-21 0 -34.5 14t-13.5 36t14 37t34 15q22 0 35.5 -14t13.5 -37zM70 -94v3q39 11 59.5 41t20.5 53q0 5 -5 5q-1 0 -5 -2t-11 -4t-14 -2q-20 0 -35 14t-15 37q0 21 14 36t36 15q24 0 39 -17.5t15 -42.5q0 -41 -26 -82t-73 -54z"/>
<glyph glyph-name="less" d="M450 138l-1 -3q-129 41 -236 72.5t-155 46.5q-8 3 -8 8t8 8q48 15 155 46.5t236 72.5l1 -3q-129 -41 -234.5 -77t-140.5 -47q28 -9 136 -46t239 -78z" unicode="&lt;"/>
<glyph glyph-name="equal" d="M450 204v-3q-68 0 -123 -2.5t-79 -2.5q-28 0 -80.5 2.5t-117.5 2.5v3q65 0 117.5 2.5t80.5 2.5q24 0 79 -2.5t123 -2.5zM450 324v-3q-68 0 -123 -2.5t-79 -2.5q-28 0 -80.5 2.5t-117.5 2.5v3q65 0 117.5 2.5t80.5 2.5q24 0 79 -2.5t123 -2.5z" unicode="="/>
<glyph glyph-name="greater" d="M51 135l-1 3q131 41 239 78t136 46q-35 11 -140.5 47t-234.5 77l1 3q129 -41 236 -72.5t155 -46.5q8 -3 8 -8t-8 -8q-48 -15 -155 -46.5t-236 -72.5z" unicode="&gt;"/>
<glyph glyph-name="question" horiz-adv-x="373" unicode="?" d="M176 704q77 0 122 -38.5t45 -103.5q0 -44 -19 -81t-46.5 -63t-55 -50t-46.5 -53t-19 -60q0 -17 6 -37h-4q-13 43 -13 77q0 35 13 65t31.5 52l37 44t31.5 52.5t13 67.5q0 54 -30 88t-82 34q-61 0 -100 -36.5t-39 -93.5q0 -54 33.5 -86t87.5 -32q41 0 67 25t26 62 q0 29 -20 48t-49 19q-28 0 -46 -17.5t-18 -44.5q0 -19 9 -32.5t18 -17.5l9 -4v-2q-4 1 -10.5 4.5t-17 18t-10.5 33.5q0 28 18.5 46t47.5 18q30 0 50.5 -19.5t20.5 -49.5q0 -37 -27 -63t-68 -26q-55 0 -89 33t-34 87q0 59 41.5 97.5t115.5 38.5zM223 45q0 -22 -14.5 -36.5 t-34.5 -14.5q-21 0 -34.5 14t-13.5 36t14 37t34 15q22 0 35.5 -14t13.5 -37z"/>
<glyph glyph-name="at" horiz-adv-x="842" unicode="@" d="M528 208v180q-15 -24 -46 -44t-57.5 -32t-47 -39t-20.5 -67q0 -37 22 -59t58 -22q41 0 66 24.5t25 58.5zM741 57h4q-3 -5 -10 -13.5t-33 -29.5t-57 -37t-84 -29.5t-112 -13.5q-171 0 -285 109t-114 273q0 165 114.5 274.5t285.5 109.5q163 0 264 -97t101 -241 q0 -116 -56.5 -187t-136.5 -71q-37 0 -64 19t-29 57q-15 -31 -49.5 -55t-79.5 -24q-47 0 -82 27t-35 73q0 42 26 68t63.5 38t74.5 25t63 39.5t26 69.5q0 89 -106 89q-47 0 -79.5 -26t-32.5 -43q0 -4 5 -4q1 0 4 1.5t9 3t12 1.5q15 0 27.5 -11.5t12.5 -29.5t-12 -30t-30 -12 q-19 0 -31 13t-12 33q0 41 38.5 75t101.5 34q70 0 110.5 -43.5t40.5 -114.5v-211q0 -53 53 -53q62 0 113.5 69t51.5 180q0 142 -100.5 238.5t-261.5 96.5q-163 0 -255 -108.5t-92 -271.5t91.5 -271.5t254.5 -108.5q59 0 110.5 12.5t83 30t55 35t33.5 29.5z"/>
<glyph glyph-name="A" horiz-adv-x="675" unicode="A" d="M415 300h-180q-35 0 -63 9l-72 -197q-10 -28 -10 -47q0 -62 73 -62h7v-3h-170v3h4q32 0 52.5 28.5t39.5 81.5l72 197q-88 30 -88 115q0 49 30.5 80.5t77.5 31.5q33 0 57 -15l65 178h37l272 -697h56v-3h-210v3h66zM173 312q29 -9 62 -9h179l-126 325l-39 -108 q43 -29 43 -85q0 -30 -15 -52t-29 -29l-15 -7v3q2 1 6 2.5t14 8.5t17.5 15.5t13.5 24.5t6 34q0 56 -42 83zM169 313l75 207q-24 15 -56 15q-46 0 -76 -31t-30 -79q0 -41 23.5 -70t63.5 -42z"/>
<glyph glyph-name="B" horiz-adv-x="563" unicode="B" d="M281 352q69 0 105 46.5t36 124.5q0 79 -37.5 126.5t-117.5 47.5h-102v-694h116q89 0 132 47t43 127q0 76 -45 124t-130 48q-44 0 -72.5 -21.5t-28.5 -60.5q0 -31 17 -49t45 -18q26 0 42.5 16t16.5 41q0 18 -8 30t-16 15l-8 4v2q4 -1 9.5 -3.5t15 -15.5t9.5 -32 q0 -26 -17 -42.5t-44 -16.5q-29 0 -46.5 19t-17.5 50q0 39 29.5 62t73.5 23zM83 697h-63v3h269q104 0 162 -47t58 -127q0 -70 -52 -116.5t-136 -57.5q103 -3 162.5 -49.5t59.5 -122.5q0 -79 -71.5 -129.5t-178.5 -50.5h-273v3h63v694z"/>
<glyph glyph-name="C" horiz-adv-x="581" unicode="C" d="M548 190q0 -84 -58.5 -142t-167.5 -58q-128 0 -210 103t-82 253q0 156 88.5 260t224.5 104q48 0 93.5 -18.5t65.5 -18.5q16 0 25.5 10t9.5 27h3v-209h-3q-21 100 -64 152.5t-130 52.5q-113 0 -167.5 -98t-54.5 -256q0 -150 67 -247t176 -97q80 0 130.5 52.5t50.5 129.5 q0 64 -34 103.5t-92 39.5q-48 0 -79 -30t-31 -76q0 -44 28 -73t72 -29q29 0 50.5 14.5t28.5 28.5l7 14h2q-1 -2 -2.5 -6t-9 -14.5t-16.5 -18t-25 -14t-35 -6.5q-45 0 -73.5 29.5t-28.5 74.5q0 47 31.5 77.5t80.5 30.5q59 0 94 -40.5t35 -104.5z"/>
<glyph glyph-name="D" horiz-adv-x="637" unicode="D" d="M286 1q110 0 170 99t60 248q0 147 -69 248t-184 101h-98v-697h-145v3h63v694h-63v3h252q155 0 245 -95t90 -251q0 -152 -91.5 -254t-229.5 -102q-44 0 -73.5 23t-29.5 62q0 31 17.5 50t46.5 19q27 0 44 -16.5t17 -42.5q0 -19 -8.5 -31.5t-17.5 -15.5l-8 -4v2q4 1 9 3.5 t14 15t9 30.5q0 25 -16.5 41t-42.5 16q-28 0 -45 -18t-17 -49q0 -39 28.5 -60.5t72.5 -21.5z"/>
<glyph glyph-name="E" horiz-adv-x="564" unicode="E" d="M394 463q0 44 -21 69.5t-60 25.5q-30 0 -48 -18t-18 -46q0 -26 16 -42.5t41 -16.5q18 0 30 8t16 16l3 8h2q-1 -4 -3.5 -9.5t-15.5 -15t-32 -9.5q-26 0 -42.5 17t-16.5 44q0 29 18.5 47.5t49.5 18.5q40 0 62.5 -27t22.5 -73v-219h-3q-7 54 -37.5 81t-96.5 27h-96v-346h161 q86 0 123 38t53 133h2v-174h-484v3h63v694h-63v3h474v-174h-2q-16 95 -53 133t-123 38h-151v-345h96q70 0 101.5 31.5t31.5 79.5z"/>
<glyph glyph-name="F" horiz-adv-x="529" unicode="F" d="M291 110q49 0 76.5 33.5t27.5 88.5q0 49 -34 79.5t-100 30.5h-96v-339h63v-3h-208v3h63v694h-63v3h474v-174h-2q-16 95 -53 133t-123 38h-151v-352h96q66 0 96.5 27t37.5 81h3v-221q0 -55 -28.5 -89.5t-78.5 -34.5q-39 0 -63 22.5t-24 58.5q0 33 21 54.5t54 21.5 q23 0 39 -10.5t20 -21.5l5 -11h-2q0 2 -1.5 4.5t-6 9.5t-11 12.5t-18 10t-25.5 4.5q-32 0 -52.5 -21t-20.5 -53q0 -35 23.5 -57t61.5 -22z"/>
<glyph glyph-name="G" horiz-adv-x="646" unicode="G" d="M383 290h243v-3h-58v-304h-4v13q0 38 -8.5 55t-29.5 17t-46.5 -19.5t-62 -39t-85.5 -19.5q-129 0 -215.5 103.5t-86.5 252.5q0 156 88.5 260t224.5 104q48 0 93.5 -18.5t65.5 -18.5q16 0 25.5 10t9.5 27h3v-209h-3q-21 100 -64 152.5t-130 52.5q-113 0 -167.5 -98 t-54.5 -256q0 -101 22.5 -180.5t71 -128.5t117.5 -49q71 0 113 39t42 112v142h-104q-55 0 -89.5 -27.5t-34.5 -76.5q0 -40 25.5 -66.5t64.5 -26.5q38 0 62.5 24t24.5 61q0 25 -12 43t-24 24l-13 6v2q6 -2 14.5 -6t22.5 -23.5t14 -45.5q0 -38 -25.5 -62.5t-63.5 -24.5 q-40 0 -66 27t-26 68q0 50 35.5 78.5t90.5 28.5z"/>
<glyph glyph-name="H" horiz-adv-x="671" unicode="H" d="M282 367h225v330h-63v3h207v-3h-62v-694h62v-3h-207v3h63v361h-225q-44 0 -72 -21.5t-28 -60.5q0 -30 17.5 -48.5t45.5 -18.5q26 0 42.5 16t16.5 41q0 18 -8 30t-16 16l-8 3v2q4 -1 9.5 -3.5t15 -15.5t9.5 -32q0 -26 -17 -42.5t-44 -16.5q-29 0 -47 19t-18 50q0 39 29 62 t73 23zM165 697v-694h62v-3h-207v3h63v694h-63v3h207v-3h-62z"/>
<glyph glyph-name="I" horiz-adv-x="247" unicode="I" d="M39 700h188v-3h-62v-694h62v-3h-207v3h63v694h-44q-44 0 -72 -21.5t-28 -60.5q0 -30 17.5 -48.5t45.5 -18.5q26 0 42.5 16t16.5 41q0 18 -8 30t-16 15l-8 4v2q4 -1 9.5 -3.5t15 -15.5t9.5 -32q0 -26 -17 -42.5t-44 -16.5q-29 0 -47 19t-18 50q0 39 29 62t73 23z"/>
<glyph glyph-name="J" horiz-adv-x="333" unicode="J" d="M114 700h199v-3h-62v-499q0 -91 -29 -148.5t-95 -57.5q-50 0 -78.5 30.5t-28.5 76.5q0 29 16.5 48.5t40.5 19.5q25 0 39 -15t14 -38q0 -25 -15.5 -39.5t-37.5 -14.5q-10 0 -21 4l-11 4q-5 0 -5 -5q0 -22 23 -45.5t64 -23.5t67 25.5t26 72.5q0 39 -25.5 125.5t-25.5 175.5 v304h-55q-44 0 -72 -21.5t-28 -60.5q0 -30 17.5 -48.5t45.5 -18.5q26 0 42.5 16t16.5 41q0 18 -8 30t-16 15l-8 4v2q4 -1 9.5 -3.5t15 -15.5t9.5 -32q0 -26 -17 -42.5t-44 -16.5q-29 0 -47 19t-18 50q0 39 29 62t73 23z"/>
<glyph glyph-name="K" horiz-adv-x="625" unicode="K" d="M485 594q0 -34 -23 -56.5t-58 -22.5q-15 0 -30 5l-70 -82l264 -435h52v-3h-215v3h67l-223 370l-84 -99v-271h62v-3h-207v3h63v694h-63v3h207v-3h-62v-418l206 242q-50 20 -50 80q0 45 30 72t75 27h154v-3h-4q-42 0 -102 -63q11 -17 11 -40zM463 644q-18 18 -49 18v2 q31 0 50 -18q3 10 3 19q0 32 -41 32q-45 0 -74 -25.5t-29 -70.5q0 -58 49 -78l59 69q23 27 32 52zM376 522q15 -5 28 -5q35 0 57 21.5t22 55.5q0 21 -11 38q-26 -28 -37 -41z"/>
<glyph glyph-name="L" horiz-adv-x="534" unicode="L" d="M165 3h161q79 0 127 53.5t48 131.5q0 64 -33.5 102t-91.5 38q-48 0 -79.5 -31t-31.5 -77q0 -44 28 -73t72 -29q29 0 50.5 14t28.5 28l7 15h2q-1 -2 -2.5 -6t-9 -14.5t-16.5 -18t-25 -14t-35 -6.5q-45 0 -73.5 29.5t-28.5 74.5q0 47 32 78.5t81 31.5q59 0 93.5 -39 t34.5 -102v-189h-484v3h63v694h-63v3h208v-3h-63v-694z"/>
<glyph glyph-name="M" horiz-adv-x="744" unicode="M" d="M179 0h-159v3q28 0 45.5 31t17.5 94v569h-63v3h148l218 -622l196 622h142v-3h-62v-694h62v-3h-205v3h63v684l-217 -687h-34l-244 686v-558q0 -63 25.5 -94t66.5 -31q35 0 59.5 22t24.5 60q0 30 -17.5 48.5t-45.5 18.5q-26 0 -42.5 -16t-16.5 -41q0 -18 8 -30t16 -15l8 -4 v-2q-4 1 -9.5 3.5t-15 15.5t-9.5 32q0 26 17 42.5t44 16.5q29 0 47 -19t18 -50q0 -39 -25 -62t-61 -23z"/>
<glyph glyph-name="N" horiz-adv-x="643" unicode="N" d="M465 697q-49 0 -78.5 -24.5t-29.5 -69.5q0 -37 23 -60.5t58 -23.5t57 21.5t22 55.5q0 23 -11 39.5t-22 21.5l-11 5v2q2 -1 5 -2t11 -6.5t14 -12.5t11 -19.5t5 -27.5q0 -34 -23 -56.5t-58 -22.5q-36 0 -59.5 24.5t-23.5 61.5q0 46 30 71.5t80 25.5h163v-3q-63 0 -63 -125 v-572h-70l-408 690v-562q0 -63 19.5 -94t48.5 -31h5v-3h-140v3q63 0 63 125v569h-63v3h154l387 -663v535q0 63 -27.5 94t-68.5 31z"/>
<glyph glyph-name="O" horiz-adv-x="704" unicode="O" d="M352 -7q118 0 174.5 98.5t56.5 256.5q0 152 -59.5 255t-171.5 103q-118 0 -174.5 -98t-56.5 -256q0 -138 49 -237.5t143 -117.5q-30 9 -48 33.5t-18 59.5q0 37 23.5 61.5t59.5 24.5q35 0 58 -22.5t23 -56.5q0 -24 -11.5 -41t-23.5 -22l-11 -5v2q5 2 12.5 5.5t19.5 20.5 t12 40q0 34 -22 55.5t-57 21.5t-58 -23.5t-23 -60.5q0 -43 28.5 -70t74.5 -27zM352 710q153 0 237.5 -98.5t84.5 -257.5q0 -157 -90.5 -261t-231.5 -104q-153 0 -237.5 99t-84.5 258q0 157 90.5 260.5t231.5 103.5z"/>
<glyph glyph-name="P" horiz-adv-x="563" unicode="P" d="M165 697v-694h62v-3h-207v3h63v694h-63v3h287q108 0 172 -52t64 -132q0 -79 -72.5 -135.5t-173.5 -56.5q-52 0 -83 22.5t-31 62.5q0 31 17.5 50t46.5 19q27 0 44 -16.5t17 -42.5q0 -19 -8.5 -31.5t-17.5 -15.5l-8 -4v2q4 1 9 3.5t14 15t9 30.5q0 25 -16.5 41t-42.5 16 q-28 0 -45 -18t-17 -49q0 -39 29.5 -60.5t80.5 -21.5q77 0 119 53t42 133q0 78 -43.5 131t-127.5 53h-120z"/>
<glyph glyph-name="Q" horiz-adv-x="704" unicode="Q" d="M353 20v-22q40 0 73 12q0 60 -36 60q-16 0 -26.5 -14.5t-10.5 -35.5zM352 706q-61 0 -106.5 -27t-72 -76t-39.5 -110.5t-13 -137.5q0 -72 14 -135t41.5 -113t72 -79t101.5 -30v22q0 37 18.5 64t57.5 27q55 0 70 -55q87 90 87 295q0 90 -21 164.5t-66.5 126t-110.5 61.5 q33 -9 52.5 -33.5t19.5 -60.5q0 -37 -23.5 -61.5t-59.5 -24.5q-35 0 -58 22.5t-23 56.5q0 24 11.5 41t23.5 22l11 5v-2q-5 -2 -12.5 -5.5t-19.5 -20.5t-12 -40q0 -34 22 -55.5t57 -21.5t58 23.5t23 60.5q0 45 -29 71t-74 26zM426 -22v24q-37 -8 -74 -8q-153 0 -237.5 98.5 t-84.5 256.5q0 156 90 258.5t232 102.5q153 0 237.5 -97.5t84.5 -255.5q0 -109 -46.5 -195.5t-126.5 -130.5q3 -24 3 -53q0 -47 8 -68.5t30 -21.5q16 0 26 14.5t10 35.5v21h3v-21q0 -37 -18.5 -64t-57.5 -27q-46 0 -62.5 33t-16.5 98z"/>
<glyph glyph-name="R" horiz-adv-x="610" unicode="R" d="M165 3h62v-3h-207v3h63v694h-63v3h287q108 0 172 -49t64 -129q0 -76 -63 -132t-155 -65q188 -17 188 -204q0 -47 8 -68.5t30 -21.5q16 0 26 14.5t10 35.5v21h3v-21q0 -37 -18.5 -64t-57.5 -27q-46 0 -62.5 33t-16.5 98q0 104 -28 151.5t-110 51.5q-52 0 -83 22.5 t-31 62.5q0 31 17.5 50t46.5 19q27 0 44 -16.5t17 -42.5q0 -19 -8.5 -31.5t-17.5 -15.5l-8 -4v2q4 1 9 3.5t14 15t9 30.5q0 25 -16.5 41t-42.5 16q-28 0 -45 -18t-17 -49q0 -39 29.5 -60.5t80.5 -21.5q77 0 119 54.5t42 137.5q0 78 -43.5 128t-127.5 50h-120v-694z"/>
<glyph glyph-name="S" horiz-adv-x="513" unicode="S" d="M464 710v-196q0 -51 -24.5 -80.5t-65.5 -29.5q-31 0 -50 17.5t-19 46.5q0 27 16.5 44t42.5 17q19 0 31.5 -8.5t16.5 -16.5l3 -9h-2q-1 4 -3.5 9t-15 14t-30.5 9q-25 0 -41 -16.5t-16 -42.5q0 -28 18 -45t49 -17q40 0 62 28t22 76q0 88 -57.5 142t-139.5 54 q-72 0 -113 -40.5t-41 -101.5q0 -45 20.5 -77.5t54 -52t73.5 -35t80 -32t73.5 -37.5t54 -56.5t20.5 -83.5q0 -87 -63.5 -143.5t-155.5 -56.5q-61 0 -115 27t-80 27q-35 0 -35 -36h-4v209h4q17 -99 78.5 -161t151.5 -62q73 0 112.5 41t39.5 106q0 44 -20.5 77t-54 52t-73 35 t-79.5 32.5t-73.5 37.5t-54 57t-20.5 84q0 89 60 141.5t160 52.5q48 0 96.5 -18.5t68.5 -18.5q16 0 25.5 10t9.5 27h3z"/>
<glyph glyph-name="T" horiz-adv-x="604" unicode="T" d="M42 556q0 -51 24.5 -80t68.5 -29q34 0 54.5 20t20.5 51q0 29 -17.5 46.5t-46.5 17.5q-20 0 -33.5 -9t-16.5 -18l-4 -9h-2q1 4 4 10.5t17.5 17t34.5 10.5q29 0 47.5 -18t18.5 -48q0 -32 -21 -52.5t-56 -20.5q-46 0 -73 31.5t-27 88.5v172h3q0 -17 9.5 -27t25.5 -10h458 q16 0 25.5 10t9.5 27h3v-209h-3q-7 92 -49.5 130.5t-135.5 38.5h-38v-694h62v-3h-207v3h63v694h-38q-83 0 -132 -37t-49 -104z"/>
<glyph glyph-name="U" horiz-adv-x="671" unicode="U" d="M456 700h200v-3q-84 0 -84 -110v-350q0 -108 -72 -177t-176 -69t-172.5 67.5t-68.5 169.5v469h-63v3h207v-3h-62v-464q0 -87 58 -140.5t147 -53.5q87 0 142.5 52.5t55.5 146.5v349q0 110 -112 110q-56 0 -89.5 -30t-33.5 -81q0 -43 27.5 -71.5t68.5 -28.5t67.5 25.5 t26.5 65.5q0 27 -13 46.5t-26 26.5l-13 6v2q2 -1 5.5 -2.5t13 -8t16.5 -14.5t13 -23t6 -33q0 -41 -27 -67t-69 -26t-70 28.5t-28 73.5q0 52 34 83t91 31z"/>
<glyph glyph-name="V" horiz-adv-x="655" unicode="V" d="M472 700h183v-3h-4q-32 0 -53 -29t-39 -81l-204 -587h-37l-262 697h-56v3h210v-3h-66l232 -623l177 508q7 18 7 38q0 34 -22.5 55.5t-65.5 21.5q-49 0 -78.5 -24.5t-29.5 -69.5q0 -37 23 -60.5t58 -23.5t57 21.5t22 55.5q0 23 -11 39.5t-22 21.5l-11 5v2q2 -1 5 -2 t11 -6.5t14 -12.5t11 -19.5t5 -27.5q0 -34 -23 -56.5t-58 -22.5q-36 0 -59.5 24.5t-23.5 61.5q0 46 30 71.5t80 25.5z"/>
<glyph glyph-name="W" horiz-adv-x="930" unicode="W" d="M682 83l139 499q5 16 5 37q0 35 -21.5 56.5t-64.5 21.5q-49 0 -78.5 -24.5t-29.5 -69.5q0 -37 23 -60.5t58 -23.5t57 21.5t22 55.5q0 23 -11 39.5t-22 21.5l-11 5v2q2 -1 5 -2t11 -6.5t14 -12.5t11 -19.5t5 -27.5q0 -34 -23 -56.5t-58 -22.5q-36 0 -59.5 24.5t-23.5 61.5 q0 46 30 71.5t80 25.5h183v-3h-4q-61 0 -92 -110l-164 -587h-37l-162 550l-165 -550h-37l-201 697h-56v3h208v-3h-66l173 -612l142 473l-41 139h-56v3h203v-3h-66z"/>
<glyph glyph-name="X" horiz-adv-x="644" unicode="X" d="M437 515l-91 -132l241 -380h52v-3h-213v3h67l-199 319l-144 -210q-32 -45 -32 -73q0 -36 54 -36h7v-3h-169v3h4q21 0 46 18t40.5 36t45.5 56l146 212l-235 372h-52v3h213v-3h-67l193 -310l89 129q-31 5 -50.5 28t-19.5 57q0 45 30 72t75 27h154v-3h-4q-45 0 -100 -67 q9 -15 9 -36q0 -34 -23 -56.5t-58 -22.5h-9zM517 628q-24 -31 -31 -41l-48 -70h8q35 0 57 21.5t22 55.5q0 18 -8 34zM509 639q-20 23 -53 23v2q33 0 53 -22q4 14 4 20q0 35 -45 35t-74 -25.5t-29 -70.5q0 -33 19 -55.5t50 -27.5l48 70q19 26 27 51z"/>
<glyph glyph-name="Y" horiz-adv-x="649" unicode="Y" d="M466 515l-108 -162v-350h62v-3h-207v3h63v339l-224 355h-52v3h213v-3h-67l212 -338l103 157q-32 4 -51.5 27.5t-19.5 57.5q0 45 30 72t75 27h154v-3h-4q-45 0 -100 -67q9 -15 9 -36q0 -34 -23 -56.5t-58 -22.5h-7zM543 629q-15 -19 -30 -42l-46 -70h6q35 0 57 21.5 t22 55.5q0 20 -9 35zM535 640q-19 22 -52 22v2q33 0 53 -22q3 11 3 20q0 35 -44 35q-45 0 -74 -25.5t-29 -70.5q0 -34 19.5 -56.5t51.5 -26.5l46 70q17 25 26 52z"/>
<glyph glyph-name="Z" horiz-adv-x="608" unicode="Z" d="M62 700h495l-424 -697h247q86 0 123 38t53 133h2v-174h-518l424 697h-224q-77 0 -126 -47t-49 -117q0 -58 30.5 -93t83.5 -35q43 0 72 28.5t29 69.5t-25.5 67t-65.5 26q-27 0 -46.5 -13t-25.5 -26l-6 -13h-2q2 6 6.5 15t25 24t48.5 15q41 0 67 -27t26 -68 q0 -42 -29.5 -71t-73.5 -29q-53 0 -85 35.5t-32 93.5v168z"/>
<glyph glyph-name="bracketleft" horiz-adv-x="317" unicode="[" d="M83 750h224v-3h-153v-838h153v-3h-224v844z"/>
<glyph glyph-name="backslash" horiz-adv-x="312" unicode="\" d="M40 723h3q38 -123 71 -223.5t48 -150.5q16 -53 44.5 -153.5t65.5 -220.5h-3q-37 122 -70.5 222.5t-49.5 151.5q-10 35 -39.5 139.5t-69.5 234.5z"/>
<glyph glyph-name="bracketright" horiz-adv-x="317" unicode="]" d="M10 750h224v-844h-224v3h153v838h-153v3z"/>
<glyph glyph-name="asciicircum" d="M377 63l-3 -1q-41 131 -78 239t-46 136q-11 -35 -47 -140.5t-77 -234.5l-3 1q41 129 72.5 236t46.5 155q3 8 8 8t8 -8q15 -48 46.5 -155t72.5 -236z" unicode="^"/>
<glyph glyph-name="underscore" d="M502 -101v-3h-504v3h504z" unicode="_"/>
<glyph glyph-name="grave" d="M152 704q-12 4 -12 12q0 9 9 9q4 0 10 -2q20 -9 79 -41t102 -51l-1 -3q-35 16 -70 30.5t-68.5 27t-48.5 18.5z" unicode="`"/>
<glyph glyph-name="a" horiz-adv-x="509" unicode="a" d="M525 433q0 112 -72.5 181t-184.5 69q-48 0 -88.5 -12t-64 -29.5t-39.5 -35t-22 -29.5l-6 -12h-2q2 5 6.5 13t22 28.5t40 36.5t63.5 29t90 13q113 0 186 -69.5t73 -182.5q0 -158 -115 -232v-131q0 -23 12 -35t30 -12q19 0 32 13t15 34h3q-2 -28 -23.5 -54t-60.5 -26 q-77 0 -84 96q-17 -38 -59.5 -67t-97.5 -29q-56 0 -95 32.5t-39 88.5q0 73 63 109q-49 51 -49 129q0 74 52 123t130 49q85 0 128 -48t43 -137v-133q113 74 113 230zM110 221q21 12 56.5 24t62.5 21.5t53.5 25t41.5 42t15 64.5q0 51 -32 79.5t-92 28.5q-63 0 -108.5 -43.5 t-45.5 -113.5q0 -77 49 -128zM145 191q-19 -30 -19 -73q0 -46 27 -73t72 -27q49 0 79.5 30t30.5 72v48q-34 -8 -66 -8q-73 0 -124 31zM146 192q50 -30 123 -30q32 0 66 8v169q-18 -30 -56.5 -53t-76.5 -44.5t-56 -49.5z"/>
<glyph glyph-name="b" horiz-adv-x="547" unicode="b" d="M319 549q55 0 90.5 34.5t35.5 88.5q0 36 -17.5 62.5t-35.5 35.5l-17 8v2q3 -1 8 -3t17 -11t21.5 -20t17.5 -30.5t8 -43.5q0 -55 -36 -90t-92 -35q-58 0 -97.5 35.5t-39.5 93.5q0 72 53.5 116.5t133.5 44.5q111 0 179.5 -67.5t68.5 -178.5q0 -76 -34.5 -136.5t-94.5 -97.5 q14 -45 14 -96q0 -111 -67.5 -190t-163.5 -79q-44 0 -78 16.5t-57 33t-40 16.5q-20 0 -30.5 -17.5t-26.5 -72.5h-5q3 11 11 36.5t11 36.5t6 31t3 41v584h-65v3h139v-576q0 -62 33.5 -94t88.5 -32q76 0 117 71.5t41 186.5q0 33 -5 68q-45 -13 -98 -13q-80 0 -122 28.5 t-42 75.5q0 45 34.5 75t96.5 30q74 0 128 -43.5t77 -117.5q60 36 93.5 96t33.5 136q0 111 -67.5 177.5t-178.5 66.5q-79 0 -132 -44t-53 -115q0 -57 38.5 -92t96.5 -35zM414 326q-12 83 -53 131t-103 48q-44 0 -74 -23.5t-30 -66.5q0 -46 41.5 -74t120.5 -28q53 0 98 13z "/>
<glyph glyph-name="c" horiz-adv-x="471" unicode="c" d="M433 427q31 -15 49.5 -47t18.5 -75q0 -75 -49 -121t-120 -46q-68 0 -113 39t-45 97h2q0 -57 44.5 -95.5t111.5 -38.5q70 0 118.5 45.5t48.5 119.5q0 42 -18 73.5t-47 45.5q4 -12 4 -29q0 -27 -14.5 -43.5t-36.5 -16.5q-23 0 -38 14.5t-15 36.5q0 24 15 37.5t38 13.5 t43 -9q-12 37 -47.5 62t-86.5 25q-78 0 -123 -69t-45 -188q0 -111 49 -182.5t129 -71.5q49 0 86.5 31.5t44.5 85.5h4q-6 -59 -51 -95t-119 -36q-98 0 -162 76t-64 187q0 110 68 188.5t168 78.5q61 0 100.5 -26.5t51.5 -66.5z"/>
<glyph glyph-name="d" horiz-adv-x="577" unicode="d" d="M408 438v177q0 99 -81 99q-64 0 -106 -52.5t-42 -138.5q0 -17 1 -25q42 22 91 22q48 0 84 -22.5t53 -59.5zM283 4q57 0 91 34.5t34 93.5v152q-81 5 -142 53.5t-81 122.5q-57 -68 -57 -206q0 -112 41 -181t114 -69zM178 497q-1 9 -1 26q0 90 48.5 148t133.5 58 q58 0 90.5 -34.5t32.5 -98.5v-306q89 17 143.5 84t54.5 166q0 64 -24 113.5t-62 77t-77.5 41t-76.5 13.5v2q37 0 77 -14t78 -41.5t62.5 -77.5t24.5 -114q0 -100 -55 -167.5t-145 -84.5v-218q0 -23 12.5 -35t30.5 -12q17 0 30 13t14 34h3q-2 -28 -24 -54t-62 -26 q-69 0 -78 90q-17 -40 -55.5 -65t-90.5 -25q-98 0 -157.5 73.5t-59.5 185.5q0 81 36.5 148.5t96.5 99.5zM187 462q20 -74 80 -122.5t141 -53.5v100q0 57 -33.5 90t-86.5 33q-60 0 -101 -47z"/>
<glyph glyph-name="e" horiz-adv-x="489" unicode="e" d="M274 517q-68 0 -107 -77t-39 -192q0 -56 10 -99q8 28 34.5 49.5t58.5 36.5t63 33t51.5 48t20.5 72q0 57 -24.5 93t-67.5 36zM446 -169q117 0 196.5 72.5t79.5 186.5q0 54 -18 98t-45 70t-60.5 43.5t-62 24t-52.5 6.5v2q24 0 53 -6.5t62.5 -24.5t61 -44.5t45.5 -70.5 t18 -98q0 -115 -79.5 -188t-198.5 -73q-99 0 -164.5 48t-83.5 128q-69 27 -111 94.5t-42 153.5q0 111 65.5 189t163.5 78q76 0 124.5 -36.5t48.5 -94.5q0 -49 -30.5 -78.5t-73.5 -43t-86 -26.5t-73.5 -40t-30.5 -71q0 -52 39 -83v10q0 72 44.5 123.5t109.5 51.5 q51 0 81.5 -26.5t30.5 -72.5q0 -55 -47 -99t-134 -44q-40 0 -77 14q18 -78 83.5 -125.5t162.5 -47.5zM194 45q42 -32 111 -32q71 0 111 34.5t40 85.5q0 45 -30 71t-80 26q-64 0 -108 -51t-44 -122v-12z"/>
<glyph glyph-name="f" horiz-adv-x="287" unicode="f" d="M78 504h-63v3h63q0 82 38 139q-53 -7 -86.5 -51t-33.5 -118q0 -113 82 -178v205zM155 259q39 -11 82 -11q110 0 183 73t73 185q0 106 -53.5 164t-141.5 58q-96 0 -129 -83q40 -10 62 -43t22 -77q0 -12 -1 -18h16v-3h-16q-4 -30 -20.5 -50t-30.5 -25l-14 -5v2q2 0 6 1.5 t13.5 7t17.5 13.5t15.5 23t10.5 33h-95v-245zM168 643q-13 -33 -13 -82v-54h95q1 6 1 18q0 44 -22 76t-61 42zM155 257v-254h62v-3h-202v3h63v293q-84 65 -84 181q0 75 35 120t89 51q61 88 172 88q92 0 148.5 -61t56.5 -169q0 -113 -73.5 -186.5t-184.5 -73.5q-43 0 -82 11z "/>
<glyph glyph-name="g" d="M439 600q0 35 -27.5 59t-71.5 24q-58 0 -96.5 -44.5t-38.5 -101.5q0 -15 1 -22q17 3 35 3q20 0 47 -4t45 -4q53 0 79.5 24.5t26.5 65.5zM64 106q-37 -37 -37 -90q0 -70 51 -112t132 -42q86 0 137 46t51 115q0 97 -95 97q-35 0 -87 -30t-83 -30q-55 0 -69 46zM63 109 q-2 12 -2 18q0 35 25.5 56t64.5 28q-44 19 -70 57t-26 86q0 61 41.5 106t107.5 55q-1 7 -1 22q0 58 39 103t98 45q45 0 73 -24.5t28 -60.5q0 -43 -30 -70t-89 -27q45 -18 71.5 -55t27.5 -85q85 4 135.5 60t50.5 144q0 52 -21 92t-52.5 59.5t-60.5 29t-53 9.5v2 q19 0 41.5 -5.5t49.5 -19.5t48 -34.5t35.5 -55t14.5 -77.5q0 -89 -51.5 -145.5t-136.5 -60.5v-3q0 -70 -53 -117.5t-133 -47.5q-21 0 -47.5 3.5t-37.5 3.5q-35 0 -60 -19t-25 -54q0 -5 2 -15q29 26 66 31v-2q-38 -5 -66 -31q12 -47 66 -47q28 0 62.5 22.5t74.5 45.5t83 23 q61 0 92 -33.5t31 -82.5q0 -80 -67.5 -132t-178.5 -52q-94 0 -149.5 45t-55.5 117q0 57 38 93zM207 510q7 -53 43.5 -89.5t93.5 -50.5q-2 66 -27 105.5t-76 39.5q-17 0 -34 -5zM205 510q-73 -25 -73 -153q0 -72 25 -116.5t78 -44.5q109 0 109 159v13q-58 14 -95 51.5 t-44 90.5z" unicode="g"/>
<glyph glyph-name="h" horiz-adv-x="551" unicode="h" d="M155 409q14 68 83 96q-15 31 -15 73q0 74 53.5 125t142.5 51q45 0 87 -16t77 -47t56 -83.5t21 -118.5q0 -96 -54.5 -175.5t-149.5 -108.5v-135q0 -23 12.5 -35t30.5 -12q17 0 30 13t14 34h3q-2 -28 -24 -54t-62 -26q-39 0 -60.5 29t-21.5 82v90h-16q-76 0 -135 39.5 t-72 113.5v-341h62v-3h-202v3h63v694h-63v3h140v-291zM429 445q27 -48 27 -122v-116q94 29 148 108t54 174q0 128 -71.5 195.5t-167.5 67.5q-87 0 -140.5 -50.5t-53.5 -123.5q0 -40 15 -72q30 11 63 11q85 0 125 -71q22 13 35 35.5t15 35t2 21.5h2q0 -8 -2.5 -21t-15.5 -36 t-35 -36zM374 428q-6 -1 -18 -1q-77 0 -115 71q-40 -10 -63 -42.5t-23 -77.5q0 -89 61 -137t146 -48h16v201q0 21 -4 34zM373 430q-10 34 -37 53t-64 19q-14 0 -28 -3q10 -20 32.5 -33.5t48.5 -23.5t31 -13q3 0 9 0.5t8 0.5z"/>
<glyph glyph-name="i" horiz-adv-x="222" unicode="i" d="M126 507h29v-504h62v-3h-202v3h63v507q-52 11 -81 43.5t-29 82.5q0 48 31.5 82.5t80.5 34.5t75.5 -28t26.5 -68q0 -25 -14.5 -41t-37.5 -16q-21 0 -35.5 14t-14.5 36q0 23 14.5 36t34.5 13q5 0 10 -0.5t8.5 -1.5t4.5 -1q5 0 5 5q0 16 -20 33t-57 17q-48 0 -79 -33.5 t-31 -81.5q0 -60 42.5 -94.5t113.5 -34.5z"/>
<glyph glyph-name="j" horiz-adv-x="216" unicode="j" d="M-189 -35q0 97 60.5 158.5t132.5 61.5v-2q-71 0 -131 -60.5t-60 -157.5q0 -93 57 -150t144 -57q72 0 119 43.5t47 110.5q0 53 -33 88q-6 -71 -37 -114t-87 -43q-40 0 -68 26t-28 64q0 51 33.5 81t84.5 30q29 0 57 -11q-31 104 -31 191v280h-63v3h140v-475q0 -20 -1 -30 q35 -37 35 -90q0 -68 -47.5 -112t-120.5 -44q-87 0 -145 57.5t-58 151.5zM156 654q0 -22 -14.5 -36.5t-34.5 -14.5q-21 0 -34.5 14t-13.5 36t14 37t34 15q22 0 35.5 -14t13.5 -37zM103 30q-27 12 -58 12q-51 0 -83.5 -29.5t-32.5 -79.5q0 -38 27.5 -63t66.5 -25 q38 0 67 24.5t29 68.5q0 39 -16 92z"/>
<glyph glyph-name="k" horiz-adv-x="523" unicode="k" d="M274 266q41 -65 119 -65q27 0 49.5 9t35.5 21.5t22.5 25t13.5 21.5l3 9h2q-1 -4 -3.5 -9.5t-13 -21t-23.5 -27t-36 -21t-50 -9.5q-80 0 -121 67q-16 -6 -23 -9q34 -70 69 -119.5t63 -72.5t48 -32.5t36 -9.5q19 0 33 13t15 34h3q-1 -29 -24.5 -54.5t-66.5 -25.5 q-59 0 -112.5 43.5t-123.5 168.5q-19 -33 -19 -79q0 -89 63.5 -140t164.5 -51q137 0 220 92t83 229q0 124 -72.5 202.5t-180.5 78.5q-48 0 -92 -18q56 -4 86.5 -30.5t30.5 -72.5q0 -32 -11 -55t-35.5 -37.5t-43.5 -22t-56.5 -17.5t-52.5 -15zM352 517q41 19 96 19 q109 0 182 -79t73 -204q0 -138 -83.5 -230.5t-221.5 -92.5q-102 0 -166 51.5t-64 141.5q0 60 26 91.5t75 55.5q-20 35 -20 83q0 95 72 146q-5 1 -17 1q-58 0 -103.5 -51t-45.5 -120v-329h-140v3h63v694h-63v3h140v-322q19 53 66 96t118 43h13zM324 498q-73 -50 -73 -145 q0 -47 20 -82q3 1 21.5 10t23 11.5t19.5 11.5t19.5 14t14.5 15.5t13 20.5t6.5 23.5t3.5 29.5q0 38 -18 62t-50 29z"/>
<glyph glyph-name="l" horiz-adv-x="241" unicode="l" d="M178 373v2q78 24 124 83t46 142q0 94 -54.5 149.5t-140.5 55.5q-69 0 -116 -45.5t-47 -112.5q0 -41 20.5 -72t54.5 -46v84q0 53 21.5 82t60.5 29q41 0 64 -30t23 -67q0 -46 -25 -75t-68 -35v-447q0 -23 12.5 -35t30.5 -12q17 0 30 13t14 34h3q-2 -28 -24 -54t-62 -26 q-39 0 -59.5 29t-20.5 82v426q-35 15 -56 46.5t-21 73.5q0 68 47.5 114t117.5 46q87 0 142 -56t55 -151q0 -84 -47 -143.5t-125 -83.5zM141 519q42 6 66.5 34.5t24.5 73.5q0 30 -14 47t-32 17q-19 0 -32 -12t-13 -35v-125z"/>
<glyph glyph-name="m" horiz-adv-x="811" unicode="m" d="M283 44q0 -111 68 -183t166 -72q40 0 72 10t49 24.5t28 28.5t14 24l4 10h2q-1 -4 -3.5 -10.5t-14.5 -24t-29 -30.5t-49.5 -23.5t-72.5 -10.5q-98 0 -167 73t-69 184q0 121 77 211v143q0 50 -23 77t-65 27q-52 0 -83.5 -39t-31.5 -93v-367h62v-3h-202v3h63v501h-63v3h140 v-89q16 41 54 70t92 29q108 0 129 -115q17 53 56 84t95 31q62 0 95.5 -42t38.5 -117q99 -22 153.5 -87t54.5 -152q0 -95 -55.5 -152t-142.5 -57q-70 0 -113.5 43.5t-43.5 111.5q0 89 70 122v179h-17q-104 0 -186 -49v-314h62v-3h-202v3h63v249q-75 -88 -75 -208zM716 194 v-124q0 -23 12.5 -35t30.5 -12t32 17t14 47q0 44 -24 72.5t-65 34.5zM715 356q1 -9 1 -29v-131q42 -7 66.5 -35.5t24.5 -73.5q0 -37 -23 -67t-64 -30q-39 0 -60.5 29t-21.5 82v84q-68 -32 -68 -120q0 -68 43 -110.5t112 -42.5q86 0 141 56.5t55 150.5q0 86 -53.5 150.5 t-152.5 86.5zM638 368v30q0 50 -23 77t-65 27q-52 0 -83.5 -39t-31.5 -93v-51q82 49 186 49h17z"/>
<glyph glyph-name="n" horiz-adv-x="551" unicode="n" d="M487 296v2q3 -1 7 -2.5t15 -9t19 -17.5t15 -29t7 -43q0 -45 -24.5 -78.5t-66.5 -45.5q18 -130 140 -130q83 0 140.5 67t57.5 173q0 113 -75 189t-191 76q-49 0 -93 -14q18 -44 18 -107v-214q0 -26 2 -38q41 12 65.5 44.5t24.5 77.5q0 24 -6.5 43t-15 29t-17.5 16.5 t-15 8.5zM378 405q-50 -32 -78 -82t-28 -109q0 -58 30.5 -96.5t83.5 -46.5q-8 35 -8 73v254v7zM378 408q-3 45 -29 69.5t-70 24.5q-54 0 -89 -42.5t-35 -96.5v-360h62v-3h-202v3h63v501h-63v3h140v-96q15 42 56.5 74t98.5 32q92 0 127 -82q48 15 94 15q117 0 192.5 -76.5 t75.5 -190.5q0 -115 -67 -186t-168 -71q-71 0 -116.5 38t-61.5 105q-54 8 -85 47t-31 98q0 60 28.5 110.5t79.5 83.5z"/>
<glyph glyph-name="o" horiz-adv-x="557" unicode="o" d="M298 32h1q65 0 97.5 64t32.5 167q0 114 -38 182.5t-110 68.5q-75 0 -114 -71t-39 -186q0 -34 4 -59q18 -5 46 -5q69 0 111.5 43t42.5 111q0 29 -7 51.5t-17.5 34.5t-21 20t-17.5 11l-7 2v2q3 -1 8 -3t17 -10.5t21.5 -20.5t17.5 -35t8 -52q0 -69 -43.5 -112.5 t-112.5 -43.5q-23 0 -46 5q6 -40 29 -72.5t47.5 -50t55 -38.5t43.5 -36q114 0 195 82t81 229q0 136 -81 222.5t-213 86.5q-116 0 -194.5 -71.5t-78.5 -180.5q0 -64 29 -108q3 108 72 183.5t164 75.5q100 0 165.5 -70.5t65.5 -179.5q0 -101 -59.5 -170.5t-148.5 -69.5 q-33 0 -57.5 9t-32.5 17l-9 9v2q3 -4 9 -9.5t30 -14.5t54 -9zM45 256q-31 45 -31 111q0 110 79 182t196 72q133 0 214.5 -86.5t81.5 -224.5q0 -149 -85 -234t-206 -85q-101 0 -175 76.5t-74 184.5v4z"/>
<glyph glyph-name="p" horiz-adv-x="553" unicode="p" d="M419 180q6 38 6 81q0 83 -25 144h-7q-47 0 -81 27.5t-45 73.5q-47 -3 -78 -40t-31 -97q0 -87 65.5 -138.5t166.5 -51.5q20 0 29 1zM501 200q78 31 123.5 101.5t45.5 160.5q0 109 -64 175.5t-161 66.5q-78 0 -129 -45t-51 -117q0 -9 2 -25q17 3 37 3q105 0 162 -89 q12 10 21.5 23t12.5 21l3 8h2q-9 -30 -38 -53q41 -65 41 -164q0 -29 -7 -66zM501 197q-19 -87 -79 -142t-140 -55q-48 0 -84 22.5t-53 59.5v-225h62v-3h-202v3h63v647h-63v3h140v-373q0 -57 33.5 -90t86.5 -33q61 0 100 44.5t53 122.5q-9 -1 -28 -1q-102 0 -168.5 52.5 t-66.5 141.5q0 57 28.5 95.5t81.5 49.5q-2 16 -2 26q0 72 51.5 118t130.5 46q98 0 162.5 -67t64.5 -177q0 -90 -46 -162t-125 -103zM399 407q-42 99 -124 99h-6q11 -45 44 -72t80 -27h6z"/>
<glyph glyph-name="q" horiz-adv-x="552" unicode="q" d="M408 142v308h34q18 0 29.5 10t22.5 38q-15 -3 -32 -3q-56 0 -93 36t-37 92q0 24 7.5 44.5t18 32.5t21.5 20t19 11l7 3v-2q-3 -1 -7.5 -3t-17 -11t-22 -20t-17 -31t-7.5 -44q0 -55 36 -90.5t92 -35.5q12 0 32 4q8 23 14 41h5q-5 -20 -12 -40q43 12 68.5 47.5t25.5 84.5 q0 73 -50 115t-133 42q-123 0 -206 -78.5t-83 -202.5q0 -31 4 -52q62 60 138 60q61 0 94 -28.5t33 -74.5t-32.5 -76.5t-80.5 -30.5q-91 0 -133 84q-18 -56 -18 -133q0 -111 41 -177.5t114 -66.5q57 0 91 34t34 93zM147 394q41 -84 132 -84q47 0 78.5 29.5t31.5 75.5 q0 43 -30 68t-78 25q-97 0 -134 -114zM125 457q-4 23 -4 53q0 125 83.5 204t207.5 79q84 0 134.5 -42.5t50.5 -116.5q0 -50 -26.5 -86.5t-70.5 -47.5q-18 -59 -18 -103v-540h65v-3h-204v3h65v232q-18 -40 -56 -64.5t-90 -24.5q-98 0 -157.5 71.5t-59.5 182.5q0 123 80 203z "/>
<glyph glyph-name="r" horiz-adv-x="426" unicode="r" d="M410 446q71 -35 71 -128q0 -69 -40 -108.5t-105 -39.5q-60 0 -99 35.5t-39 90.5h2q0 -54 38.5 -89t97.5 -35q65 0 104 39t39 107q0 44 -18.5 76.5t-49.5 47.5q4 -18 4 -29q0 -28 -15.5 -46t-38.5 -18q-25 0 -40.5 16t-15.5 38q0 25 16 39.5t40 14.5t45 -9q-5 22 -30 43 t-70 21q-65 0 -108 -58t-43 -139v-312h62v-3h-202v3h63v501h-63v3h140v-123q52 131 151 131q83 0 104 -69z"/>
<glyph glyph-name="s" horiz-adv-x="442" unicode="s" d="M348 409v-2q-52 0 -84.5 -31.5t-37.5 -83.5q6 -2 27.5 -10t28.5 -11t25.5 -11t26 -13t21.5 -14.5t20 -18.5t13.5 -21t10.5 -26t3 -30q0 -2 -0.5 -6.5t-0.5 -6.5q77 8 126 66.5t49 146.5q0 114 -81 191.5t-223 77.5q-148 0 -234 -89t-86 -226q0 -72 30 -126t62 -72 q-3 12 -3 23q0 27 14.5 43.5t36.5 16.5q24 0 38.5 -15t14.5 -36q0 -24 -15 -37.5t-38 -13.5t-45 13q13 -41 55 -66.5t111 -25.5q59 0 94 29.5t35 74.5q0 15 -3 27q-78 17 -105 89q-11 4 -32 12t-33 12.5t-30.5 13t-29.5 16t-24.5 18.5t-20.5 23t-12 28.5t-5 35.5 q0 66 48 105.5t129 39.5q43 0 80 -13.5t52 -13.5q28 0 28 27h3v-159h-3q-31 154 -160 154q-58 0 -87.5 -28.5t-29.5 -73.5q0 -46 30 -72t87 -48q5 52 38.5 84.5t85.5 32.5zM45 89q-40 24 -67.5 78.5t-27.5 123.5q0 138 86.5 227.5t235.5 89.5q142 0 224 -78t82 -193 q0 -89 -49.5 -148t-127.5 -67q-7 -58 -58 -95t-124 -37q-74 0 -118 28.5t-56 70.5zM236 214q27 -69 102 -86q-14 51 -102 86z"/>
<glyph glyph-name="t" horiz-adv-x="326" unicode="t" d="M192 -10q-127 0 -127 151v14q-16 -11 -25.5 -28.5t-11.5 -27.5t-2 -17h-2q0 7 2 17t12 28.5t27 29.5v189q-90 -14 -140.5 -79.5t-50.5 -153.5q0 -106 59.5 -159t141.5 -53q54 0 94 25.5t58 67.5q-22 -4 -35 -4zM230 -6q-17 -42 -58 -68.5t-97 -26.5q-82 0 -142.5 53.5 t-60.5 160.5q0 89 51 155t142 80v156h-65v3h65v104l76 38v-142h165v-3h-165v-155q80 -10 134.5 -62t54.5 -135q0 -59 -25 -102.5t-75 -55.5zM236 20q3 15 3 31q0 51 -28 83.5t-70 36.5v-39q0 -57 21.5 -84.5t68.5 -27.5h5zM238 20q43 3 66 38t23 94q0 82 -53.5 133.5 t-132.5 61.5v-174q42 -4 71 -36.5t29 -85.5q0 -16 -3 -31z"/>
<glyph glyph-name="u" horiz-adv-x="572" unicode="u" d="M307 8v5q0 55 -32 88t-77 33q-9 0 -25 -2v-19q0 -49 29.5 -78.5t76.5 -29.5q15 0 28 3zM309 8q40 10 63.5 43t23.5 78q0 89 -61 137t-146 48h-16v-180q16 2 25 2q46 0 78.5 -33.5t32.5 -89.5v-5zM173 316h16q76 0 135 -39t72 -112v339h-62v3h138v-437q0 -23 12.5 -35 t30.5 -12q17 0 30 13t14 34h3q-2 -28 -24 -54t-62 -26q-34 0 -56 27t-24 83q-15 -73 -88 -100q-5 -57 -48.5 -94t-114.5 -37q-81 0 -140 55.5t-59 163.5q0 75 39 132.5t110 81.5v135q0 23 -12.5 35t-30.5 12q-17 0 -30 -13t-14 -34h-3q2 28 24 54t62 26q39 0 60.5 -29 t21.5 -82v-90zM95 300q-70 -23 -108.5 -80t-38.5 -132q0 -107 58.5 -162t138.5 -55q69 0 112.5 36t48.5 92q-26 -9 -58 -9q-103 0 -139 102q-15 -24 -15 -48h-2q0 27 16 50q-13 38 -13 90v116z"/>
<glyph glyph-name="v" horiz-adv-x="533" unicode="v" d="M118 348l-62 156h-56v3h203v-3h-66l28 -72q68 75 194 75h174v-3h-4q-57 0 -92 -110l-26 -71q32 -14 51.5 -45t19.5 -73q0 -61 -46.5 -105.5t-122.5 -44.5h-1l-20 -55h-37l-29 74q-53 25 -85.5 77.5t-32.5 128.5q0 31 10 68zM407 325l26 70q9 24 9 45q0 64 -83 64 q-124 0 -193 -74l144 -370l97 263q-17 7 -39 7q-29 0 -50.5 -9.5t-32 -21.5t-17 -27t-7.5 -23t-1 -13h-2q0 5 1.5 13t7.5 23.5t17 28t33 22t51 9.5q22 0 39 -7zM410 321l-97 -264q76 0 121.5 43.5t45.5 104.5q0 41 -19.5 72t-50.5 44zM225 77l-106 268q-9 -31 -9 -65 q0 -75 32 -126.5t83 -76.5z"/>
<glyph glyph-name="w" horiz-adv-x="752" unicode="w" d="M628 319q-21 8 -43 8q-25 0 -45 -7.5t-28 -15.5l-7 -8v3q23 30 80 30q21 0 43 -8l24 74q8 26 8 45q0 64 -82 64q-92 0 -156 -43l126 -393zM421 464q64 43 157 43h174v-3h-4q-57 0 -92 -110l-24 -75q31 -14 50 -43.5t19 -70.5q0 -60 -41 -102t-111 -47l-18 -56h-37l-20 63 q-52 15 -90 55t-51 102l-75 -220h-37l-165 504h-56v3h202v-3h-66l140 -439l55 163q-4 21 -4 52q0 72 36 126l-31 98h-56v3h198v-3h-66zM364 403q-35 -53 -35 -123q0 -18 4 -48l44 131zM334 224q12 -62 50 -102.5t89 -55.5l-94 290zM549 58q69 5 109.5 46.5t40.5 100.5 q0 40 -18.5 69.5t-48.5 42.5z"/>
<glyph glyph-name="x" horiz-adv-x="543" unicode="x" d="M182 0h-162v3h4q20 0 43.5 17t35.5 30.5t41 51.5q6 7 9 11l7 10q-47 0 -79 32t-32 86q0 98 93 137l-85 126h-52v3h207v-3h-67l75 -110h6q70 0 121 -40l30 41q30 41 30 70q0 39 -56 39h-7v3h170v-3h-4q-20 0 -42 -15t-37 -32.5t-40 -49.5q-6 -9 -10 -13l-31 -42 q63 -53 63 -148q0 -38 -14 -74l87 -127h52v-3h-207v3h67l-42 62q-65 -65 -174 -65zM167 125q22 1 38.5 9.5t24 18t12 22t5 18t0.5 9.5h2q0 -4 -0.5 -10t-5.5 -19t-13 -23t-25 -18t-40 -9l-8 -11q-29 -40 -29 -70q0 -39 54 -39q108 0 172 64l-111 163zM398 133q13 33 13 71 q0 94 -62 146l-52 -70zM346 353q-50 39 -120 39h-5l74 -109zM144 377q-43 -18 -68 -53t-25 -83q0 -53 31 -84.5t78 -31.5h2l79 108z"/>
<glyph glyph-name="y" horiz-adv-x="509" unicode="y" d="M354 545q-55 0 -85.5 -33t-30.5 -86q0 -62 43 -101t114 -39q14 0 21 1q49 81 49 145q0 49 -29.5 81t-81.5 32zM419 285q-24 -40 -79.5 -114.5t-87 -130t-31.5 -101.5q0 -10 9 -10q2 0 13 4t21 4q20 0 35.5 -14.5t15.5 -38.5q0 -22 -14.5 -37t-37.5 -15q-26 0 -42.5 19 t-16.5 48q0 67 56 164l-204 441h-56v3h204v-3h-69l172 -373q99 139 108 154q-7 -1 -20 -1q-72 0 -115.5 40t-43.5 102q0 53 31.5 87t86.5 34q53 0 83.5 -32.5t30.5 -82.5q0 -62 -48 -144q70 9 116 61.5t46 136.5q0 80 -54.5 128.5t-138.5 48.5q-37 0 -67.5 -8.5t-47.5 -20.5 t-29 -24.5t-17 -21.5l-4 -8h-2q1 3 4.5 9t16.5 20.5t30 26t48 20.5t68 9q85 0 140 -49t55 -130q0 -85 -47 -138.5t-118 -62.5z"/>
<glyph glyph-name="z" horiz-adv-x="487" unicode="z" d="M234 665q-101 0 -167 -59t-66 -147q0 -72 45 -115q0 12 4 36l19 127h373l-219 -338h17q101 0 171 66.5t70 184.5q0 109 -70 177t-177 68zM150 185l207 319h-128q-77 0 -129 -46.5t-52 -115.5q47 -44 128 -44v-2q-80 0 -128 43q2 -115 102 -154zM222 168l-94 -145 q40 0 105 -15.5t110 -15.5q23 0 23 17q0 4 -4.5 14.5t-4.5 20.5q0 20 14.5 35.5t38.5 15.5q22 0 37 -14t15 -37q0 -29 -20 -48t-60 -19q-60 0 -135.5 21.5t-118.5 21.5q-57 0 -98 -20l119 183q-49 20 -76 60.5t-27 97.5q-47 44 -47 118q0 88 67 148t168 60q107 0 178 -68.5 t71 -178.5q0 -119 -70.5 -186t-172.5 -67q-3 0 -9 0.5t-9 0.5z"/>
<glyph glyph-name="braceleft" horiz-adv-x="317" unicode="{" d="M154 388q0 22 -15.5 46t-34 42.5t-34 49.5t-15.5 65q0 71 68.5 120.5t183.5 49.5v-4q-89 0 -135.5 -36t-46.5 -97q0 -48 39.5 -110.5t39.5 -96.5q0 -35 -32.5 -60t-73.5 -29q41 -4 73.5 -29t32.5 -60q0 -34 -39.5 -96.5t-39.5 -110.5q0 -61 46.5 -97t135.5 -36v-4 q-115 0 -183.5 49.5t-68.5 120.5q0 34 15.5 65t34 49.5t34 42.5t15.5 46q0 58 -77 58v4q77 0 77 58z"/>
<glyph glyph-name="bar" horiz-adv-x="213" unicode="|" d="M105 731h3q0 -149 2.5 -267.5t2.5 -172.5q0 -62 -2.5 -180t-2.5 -260h-3q0 142 -2.5 260t-2.5 180q0 54 2.5 172.5t2.5 267.5z"/>
<glyph glyph-name="braceright" horiz-adv-x="317" unicode="}" d="M163 388q0 -58 77 -58v-4q-77 0 -77 -58q0 -22 15.5 -46t34 -42.5t34 -49.5t15.5 -65q0 -71 -68.5 -120.5t-183.5 -49.5v4q89 0 135.5 36t46.5 97q0 48 -39.5 110.5t-39.5 96.5q0 35 32.5 60t73.5 29q-41 4 -73.5 29t-32.5 60q0 34 39.5 96.5t39.5 110.5q0 61 -46.5 97 t-135.5 36v4q115 0 183.5 -49.5t68.5 -120.5q0 -34 -15.5 -65t-34 -49.5t-34 -42.5t-15.5 -46z"/>
<glyph glyph-name="asciitilde" d="M348 236q66 0 100 67h3q-20 -41 -45 -60.5t-67 -19.5q-33 0 -60.5 11.5t-43 25.5t-37.5 25.5t-45 11.5q-66 0 -100 -67h-3q20 41 45 60.5t67 19.5q37 0 88.5 -37t97.5 -37z" unicode="~"/>
<glyph glyph-name="exclamdown" horiz-adv-x="222" unicode="¡" d="M113 274h4q0 -90 23 -230t23 -187q0 -29 -13.5 -45t-34.5 -16t-34.5 16t-13.5 45q0 47 23 187t23 230zM66 456q0 22 14.5 36.5t34.5 14.5q21 0 34.5 -14t13.5 -36t-14 -37t-34 -15q-22 0 -35.5 14t-13.5 37z"/>
<glyph glyph-name="cent" horiz-adv-x="471" unicode="¢" d="M275 -10v-71h-3v71q-99 0 -163 76t-64 187q0 107 65 185t162 82v82h3v-82h6q76 0 116.5 -37.5t40.5 -87.5q0 -25 -14.5 -42.5t-36.5 -17.5q-23 0 -38 14.5t-15 36.5q0 24 15 37.5t35 13.5q7 0 14 -2t11 -4t5 -2q5 0 5 5q0 23 -32.5 52t-90.5 29q-14 0 -21 -1v-276 q25 22 62 22q49 0 77.5 -31t28.5 -82q0 -67 -42 -112t-126 -45zM128 258q0 -98 39 -166.5t105 -83.5v109q-23 23 -23 58t23 60v278q-68 -11 -106 -78.5t-38 -176.5zM275 235v-118q20 -20 54 -20q23 0 39.5 10.5t21.5 21.5l6 11h2q-1 -2 -2 -5t-7 -11t-13 -14t-19.5 -11 t-27.5 -5q-31 0 -54 20v-107q15 -3 31 -3q61 0 97.5 40.5t36.5 102.5q0 51 -27.5 81t-75.5 30q-39 0 -62 -23zM272 231q-20 -22 -20 -56q0 -33 20 -55v111z"/>
<glyph glyph-name="sterling" horiz-adv-x="545" unicode="£" d="M460 703v-162q0 -51 -24.5 -80.5t-65.5 -29.5q-31 0 -50 17.5t-19 46.5q0 27 16.5 44t42.5 17q19 0 31.5 -8.5t16.5 -17.5l3 -8h-2q-1 4 -3.5 9t-15 14t-30.5 9q-25 0 -41 -16.5t-16 -42.5q0 -28 18 -45t49 -17q40 0 63 28t23 76q0 80 -46 121t-126 41q-60 0 -94 -36 t-34 -93t16.5 -103t38 -90.5t28.5 -85.5h177v-3h-176q1 -11 1 -21q0 -53 -27.5 -86.5t-69.5 -39.5q43 -4 129.5 -44.5t143.5 -40.5q78 3 113 92h3l-67 -168h-26q-49 0 -91.5 16t-72.5 39.5t-56 46.5t-53.5 39t-53.5 16q-32 0 -49.5 -14t-17.5 -31q0 -5 5 -5q1 0 5 2t11 4 t14 2q20 0 35 -13.5t15 -37.5q0 -21 -14.5 -34.5t-38.5 -13.5q-22 0 -36.5 16t-14.5 41q0 40 25.5 64.5t70.5 24.5q39 0 66.5 22.5t27.5 65.5q0 30 -11 58h-130v3h129q-10 26 -40 66.5t-49.5 83.5t-19.5 97q0 71 52.5 118t135.5 47q38 0 83.5 -13.5t61.5 -13.5q28 0 28 27h3 z"/>
<glyph glyph-name="yen" horiz-adv-x="649" unicode="¥" d="M561 301v-3h-203v-295h62v-3h-207v3h63v295h-194v3h194v111l-3 5h-191v3h189l-179 277h-52v3h213v-3h-67l172 -269l111 160q31 44 31 72q0 37 -54 37h-7v3h170v-3h-4q-54 0 -132 -110l-115 -165v-2h203v-3h-203v-116h203z"/>
<glyph glyph-name="brokenbar" horiz-adv-x="213" unicode="¦" d="M105 251h3q0 -68 2.5 -122t2.5 -78q0 -28 -2.5 -81.5t-2.5 -118.5h-3q0 65 -2.5 118.5t-2.5 81.5q0 24 2.5 78t2.5 122zM105 730h3q0 -68 2.5 -122t2.5 -78q0 -28 -2.5 -81.5t-2.5 -118.5h-3q0 65 -2.5 118.5t-2.5 81.5q0 24 2.5 78t2.5 122z"/>
<glyph glyph-name="section" horiz-adv-x="545" unicode="§" d="M440 567q0 60 -42.5 96t-116.5 36q-54 0 -85.5 -29.5t-31.5 -73.5q0 -53 34.5 -94.5t84 -70t99 -58t84 -75t34.5 -104.5q0 -101 -69 -145q10 -28 10 -55q0 -66 -48 -105.5t-129 -39.5q-38 0 -77 13.5t-55 13.5q-28 0 -28 -27h-3v159h3q17 -73 54 -114t106 -41 q54 0 85.5 29.5t31.5 73.5q0 53 -34.5 94.5t-84 70t-99 58t-84 75t-34.5 104.5q0 99 68 144q-9 25 -9 56q0 66 48 105.5t129 39.5q38 0 77 -13.5t55 -13.5q28 0 28 27h3v-130q0 -51 -24.5 -80.5t-65.5 -29.5q-31 0 -50 17.5t-19 46.5q0 27 16.5 44t42.5 17q19 0 31.5 -8.5 t16.5 -17.5l3 -8h-2q-1 4 -3.5 9t-15 14t-30.5 9q-25 0 -41 -16.5t-16 -42.5q0 -28 18 -45t49 -17q40 0 63 27.5t23 74.5zM69 408q0 -50 31.5 -89.5t79 -68t97 -55t93.5 -63.5t60 -80q46 33 46 92q0 50 -31.5 89.5t-79 68t-97 55t-93.5 63t-61 79.5q-45 -31 -45 -91z"/>
<glyph glyph-name="dieresis" d="M378 654q0 -22 -14.5 -36.5t-34.5 -14.5q-21 0 -34.5 14t-13.5 36t14 37t34 15q22 0 35.5 -14t13.5 -37zM219 654q0 -22 -14.5 -36.5t-34.5 -14.5q-21 0 -34.5 14t-13.5 36t14 37t34 15q22 0 35.5 -14t13.5 -37z" unicode="¨"/>
<glyph glyph-name="copyright" horiz-adv-x="842" unicode="©" d="M469 148q46 0 80.5 26t40.5 70h4q-6 -49 -47.5 -78.5t-109.5 -29.5q-92 0 -150.5 62.5t-58.5 154.5q0 91 63 155.5t155 64.5q71 0 108 -31t37 -76q0 -22 -13.5 -37.5t-33.5 -15.5q-22 0 -35.5 13t-13.5 33q0 21 14 33.5t33 12.5q8 0 18 -3l9 -4q4 0 4 4q0 19 -29.5 42.5 t-84.5 23.5q-71 0 -112.5 -56.5t-41.5 -154.5q0 -91 45 -150t119 -59zM751 350q0 164 -86 261t-244 97q-157 0 -243.5 -97t-86.5 -261t86.5 -261t243.5 -97q158 0 244 97t86 261zM792 351q0 -156 -105.5 -259t-265.5 -103t-265.5 102.5t-105.5 257.5q0 156 105.5 259 t265.5 103t265.5 -102.5t105.5 -257.5z"/>
<glyph glyph-name="ordfeminine" d="M318 427v147q-14 -17 -43 -33.5t-52 -27t-41 -33t-18 -54.5q0 -31 20.5 -50t53.5 -19q36 0 58 20.5t22 49.5zM155 645q15 0 27 -10t12 -28q0 -17 -11.5 -28t-29.5 -11q-17 0 -28 12.5t-11 30.5q0 35 34.5 65t91.5 30q65 0 101.5 -37t36.5 -100v-177q0 -15 8.5 -23.5 t21.5 -8.5q30 0 35 32h2q-2 -20 -17.5 -38.5t-44.5 -18.5q-56 0 -64 64q-13 -26 -44 -45t-72 -19q-43 0 -72 23t-29 63q0 36 23 58t56 32.5l66 21t56 33t23 59.5q0 76 -97 76q-43 0 -71 -21.5t-28 -37.5q0 -2 3 -2q1 0 4 1t8 2.5t10 1.5z" unicode="ª"/>
<glyph glyph-name="guillemotleft" horiz-adv-x="520" unicode="«" d="M470 62l-1 -4q-95 66 -173 116t-112 74q-8 6 -8 13q0 8 8 14q34 24 112 74t173 116l1 -4q-73 -51 -121 -86.5t-87 -65t-66 -48.5q16 -11 96.5 -71.5t177.5 -127.5zM344 40l-1 -5q-95 75 -174 131t-111 81q-8 6 -8 14q0 9 8 15q32 25 111 81t174 131l1 -5 q-97 -76 -177.5 -142.5t-96.5 -79.5q22 -17 100.5 -82t173.5 -139z"/>
<glyph glyph-name="logicalnot" d="M441 331q14 0 14 -13q0 -33 -3.5 -103t-3.5 -152h-3q0 82 -3.5 151t-3.5 102q-51 0 -156 3t-232 3v3q127 0 233.5 3t157.5 3z" unicode="¬"/>
<glyph glyph-name="registered" horiz-adv-x="842" unicode="®" d="M350 560v-209h72q112 0 112 105q0 104 -110 104h-74zM588 216v-16q0 -15 1 -21.5t5 -11.5t13 -5q24 0 24 30v12h3v-12q0 -22 -13 -38.5t-40 -16.5q-64 0 -64 79q0 28 -1 44.5t-6.5 35.5t-15.5 29t-28 16.5t-44 6.5h-72v-202h44v-3h-155v3h44v414h-44v3h201 q76 0 120.5 -29t44.5 -77q0 -43 -42 -73.5t-107 -35.5q132 -9 132 -132zM751 350q0 164 -86 261t-244 97q-157 0 -243.5 -97t-86.5 -261t86.5 -261t243.5 -97q158 0 244 97t86 261zM792 351q0 -156 -105.5 -259t-265.5 -103t-265.5 102.5t-105.5 257.5q0 156 105.5 259 t265.5 103t265.5 -102.5t105.5 -257.5z"/>
<glyph glyph-name="macron" d="M400 672v-3q-51 0 -91.5 -2.5t-58.5 -2.5q-21 0 -59.5 2.5t-87.5 2.5v3q49 0 87.5 2.5t59.5 2.5q18 0 58.5 -2.5t91.5 -2.5z" unicode="¯"/>
<glyph glyph-name="degree" horiz-adv-x="358" unicode="°" d="M89 599q0 -45 23.5 -75t65.5 -30q43 0 67 30t24 75q0 46 -24 76.5t-67 30.5q-42 0 -65.5 -30.5t-23.5 -76.5zM70 599q0 46 31.5 78t76.5 32q46 0 78 -32t32 -78q0 -45 -32 -76.5t-78 -31.5q-45 0 -76.5 31.5t-31.5 76.5z"/>
<glyph glyph-name="plusminus" d="M450 98v-3q-68 0 -123 -2.5t-79 -2.5q-28 0 -80.5 2.5t-117.5 2.5v3q65 0 117.5 2.5t80.5 2.5q24 0 79 -2.5t123 -2.5zM249 493h3q0 -62 2.5 -113t2.5 -61q11 0 68 -2.5t125 -2.5v-3q-65 0 -118.5 -2.5t-74.5 -2.5q0 -14 -2.5 -64.5t-2.5 -108.5h-3q0 56 -2.5 103.5 t-2.5 69.5q-25 0 -78 2.5t-116 2.5v3q66 0 121.5 2.5t72.5 2.5q0 19 2.5 67t2.5 107z" unicode="±"/>
<glyph glyph-name="acute" d="M348 704q-15 -6 -48.5 -18.5t-68.5 -27t-70 -30.5l-1 3q43 19 102 51t79 41q6 2 10 2q9 0 9 -9q0 -8 -12 -12z" unicode="´"/>
<glyph glyph-name="mu" horiz-adv-x="539" unicode="µ" d="M145 507v-398q0 -50 26.5 -77t72.5 -27q55 0 89.5 40t34.5 94v365h-62v3h138v-437q0 -23 12.5 -35t30.5 -12q17 0 30 13t14 34h3q-2 -28 -24 -54t-62 -26q-33 0 -54.5 27.5t-25.5 73.5q-15 -41 -54 -70t-96 -29q-20 0 -38.5 5t-26.5 10l-8 5v-155h62v-3h-202v3h63v647 h-63v3h140z"/>
<glyph glyph-name="mu" horiz-adv-x="539" unicode="μ" d="M145 507v-398q0 -50 26.5 -77t72.5 -27q55 0 89.5 40t34.5 94v365h-62v3h138v-437q0 -23 12.5 -35t30.5 -12q17 0 30 13t14 34h3q-2 -28 -24 -54t-62 -26q-33 0 -54.5 27.5t-25.5 73.5q-15 -41 -54 -70t-96 -29q-20 0 -38.5 5t-26.5 10l-8 5v-155h62v-3h-202v3h63v647 h-63v3h140z"/>
<glyph glyph-name="paragraph" horiz-adv-x="563" unicode="¶" d="M318 337v360h-20q-84 0 -127.5 -50.5t-43.5 -128.5q0 -80 43.5 -130.5t131.5 -50.5h16zM464 0v697h-143v-697h-3v334h-28q-106 0 -178 54t-72 133q0 80 64 129.5t172 49.5h257v-3h-66v-697h-3z"/>
<glyph glyph-name="periodcentered" horiz-adv-x="397" unicode="·" d="M244 284q0 -22 -14.5 -36.5t-34.5 -14.5q-21 0 -34.5 14t-13.5 36t14 37t34 15q22 0 35.5 -14t13.5 -37z"/>
<glyph glyph-name="cedilla" d="M167 -81l75 79h3l-72 -76q21 15 63 15q39 0 63.5 -14.5t24.5 -43.5q0 -30 -27.5 -49.5t-68.5 -19.5q-38 0 -60 15.5t-22 33.5q0 8 6 14.5t14 6.5q9 0 15 -5.5t6 -13.5t-6 -13t-13 -5q-5 0 -10 3l-2 1q-2 0 -2 -2q0 -5 7 -12t22.5 -13.5t35.5 -6.5q39 0 60 17t21 46 q0 58 -74 58q-17 0 -30 -4t-18 -8l-5 -3h-6z" unicode="¸"/>
<glyph glyph-name="ordmasculine" d="M426 524q0 -77 -52 -132t-125 -55q-75 0 -124.5 52.5t-49.5 129.5q0 78 52 133t126 55t123.5 -52.5t49.5 -130.5zM362 520q0 79 -28.5 130.5t-80.5 51.5q-56 0 -85 -49.5t-29 -129.5q0 -79 28.5 -130.5t81.5 -51.5q55 0 84 50t29 129z" unicode="º"/>
<glyph glyph-name="guillemotright" horiz-adv-x="520" unicode="»" d="M177 35l-1 5q95 74 173.5 139t100.5 82q-16 13 -96.5 79.5t-177.5 142.5l1 5q95 -75 174 -131t111 -81q8 -6 8 -15q0 -8 -8 -14q-32 -25 -111 -81t-174 -131zM51 58l-1 4q97 67 177.5 127.5t96.5 71.5q-27 19 -66 48.5t-87 65t-121 86.5l1 4q95 -66 173 -116t112 -74 q8 -6 8 -14q0 -7 -8 -13q-34 -24 -112 -74t-173 -116z"/>
<glyph glyph-name="questiondown" horiz-adv-x="373" unicode="¿" d="M187 -203q-77 0 -122 38.5t-45 103.5q0 44 19 81t46.5 63t55 50t46.5 53t19 60q0 18 -6 37h4q13 -43 13 -77q0 -35 -13 -65t-31.5 -52l-37 -44t-31.5 -52.5t-13 -67.5q0 -54 30 -88t82 -34q61 0 100 36.5t39 93.5q0 54 -33.5 86t-87.5 32q-41 0 -67 -25t-26 -62 q0 -29 20 -48t49 -19q28 0 46 17.5t18 44.5q0 19 -9 32.5t-18 17.5l-9 4v2q4 -1 10.5 -4.5t17 -18t10.5 -33.5q0 -28 -18.5 -46t-47.5 -18q-30 0 -50.5 19.5t-20.5 49.5q0 37 27 63t68 26q55 0 89 -33t34 -87q0 -59 -41.5 -97.5t-115.5 -38.5zM140 456q0 22 14.5 36.5 t34.5 14.5q21 0 34.5 -14t13.5 -36t-14 -37t-34 -15q-22 0 -35.5 14t-13.5 37z"/>
<glyph glyph-name="Agrave" horiz-adv-x="675" unicode="À" d="M239 847q-12 4 -12 12q0 9 9 9q4 0 10 -2q20 -9 79 -41t102 -51l-1 -3q-35 16 -70 30.5t-68.5 27t-48.5 18.5zM415 300h-180q-35 0 -63 9l-72 -197q-10 -28 -10 -47q0 -62 73 -62h7v-3h-170v3h4q32 0 52.5 28.5t39.5 81.5l72 197q-88 30 -88 115q0 49 30.5 80.5 t77.5 31.5q33 0 57 -15l65 178h37l272 -697h56v-3h-210v3h66zM173 312q29 -9 62 -9h179l-126 325l-39 -108q43 -29 43 -85q0 -30 -15 -52t-29 -29l-15 -7v3q2 1 6 2.5t14 8.5t17.5 15.5t13.5 24.5t6 34q0 56 -42 83zM169 313l75 207q-24 15 -56 15q-46 0 -76 -31t-30 -79 q0 -41 23.5 -70t63.5 -42z"/>
<glyph glyph-name="Aacute" horiz-adv-x="675" unicode="Á" d="M425 847q-15 -6 -48.5 -18.5t-68.5 -27t-70 -30.5l-1 3q43 19 102 51t79 41q6 2 10 2q9 0 9 -9q0 -8 -12 -12zM415 300h-180q-35 0 -63 9l-72 -197q-10 -28 -10 -47q0 -62 73 -62h7v-3h-170v3h4q32 0 52.5 28.5t39.5 81.5l72 197q-88 30 -88 115q0 49 30.5 80.5 t77.5 31.5q33 0 57 -15l65 178h37l272 -697h56v-3h-210v3h66zM173 312q29 -9 62 -9h179l-126 325l-39 -108q43 -29 43 -85q0 -30 -15 -52t-29 -29l-15 -7v3q2 1 6 2.5t14 8.5t17.5 15.5t13.5 24.5t6 34q0 56 -42 83zM169 313l75 207q-24 15 -56 15q-46 0 -76 -31t-30 -79 q0 -41 23.5 -70t63.5 -42z"/>
<glyph glyph-name="Acircumflex" horiz-adv-x="675" unicode="Â" d="M337 873q15 -12 43.5 -41t65.5 -60l-2 -2q-39 32 -71 54t-46 33q-14 -11 -46 -33t-71 -54l-2 2q37 31 64.5 59t44.5 42q6 4 10 4q6 0 10 -4zM415 300h-180q-35 0 -63 9l-72 -197q-10 -28 -10 -47q0 -62 73 -62h7v-3h-170v3h4q32 0 52.5 28.5t39.5 81.5l72 197 q-88 30 -88 115q0 49 30.5 80.5t77.5 31.5q33 0 57 -15l65 178h37l272 -697h56v-3h-210v3h66zM173 312q29 -9 62 -9h179l-126 325l-39 -108q43 -29 43 -85q0 -30 -15 -52t-29 -29l-15 -7v3q2 1 6 2.5t14 8.5t17.5 15.5t13.5 24.5t6 34q0 56 -42 83zM169 313l75 207 q-24 15 -56 15q-46 0 -76 -31t-30 -79q0 -41 23.5 -70t63.5 -42z"/>
<glyph glyph-name="Atilde" horiz-adv-x="675" unicode="Ã" d="M423 800q58 0 87 64h3q-18 -41 -40 -60t-58 -19t-63.5 17.5t-50.5 35.5t-48 18q-58 0 -87 -64h-3q18 41 40 60t58 19q32 0 77 -35.5t85 -35.5zM415 300h-180q-35 0 -63 9l-72 -197q-10 -28 -10 -47q0 -62 73 -62h7v-3h-170v3h4q32 0 52.5 28.5t39.5 81.5l72 197 q-88 30 -88 115q0 49 30.5 80.5t77.5 31.5q33 0 57 -15l65 178h37l272 -697h56v-3h-210v3h66zM173 312q29 -9 62 -9h179l-126 325l-39 -108q43 -29 43 -85q0 -30 -15 -52t-29 -29l-15 -7v3q2 1 6 2.5t14 8.5t17.5 15.5t13.5 24.5t6 34q0 56 -42 83zM169 313l75 207 q-24 15 -56 15q-46 0 -76 -31t-30 -79q0 -41 23.5 -70t63.5 -42z"/>
<glyph glyph-name="Adieresis" horiz-adv-x="675" unicode="Ä" d="M457 817q0 -22 -14.5 -36.5t-34.5 -14.5q-21 0 -34.5 14t-13.5 36t14 37t34 15q22 0 35.5 -14t13.5 -37zM298 817q0 -22 -14.5 -36.5t-34.5 -14.5q-21 0 -34.5 14t-13.5 36t14 37t34 15q22 0 35.5 -14t13.5 -37zM415 300h-180q-35 0 -63 9l-72 -197q-10 -28 -10 -47 q0 -62 73 -62h7v-3h-170v3h4q32 0 52.5 28.5t39.5 81.5l72 197q-88 30 -88 115q0 49 30.5 80.5t77.5 31.5q33 0 57 -15l65 178h37l272 -697h56v-3h-210v3h66zM173 312q29 -9 62 -9h179l-126 325l-39 -108q43 -29 43 -85q0 -30 -15 -52t-29 -29l-15 -7v3q2 1 6 2.5t14 8.5 t17.5 15.5t13.5 24.5t6 34q0 56 -42 83zM169 313l75 207q-24 15 -56 15q-46 0 -76 -31t-30 -79q0 -41 23.5 -70t63.5 -42z"/>
<glyph glyph-name="Aring" horiz-adv-x="675" unicode="Å" d="M250 845q0 -39 20 -64.5t57 -25.5t57.5 25.5t20.5 64.5t-20.5 65t-57.5 26t-57 -26t-20 -65zM234 845q0 39 27 66.5t66 27.5t66.5 -27.5t27.5 -66.5t-27.5 -66t-66.5 -27t-66 27t-27 66zM415 300h-180q-35 0 -63 9l-72 -197q-10 -28 -10 -47q0 -62 73 -62h7v-3h-170v3h4 q32 0 52.5 28.5t39.5 81.5l72 197q-88 30 -88 115q0 49 30.5 80.5t77.5 31.5q33 0 57 -15l65 178h37l272 -697h56v-3h-210v3h66zM173 312q29 -9 62 -9h179l-126 325l-39 -108q43 -29 43 -85q0 -30 -15 -52t-29 -29l-15 -7v3q2 1 6 2.5t14 8.5t17.5 15.5t13.5 24.5t6 34 q0 56 -42 83zM169 313l75 207q-24 15 -56 15q-46 0 -76 -31t-30 -79q0 -41 23.5 -70t63.5 -42z"/>
<glyph glyph-name="AE" horiz-adv-x="983" unicode="Æ" d="M584 349v-346h161q86 0 123 38t53 133h2v-174h-484v3h63v346h-154q-32 0 -56 7l-151 -244q-25 -39 -25 -67q0 -42 58 -42h7v-3h-169v3h4q55 0 121 110l151 244q-44 12 -69.5 42.5t-25.5 74.5q0 49 30.5 80.5t77.5 31.5q32 0 57 -15t37 -41l103 167h-88v3h503v-174h-2 q-16 95 -53 133t-123 38h-151v-345h96q70 0 101.5 31.5t31.5 79.5q0 44 -21 69.5t-60 25.5q-30 0 -48 -18t-18 -46q0 -26 16 -42.5t41 -16.5q18 0 30 8t15 16l4 8h2q-1 -4 -3.5 -9.5t-15.5 -15t-32 -9.5q-26 0 -42.5 17t-16.5 44q0 29 18.5 47.5t49.5 18.5q40 0 62.5 -27 t22.5 -73v-219h-3q-7 54 -37.5 81t-96.5 27h-96zM293 359q30 -7 55 -7h154v345l-105 -171q8 -21 8 -42q0 -30 -14.5 -52t-29.5 -29l-15 -7v3q2 1 6 2.5t14 8.5t17.5 15.5t13.5 24.5t6 34q0 21 -8 40zM289 360l105 168q-26 56 -93 56q-46 0 -76 -31t-30 -79q0 -43 25.5 -72.5 t68.5 -41.5z"/>
<glyph glyph-name="Ccedilla" horiz-adv-x="581" unicode="Ç" d="M254 -81l67 71q-128 1 -209.5 103.5t-81.5 252.5q0 156 88.5 260t224.5 104q48 0 93.5 -18.5t65.5 -18.5q16 0 25.5 10t9.5 27h3v-209h-3q-21 100 -64 152.5t-130 52.5q-113 0 -167.5 -98t-54.5 -256q0 -150 67 -247t176 -97q80 0 130.5 52.5t50.5 129.5q0 64 -34 103.5 t-92 39.5q-48 0 -79 -30t-31 -76q0 -44 28 -73t72 -29q29 0 50.5 14.5t28.5 28.5l7 14h2q-1 -2 -2.5 -6t-9 -14.5t-16.5 -18t-25 -14t-35 -6.5q-45 0 -73.5 29.5t-28.5 74.5q0 47 31.5 77.5t80.5 30.5q59 0 94 -40.5t35 -104.5q0 -83 -57.5 -141t-166.5 -59l-64 -67 q28 14 63 14q39 0 63.5 -14.5t24.5 -43.5q0 -30 -27.5 -49.5t-68.5 -19.5q-38 0 -60 15.5t-22 33.5q0 8 6 14.5t14 6.5q9 0 15 -5.5t6 -13.5t-6 -13t-13 -5q-5 0 -11 3l-1 1q-2 0 -2 -2q0 -5 7 -12t22.5 -13.5t35.5 -6.5q39 0 60 17t21 46q0 58 -74 58q-17 0 -30 -4t-18 -8 l-5 -3h-6z"/>
<glyph glyph-name="Egrave" horiz-adv-x="564" unicode="È" d="M184 847q-12 4 -12 12q0 9 9 9q4 0 10 -2q20 -9 79 -41t102 -51l-1 -3q-35 16 -70 30.5t-68.5 27t-48.5 18.5zM394 463q0 44 -21 69.5t-60 25.5q-30 0 -48 -18t-18 -46q0 -26 16 -42.5t41 -16.5q18 0 30 8t16 16l3 8h2q-1 -4 -3.5 -9.5t-15.5 -15t-32 -9.5 q-26 0 -42.5 17t-16.5 44q0 29 18.5 47.5t49.5 18.5q40 0 62.5 -27t22.5 -73v-219h-3q-7 54 -37.5 81t-96.5 27h-96v-346h161q86 0 123 38t53 133h2v-174h-484v3h63v694h-63v3h474v-174h-2q-16 95 -53 133t-123 38h-151v-345h96q70 0 101.5 31.5t31.5 79.5z"/>
<glyph glyph-name="Eacute" horiz-adv-x="564" unicode="É" d="M370 847q-15 -6 -48.5 -18.5t-68.5 -27t-70 -30.5l-1 3q43 19 102 51t79 41q6 2 10 2q9 0 9 -9q0 -8 -12 -12zM394 463q0 44 -21 69.5t-60 25.5q-30 0 -48 -18t-18 -46q0 -26 16 -42.5t41 -16.5q18 0 30 8t16 16l3 8h2q-1 -4 -3.5 -9.5t-15.5 -15t-32 -9.5 q-26 0 -42.5 17t-16.5 44q0 29 18.5 47.5t49.5 18.5q40 0 62.5 -27t22.5 -73v-219h-3q-7 54 -37.5 81t-96.5 27h-96v-346h161q86 0 123 38t53 133h2v-174h-484v3h63v694h-63v3h474v-174h-2q-16 95 -53 133t-123 38h-151v-345h96q70 0 101.5 31.5t31.5 79.5z"/>
<glyph glyph-name="Ecircumflex" horiz-adv-x="564" unicode="Ê" d="M290 873q15 -12 43.5 -41t65.5 -60l-2 -2q-39 32 -71 54t-46 33q-14 -11 -46 -33t-71 -54l-2 2q37 31 64.5 59t44.5 42q6 4 10 4q6 0 10 -4zM394 463q0 44 -21 69.5t-60 25.5q-30 0 -48 -18t-18 -46q0 -26 16 -42.5t41 -16.5q18 0 30 8t16 16l3 8h2q-1 -4 -3.5 -9.5 t-15.5 -15t-32 -9.5q-26 0 -42.5 17t-16.5 44q0 29 18.5 47.5t49.5 18.5q40 0 62.5 -27t22.5 -73v-219h-3q-7 54 -37.5 81t-96.5 27h-96v-346h161q86 0 123 38t53 133h2v-174h-484v3h63v694h-63v3h474v-174h-2q-16 95 -53 133t-123 38h-151v-345h96q70 0 101.5 31.5 t31.5 79.5z"/>
<glyph glyph-name="Edieresis" horiz-adv-x="564" unicode="Ë" d="M410 817q0 -22 -14.5 -36.5t-34.5 -14.5q-21 0 -34.5 14t-13.5 36t14 37t34 15q22 0 35.5 -14t13.5 -37zM251 817q0 -22 -14.5 -36.5t-34.5 -14.5q-21 0 -34.5 14t-13.5 36t14 37t34 15q22 0 35.5 -14t13.5 -37zM394 463q0 44 -21 69.5t-60 25.5q-30 0 -48 -18t-18 -46 q0 -26 16 -42.5t41 -16.5q18 0 30 8t16 16l3 8h2q-1 -4 -3.5 -9.5t-15.5 -15t-32 -9.5q-26 0 -42.5 17t-16.5 44q0 29 18.5 47.5t49.5 18.5q40 0 62.5 -27t22.5 -73v-219h-3q-7 54 -37.5 81t-96.5 27h-96v-346h161q86 0 123 38t53 133h2v-174h-484v3h63v694h-63v3h474v-174 h-2q-16 95 -53 133t-123 38h-151v-345h96q70 0 101.5 31.5t31.5 79.5z"/>
<glyph glyph-name="Igrave" horiz-adv-x="247" unicode="Ì" d="M36 847q-12 4 -12 12q0 9 9 9q4 0 10 -2q20 -9 79 -41t102 -51l-1 -3q-35 16 -70 30.5t-68.5 27t-48.5 18.5zM39 700h188v-3h-62v-694h62v-3h-207v3h63v694h-44q-44 0 -72 -21.5t-28 -60.5q0 -30 17.5 -48.5t45.5 -18.5q26 0 42.5 16t16.5 41q0 18 -8 30t-16 15l-8 4v2 q4 -1 9.5 -3.5t15 -15.5t9.5 -32q0 -26 -17 -42.5t-44 -16.5q-29 0 -47 19t-18 50q0 39 29 62t73 23z"/>
<glyph glyph-name="Iacute" horiz-adv-x="247" unicode="Í" d="M212 847q-15 -6 -48.5 -18.5t-68.5 -27t-70 -30.5l-1 3q43 19 102 51t79 41q6 2 10 2q9 0 9 -9q0 -8 -12 -12zM39 700h188v-3h-62v-694h62v-3h-207v3h63v694h-44q-44 0 -72 -21.5t-28 -60.5q0 -30 17.5 -48.5t45.5 -18.5q26 0 42.5 16t16.5 41q0 18 -8 30t-16 15l-8 4v2 q4 -1 9.5 -3.5t15 -15.5t9.5 -32q0 -26 -17 -42.5t-44 -16.5q-29 0 -47 19t-18 50q0 39 29 62t73 23z"/>
<glyph glyph-name="Icircumflex" horiz-adv-x="247" unicode="Î" d="M134 873q15 -12 43.5 -41t65.5 -60l-2 -2q-39 32 -71 54t-46 33q-14 -11 -46 -33t-71 -54l-2 2q37 31 64.5 59t44.5 42q6 4 10 4q6 0 10 -4zM39 700h188v-3h-62v-694h62v-3h-207v3h63v694h-44q-44 0 -72 -21.5t-28 -60.5q0 -30 17.5 -48.5t45.5 -18.5q26 0 42.5 16 t16.5 41q0 18 -8 30t-16 15l-8 4v2q4 -1 9.5 -3.5t15 -15.5t9.5 -32q0 -26 -17 -42.5t-44 -16.5q-29 0 -47 19t-18 50q0 39 29 62t73 23z"/>
<glyph glyph-name="Idieresis" horiz-adv-x="247" unicode="Ï" d="M252 817q0 -22 -14.5 -36.5t-34.5 -14.5q-21 0 -34.5 14t-13.5 36t14 37t34 15q22 0 35.5 -14t13.5 -37zM93 817q0 -22 -14.5 -36.5t-34.5 -14.5q-21 0 -34.5 14t-13.5 36t14 37t34 15q22 0 35.5 -14t13.5 -37zM39 700h188v-3h-62v-694h62v-3h-207v3h63v694h-44 q-44 0 -72 -21.5t-28 -60.5q0 -30 17.5 -48.5t45.5 -18.5q26 0 42.5 16t16.5 41q0 18 -8 30t-16 15l-8 4v2q4 -1 9.5 -3.5t15 -15.5t9.5 -32q0 -26 -17 -42.5t-44 -16.5q-29 0 -47 19t-18 50q0 39 29 62t73 23z"/>
<glyph glyph-name="Eth" horiz-adv-x="637" unicode="Ð" d="M286 1q110 0 170 99t60 248q0 147 -69 248t-184 101h-98v-348h164v-3h-164v-346h-145v3h63v343h-61v3h61v348h-63v3h252q155 0 245 -95t90 -251q0 -152 -91.5 -254t-229.5 -102q-44 0 -73.5 23t-29.5 62q0 31 17.5 50t46.5 19q27 0 44 -16.5t17 -42.5q0 -19 -8.5 -31.5 t-17.5 -15.5l-8 -4v2q4 1 9 3.5t14 15t9 30.5q0 25 -16.5 41t-42.5 16q-28 0 -45 -18t-17 -49q0 -39 28.5 -60.5t72.5 -21.5z"/>
<glyph glyph-name="Ntilde" horiz-adv-x="643" unicode="Ñ" d="M415 800q58 0 87 64h3q-18 -41 -40 -60t-58 -19t-63.5 17.5t-50.5 35.5t-48 18q-58 0 -87 -64h-3q18 41 40 60t58 19q32 0 77 -35.5t85 -35.5zM465 697q-49 0 -78.5 -24.5t-29.5 -69.5q0 -37 23 -60.5t58 -23.5t57 21.5t22 55.5q0 23 -11 39.5t-22 21.5l-11 5v2 q2 -1 5 -2t11 -6.5t14 -12.5t11 -19.5t5 -27.5q0 -34 -23 -56.5t-58 -22.5q-36 0 -59.5 24.5t-23.5 61.5q0 46 30 71.5t80 25.5h163v-3q-63 0 -63 -125v-572h-70l-408 690v-562q0 -63 19.5 -94t48.5 -31h5v-3h-140v3q63 0 63 125v569h-63v3h154l387 -663v535q0 63 -27.5 94 t-68.5 31z"/>
<glyph glyph-name="Ograve" horiz-adv-x="704" unicode="Ò" d="M264 847q-12 4 -12 12q0 9 9 9q4 0 10 -2q20 -9 79 -41t102 -51l-1 -3q-35 16 -70 30.5t-68.5 27t-48.5 18.5zM352 -7q118 0 174.5 98.5t56.5 256.5q0 152 -59.5 255t-171.5 103q-118 0 -174.5 -98t-56.5 -256q0 -138 49 -237.5t143 -117.5q-30 9 -48 33.5t-18 59.5 q0 37 23.5 61.5t59.5 24.5q35 0 58 -22.5t23 -56.5q0 -24 -11.5 -41t-23.5 -22l-11 -5v2q5 2 12.5 5.5t19.5 20.5t12 40q0 34 -22 55.5t-57 21.5t-58 -23.5t-23 -60.5q0 -43 28.5 -70t74.5 -27zM352 710q153 0 237.5 -98.5t84.5 -257.5q0 -157 -90.5 -261t-231.5 -104 q-153 0 -237.5 99t-84.5 258q0 157 90.5 260.5t231.5 103.5z"/>
<glyph glyph-name="Oacute" horiz-adv-x="704" unicode="Ó" d="M440 847q-15 -6 -48.5 -18.5t-68.5 -27t-70 -30.5l-1 3q43 19 102 51t79 41q6 2 10 2q9 0 9 -9q0 -8 -12 -12zM352 -7q118 0 174.5 98.5t56.5 256.5q0 152 -59.5 255t-171.5 103q-118 0 -174.5 -98t-56.5 -256q0 -138 49 -237.5t143 -117.5q-30 9 -48 33.5t-18 59.5 q0 37 23.5 61.5t59.5 24.5q35 0 58 -22.5t23 -56.5q0 -24 -11.5 -41t-23.5 -22l-11 -5v2q5 2 12.5 5.5t19.5 20.5t12 40q0 34 -22 55.5t-57 21.5t-58 -23.5t-23 -60.5q0 -43 28.5 -70t74.5 -27zM352 710q153 0 237.5 -98.5t84.5 -257.5q0 -157 -90.5 -261t-231.5 -104 q-153 0 -237.5 99t-84.5 258q0 157 90.5 260.5t231.5 103.5z"/>
<glyph glyph-name="Ocircumflex" horiz-adv-x="704" unicode="Ô" d="M362 873q15 -12 43.5 -41t65.5 -60l-2 -2q-39 32 -71 54t-46 33q-14 -11 -46 -33t-71 -54l-2 2q37 31 64.5 59t44.5 42q6 4 10 4q6 0 10 -4zM352 -7q118 0 174.5 98.5t56.5 256.5q0 152 -59.5 255t-171.5 103q-118 0 -174.5 -98t-56.5 -256q0 -138 49 -237.5t143 -117.5 q-30 9 -48 33.5t-18 59.5q0 37 23.5 61.5t59.5 24.5q35 0 58 -22.5t23 -56.5q0 -24 -11.5 -41t-23.5 -22l-11 -5v2q5 2 12.5 5.5t19.5 20.5t12 40q0 34 -22 55.5t-57 21.5t-58 -23.5t-23 -60.5q0 -43 28.5 -70t74.5 -27zM352 710q153 0 237.5 -98.5t84.5 -257.5 q0 -157 -90.5 -261t-231.5 -104q-153 0 -237.5 99t-84.5 258q0 157 90.5 260.5t231.5 103.5z"/>
<glyph glyph-name="Otilde" horiz-adv-x="704" unicode="Õ" d="M437 800q58 0 87 64h3q-18 -41 -40 -60t-58 -19t-63.5 17.5t-50.5 35.5t-48 18q-58 0 -87 -64h-3q18 41 40 60t58 19q32 0 77 -35.5t85 -35.5zM352 -7q118 0 174.5 98.5t56.5 256.5q0 152 -59.5 255t-171.5 103q-118 0 -174.5 -98t-56.5 -256q0 -138 49 -237.5 t143 -117.5q-30 9 -48 33.5t-18 59.5q0 37 23.5 61.5t59.5 24.5q35 0 58 -22.5t23 -56.5q0 -24 -11.5 -41t-23.5 -22l-11 -5v2q5 2 12.5 5.5t19.5 20.5t12 40q0 34 -22 55.5t-57 21.5t-58 -23.5t-23 -60.5q0 -43 28.5 -70t74.5 -27zM352 710q153 0 237.5 -98.5t84.5 -257.5 q0 -157 -90.5 -261t-231.5 -104q-153 0 -237.5 99t-84.5 258q0 157 90.5 260.5t231.5 103.5z"/>
<glyph glyph-name="Odieresis" horiz-adv-x="704" unicode="Ö" d="M482 817q0 -22 -14.5 -36.5t-34.5 -14.5q-21 0 -34.5 14t-13.5 36t14 37t34 15q22 0 35.5 -14t13.5 -37zM323 817q0 -22 -14.5 -36.5t-34.5 -14.5q-21 0 -34.5 14t-13.5 36t14 37t34 15q22 0 35.5 -14t13.5 -37zM352 -7q118 0 174.5 98.5t56.5 256.5q0 152 -59.5 255 t-171.5 103q-118 0 -174.5 -98t-56.5 -256q0 -138 49 -237.5t143 -117.5q-30 9 -48 33.5t-18 59.5q0 37 23.5 61.5t59.5 24.5q35 0 58 -22.5t23 -56.5q0 -24 -11.5 -41t-23.5 -22l-11 -5v2q5 2 12.5 5.5t19.5 20.5t12 40q0 34 -22 55.5t-57 21.5t-58 -23.5t-23 -60.5 q0 -43 28.5 -70t74.5 -27zM352 710q153 0 237.5 -98.5t84.5 -257.5q0 -157 -90.5 -261t-231.5 -104q-153 0 -237.5 99t-84.5 258q0 157 90.5 260.5t231.5 103.5z"/>
<glyph glyph-name="multiply" d="M94 418l1 1q47 -47 93 -89.5t62 -58.5q18 18 63.5 60t91.5 88l1 -1q-46 -46 -88 -91.5t-60 -63.5q14 -14 58 -61.5t90 -93.5l-1 -1q-42 41 -87.5 83.5t-67.5 64.5q-17 -16 -63.5 -59.5t-91.5 -88.5l-1 1q45 45 88.5 91.5t59.5 63.5q-22 21 -64.5 67t-83.5 88z" unicode="×"/>
<glyph glyph-name="Oslash" horiz-adv-x="704" unicode="Ø" d="M121 352q0 -181 75 -280q31 54 75.5 134t78.5 138q26 44 163 276q-62 86 -161 86q-118 0 -174.5 -98t-56.5 -256zM582 740h2l-47 -83q67 -45 102 -124t35 -179q0 -157 -90.5 -261t-231.5 -104q-101 0 -174 45l-50 -86h-3q11 20 30 52t21 36q-71 44 -108.5 125t-37.5 185 q0 157 90.5 260.5t231.5 103.5q105 0 183 -51q3 4 19.5 33.5t27.5 47.5zM316 -4q18 -5 36 -5v2q-18 0 -36 3z"/>
<glyph glyph-name="Ugrave" horiz-adv-x="671" unicode="Ù" d="M247 847q-12 4 -12 12q0 9 9 9q4 0 10 -2q20 -9 79 -41t102 -51l-1 -3q-35 16 -70 30.5t-68.5 27t-48.5 18.5zM456 700h200v-3q-84 0 -84 -110v-350q0 -108 -72 -177t-176 -69t-172.5 67.5t-68.5 169.5v469h-63v3h207v-3h-62v-464q0 -87 58 -140.5t147 -53.5 q87 0 142.5 52.5t55.5 146.5v349q0 110 -112 110q-56 0 -89.5 -30t-33.5 -81q0 -43 27.5 -71.5t68.5 -28.5t67.5 25.5t26.5 65.5q0 27 -13 46.5t-26 26.5l-13 6v2q2 -1 5.5 -2.5t13 -8t16.5 -14.5t13 -23t6 -33q0 -41 -27 -67t-69 -26t-70 28.5t-28 73.5q0 52 34 83t91 31z "/>
<glyph glyph-name="Uacute" horiz-adv-x="671" unicode="Ú" d="M453 847q-15 -6 -48.5 -18.5t-68.5 -27t-70 -30.5l-1 3q43 19 102 51t79 41q6 2 10 2q9 0 9 -9q0 -8 -12 -12zM456 700h200v-3q-84 0 -84 -110v-350q0 -108 -72 -177t-176 -69t-172.5 67.5t-68.5 169.5v469h-63v3h207v-3h-62v-464q0 -87 58 -140.5t147 -53.5 q87 0 142.5 52.5t55.5 146.5v349q0 110 -112 110q-56 0 -89.5 -30t-33.5 -81q0 -43 27.5 -71.5t68.5 -28.5t67.5 25.5t26.5 65.5q0 27 -13 46.5t-26 26.5l-13 6v2q2 -1 5.5 -2.5t13 -8t16.5 -14.5t13 -23t6 -33q0 -41 -27 -67t-69 -26t-70 28.5t-28 73.5q0 52 34 83t91 31z "/>
<glyph glyph-name="Ucircumflex" horiz-adv-x="671" unicode="Û" d="M365 873q15 -12 43.5 -41t65.5 -60l-2 -2q-39 32 -71 54t-46 33q-14 -11 -46 -33t-71 -54l-2 2q37 31 64.5 59t44.5 42q6 4 10 4q6 0 10 -4zM456 700h200v-3q-84 0 -84 -110v-350q0 -108 -72 -177t-176 -69t-172.5 67.5t-68.5 169.5v469h-63v3h207v-3h-62v-464 q0 -87 58 -140.5t147 -53.5q87 0 142.5 52.5t55.5 146.5v349q0 110 -112 110q-56 0 -89.5 -30t-33.5 -81q0 -43 27.5 -71.5t68.5 -28.5t67.5 25.5t26.5 65.5q0 27 -13 46.5t-26 26.5l-13 6v2q2 -1 5.5 -2.5t13 -8t16.5 -14.5t13 -23t6 -33q0 -41 -27 -67t-69 -26t-70 28.5 t-28 73.5q0 52 34 83t91 31z"/>
<glyph glyph-name="Udieresis" horiz-adv-x="671" unicode="Ü" d="M475 817q0 -22 -14.5 -36.5t-34.5 -14.5q-21 0 -34.5 14t-13.5 36t14 37t34 15q22 0 35.5 -14t13.5 -37zM316 817q0 -22 -14.5 -36.5t-34.5 -14.5q-21 0 -34.5 14t-13.5 36t14 37t34 15q22 0 35.5 -14t13.5 -37zM456 700h200v-3q-84 0 -84 -110v-350q0 -108 -72 -177 t-176 -69t-172.5 67.5t-68.5 169.5v469h-63v3h207v-3h-62v-464q0 -87 58 -140.5t147 -53.5q87 0 142.5 52.5t55.5 146.5v349q0 110 -112 110q-56 0 -89.5 -30t-33.5 -81q0 -43 27.5 -71.5t68.5 -28.5t67.5 25.5t26.5 65.5q0 27 -13 46.5t-26 26.5l-13 6v2q2 -1 5.5 -2.5 t13 -8t16.5 -14.5t13 -23t6 -33q0 -41 -27 -67t-69 -26t-70 28.5t-28 73.5q0 52 34 83t91 31z"/>
<glyph glyph-name="Yacute" horiz-adv-x="649" unicode="Ý" d="M436 847q-15 -6 -48.5 -18.5t-68.5 -27t-70 -30.5l-1 3q43 19 102 51t79 41q6 2 10 2q9 0 9 -9q0 -8 -12 -12zM466 515l-108 -162v-350h62v-3h-207v3h63v339l-224 355h-52v3h213v-3h-67l212 -338l103 157q-32 4 -51.5 27.5t-19.5 57.5q0 45 30 72t75 27h154v-3h-4 q-45 0 -100 -67q9 -15 9 -36q0 -34 -23 -56.5t-58 -22.5h-7zM543 629q-15 -19 -30 -42l-46 -70h6q35 0 57 21.5t22 55.5q0 20 -9 35zM535 640q-19 22 -52 22v2q33 0 53 -22q3 11 3 20q0 35 -44 35q-45 0 -74 -25.5t-29 -70.5q0 -34 19.5 -56.5t51.5 -26.5l46 70q17 25 26 52 z"/>
<glyph glyph-name="Thorn" horiz-adv-x="563" unicode="Þ" d="M285 556h-120v-553h62v-3h-207v3h63v694h-63v3h208v-3h-63v-138h142q108 0 172 -52t64 -132q0 -79 -72.5 -135.5t-173.5 -56.5q-52 0 -83 22.5t-31 62.5q0 31 17.5 50t46.5 19q27 0 44 -16.5t17 -42.5q0 -19 -8.5 -31.5t-17.5 -16.5l-8 -3v2q4 1 9 3.5t14 15t9 30.5 q0 25 -16.5 41t-42.5 16q-28 0 -45 -18t-17 -49q0 -39 29.5 -60.5t80.5 -21.5q77 0 119 53t42 133q0 78 -43.5 131t-127.5 53z"/>
<glyph glyph-name="germandbls" horiz-adv-x="526" unicode="ß" d="M226 40q-29 35 -29 84q0 107 88 153q-47 35 -47 82q0 29 12.5 50.5t30.5 37t36 33.5t30.5 50t12.5 75q0 58 -25 85.5t-79 27.5q-112 0 -112 -164v-554h-139v3h63v491q0 106 53 166.5t135 60.5q80 0 127.5 -30t47.5 -82q0 -30 -14.5 -52t-35 -35t-41 -26.5t-35 -35 t-14.5 -52.5q0 -19 6.5 -34.5t23.5 -29.5t27.5 -21t36.5 -22h6q104 0 166 -68t62 -157q0 -106 -58.5 -169t-153.5 -63q-79 0 -130.5 48t-51.5 124q0 16 1 24zM228 38q-1 -7 -1 -22q0 -75 50.5 -122.5t129.5 -47.5q95 0 152.5 62t57.5 168q0 89 -61.5 156t-164.5 67h-2 q34 -20 53 -34.5t36.5 -44.5t17.5 -67q0 -69 -48.5 -115t-117.5 -46q-62 0 -102 46zM287 276q-42 -22 -65 -62t-23 -90q0 -46 28 -82q8 54 44.5 87t92.5 33v-2q-56 0 -92.5 -32.5t-43.5 -87.5q39 -45 102 -45q51 0 78.5 33.5t27.5 86.5q0 33 -16.5 59t-34.5 39.5t-51.5 33 t-46.5 29.5z"/>
<glyph glyph-name="agrave" horiz-adv-x="509" unicode="à" d="M166 704q-12 4 -12 12q0 9 9 9q4 0 10 -2q20 -9 79 -41t102 -51l-1 -3q-35 16 -70 30.5t-68.5 27t-48.5 18.5zM110 221q21 12 56.5 24t62.5 21.5t53.5 25t41.5 42t15 64.5q0 51 -32 79.5t-92 28.5q-63 0 -108.5 -43.5t-45.5 -113.5q0 -77 49 -128zM412 199 q108 65 108 209q0 35 -8.5 66.5t-20.5 51t-24 34t-21 20.5l-8 7v2q3 -2 9 -6.5t20.5 -21t25.5 -35.5t20 -51t9 -67q0 -147 -110 -212v-126q0 -23 12 -35t30 -12q19 0 32 13t15 34h3q-2 -28 -23.5 -54t-60.5 -26q-77 0 -84 96q-17 -38 -59.5 -67t-97.5 -29q-56 0 -95 32.5 t-39 88.5q0 73 63 109q-49 51 -49 129q0 74 52 123t130 49q85 0 128 -48t43 -137v-137zM145 191q-19 -30 -19 -73q0 -46 27 -73t72 -27q49 0 79.5 30t30.5 72v47q-29 -7 -66 -7q-73 0 -124 31zM146 192q50 -30 123 -30q37 0 66 7v170q-18 -30 -56.5 -53t-76.5 -44.5 t-56 -49.5z"/>
<glyph glyph-name="aacute" horiz-adv-x="509" unicode="á" d="M350 704q-15 -6 -48.5 -18.5t-68.5 -27t-70 -30.5l-1 3q43 19 102 51t79 41q6 2 10 2q9 0 9 -9q0 -8 -12 -12zM110 221q21 12 56.5 24t62.5 21.5t53.5 25t41.5 42t15 64.5q0 51 -32 79.5t-92 28.5q-63 0 -108.5 -43.5t-45.5 -113.5q0 -77 49 -128zM412 199 q108 65 108 209q0 35 -8.5 66.5t-20.5 51t-24 34t-21 20.5l-8 7v2q3 -2 9 -6.5t20.5 -21t25.5 -35.5t20 -51t9 -67q0 -147 -110 -212v-126q0 -23 12 -35t30 -12q19 0 32 13t15 34h3q-2 -28 -23.5 -54t-60.5 -26q-77 0 -84 96q-17 -38 -59.5 -67t-97.5 -29q-56 0 -95 32.5 t-39 88.5q0 73 63 109q-49 51 -49 129q0 74 52 123t130 49q85 0 128 -48t43 -137v-137zM145 191q-19 -30 -19 -73q0 -46 27 -73t72 -27q49 0 79.5 30t30.5 72v47q-29 -7 -66 -7q-73 0 -124 31zM146 192q50 -30 123 -30q37 0 66 7v170q-18 -30 -56.5 -53t-76.5 -44.5 t-56 -49.5z"/>
<glyph glyph-name="acircumflex" horiz-adv-x="509" unicode="â" d="M264 730q15 -12 43.5 -41t65.5 -60l-2 -2q-39 32 -71 54t-46 33q-14 -11 -46 -33t-71 -54l-2 2q37 31 64.5 59t44.5 42q6 4 10 4q6 0 10 -4zM110 221q21 12 56.5 24t62.5 21.5t53.5 25t41.5 42t15 64.5q0 51 -32 79.5t-92 28.5q-63 0 -108.5 -43.5t-45.5 -113.5 q0 -77 49 -128zM412 199q108 65 108 209q0 35 -8.5 66.5t-20.5 51t-24 34t-21 20.5l-8 7v2q3 -2 9 -6.5t20.5 -21t25.5 -35.5t20 -51t9 -67q0 -147 -110 -212v-126q0 -23 12 -35t30 -12q19 0 32 13t15 34h3q-2 -28 -23.5 -54t-60.5 -26q-77 0 -84 96q-17 -38 -59.5 -67 t-97.5 -29q-56 0 -95 32.5t-39 88.5q0 73 63 109q-49 51 -49 129q0 74 52 123t130 49q85 0 128 -48t43 -137v-137zM145 191q-19 -30 -19 -73q0 -46 27 -73t72 -27q49 0 79.5 30t30.5 72v47q-29 -7 -66 -7q-73 0 -124 31zM146 192q50 -30 123 -30q37 0 66 7v170 q-18 -30 -56.5 -53t-76.5 -44.5t-56 -49.5z"/>
<glyph glyph-name="atilde" horiz-adv-x="509" unicode="ã" d="M350 657q58 0 87 64h3q-18 -41 -40 -60t-58 -19q-29 0 -52.5 11t-37.5 24.5t-33 24.5t-39 11q-58 0 -87 -64h-3q18 41 40 60t58 19q32 0 77 -35.5t85 -35.5zM110 221q21 12 56.5 24t62.5 21.5t53.5 25t41.5 42t15 64.5q0 51 -32 79.5t-92 28.5q-63 0 -108.5 -43.5 t-45.5 -113.5q0 -77 49 -128zM412 199q108 65 108 209q0 35 -8.5 66.5t-20.5 51t-24 34t-21 20.5l-8 7v2q3 -2 9 -6.5t20.5 -21t25.5 -35.5t20 -51t9 -67q0 -147 -110 -212v-126q0 -23 12 -35t30 -12q19 0 32 13t15 34h3q-2 -28 -23.5 -54t-60.5 -26q-77 0 -84 96 q-17 -38 -59.5 -67t-97.5 -29q-56 0 -95 32.5t-39 88.5q0 73 63 109q-49 51 -49 129q0 74 52 123t130 49q85 0 128 -48t43 -137v-137zM145 191q-19 -30 -19 -73q0 -46 27 -73t72 -27q49 0 79.5 30t30.5 72v47q-29 -7 -66 -7q-73 0 -124 31zM146 192q50 -30 123 -30 q37 0 66 7v170q-18 -30 -56.5 -53t-76.5 -44.5t-56 -49.5z"/>
<glyph glyph-name="adieresis" horiz-adv-x="509" unicode="ä" d="M387 654q0 -22 -14.5 -36.5t-34.5 -14.5q-21 0 -34.5 14t-13.5 36t14 37t34 15q22 0 35.5 -14t13.5 -37zM228 654q0 -22 -14.5 -36.5t-34.5 -14.5q-21 0 -34.5 14t-13.5 36t14 37t34 15q22 0 35.5 -14t13.5 -37zM110 221q21 12 56.5 24t62.5 21.5t53.5 25t41.5 42 t15 64.5q0 51 -32 79.5t-92 28.5q-63 0 -108.5 -43.5t-45.5 -113.5q0 -77 49 -128zM412 199q108 65 108 209q0 35 -8.5 66.5t-20.5 51t-24 34t-21 20.5l-8 7v2q3 -2 9 -6.5t20.5 -21t25.5 -35.5t20 -51t9 -67q0 -147 -110 -212v-126q0 -23 12 -35t30 -12q19 0 32 13t15 34h3 q-2 -28 -23.5 -54t-60.5 -26q-77 0 -84 96q-17 -38 -59.5 -67t-97.5 -29q-56 0 -95 32.5t-39 88.5q0 73 63 109q-49 51 -49 129q0 74 52 123t130 49q85 0 128 -48t43 -137v-137zM145 191q-19 -30 -19 -73q0 -46 27 -73t72 -27q49 0 79.5 30t30.5 72v47q-29 -7 -66 -7 q-73 0 -124 31zM146 192q50 -30 123 -30q37 0 66 7v170q-18 -30 -56.5 -53t-76.5 -44.5t-56 -49.5z"/>
<glyph glyph-name="aring" horiz-adv-x="509" unicode="å" d="M174 682q0 -39 20 -64.5t57 -25.5t57.5 25.5t20.5 64.5t-20.5 65t-57.5 26t-57 -26t-20 -65zM158 682q0 39 27 66.5t66 27.5t66.5 -27.5t27.5 -66.5t-27.5 -66t-66.5 -27t-66 27t-27 66zM110 221q21 12 56.5 24t62.5 21.5t53.5 25t41.5 42t15 64.5q0 51 -32 79.5 t-92 28.5q-63 0 -108.5 -43.5t-45.5 -113.5q0 -77 49 -128zM412 199q108 65 108 209q0 35 -8.5 66.5t-20.5 51t-24 34t-21 20.5l-8 7v2q3 -2 9 -6.5t20.5 -21t25.5 -35.5t20 -51t9 -67q0 -147 -110 -212v-126q0 -23 12 -35t30 -12q19 0 32 13t15 34h3q-2 -28 -23.5 -54 t-60.5 -26q-77 0 -84 96q-17 -38 -59.5 -67t-97.5 -29q-56 0 -95 32.5t-39 88.5q0 73 63 109q-49 51 -49 129q0 74 52 123t130 49q85 0 128 -48t43 -137v-137zM145 191q-19 -30 -19 -73q0 -46 27 -73t72 -27q49 0 79.5 30t30.5 72v47q-29 -7 -66 -7q-73 0 -124 31zM146 192 q50 -30 123 -30q37 0 66 7v170q-18 -30 -56.5 -53t-76.5 -44.5t-56 -49.5z"/>
<glyph glyph-name="ae" horiz-adv-x="765" unicode="æ" d="M323 253q0 45 10 84q-18 -29 -56 -51.5t-75.5 -44.5t-55.5 -49q50 -30 123 -30q31 0 65 8q-11 37 -11 83zM470 45q42 -32 111 -32q71 0 111 34.5t40 85.5q0 45 -30 71t-80 26q-64 0 -108 -51t-44 -122v-12zM468 47v10q0 72 44.5 123.5t109.5 51.5q51 0 81.5 -26.5 t30.5 -72.5q0 -55 -47 -99t-134 -44q-40 0 -77 14q18 -78 83.5 -125.5t162.5 -47.5q117 0 196.5 72.5t79.5 186.5q0 54 -18 98t-45 70t-60.5 43.5t-62 24t-52.5 6.5v2q24 0 53 -6.5t62.5 -24.5t61 -44.5t45.5 -70.5t18 -98q0 -115 -79.5 -188t-198.5 -73q-99 0 -164.5 48 t-83.5 128q-81 32 -120 110q-13 -53 -57.5 -89t-117.5 -36q-56 0 -95 32.5t-39 88.5q0 73 63 109q-49 51 -49 129q0 74 49.5 123t126.5 49q99 0 148 -84q52 67 130 80q-25 77 -90.5 121.5t-154.5 44.5q-48 0 -88.5 -12t-64 -29.5t-39.5 -35t-22 -29.5l-6 -12h-2q2 5 6.5 13 t22 28.5t40 36.5t63.5 29t90 13q89 0 155.5 -45t91.5 -123q16 3 34 3q76 0 125 -36.5t49 -94.5q0 -49 -30.5 -78.5t-73.5 -43t-86 -26.5t-73.5 -40t-30.5 -71q0 -52 39 -83zM406 197q4 -30 8 -48q8 28 34.5 49.5t58.5 36.5t63 33t51.5 48t20.5 72q0 57 -24.5 93t-67.5 36 q-18 0 -34 -6q11 -38 11 -78q0 -82 -32.5 -142t-88.5 -94zM514 511q-52 -20 -81 -92.5t-29 -170.5q0 -19 2 -49q55 34 87 93.5t32 140.5q0 40 -11 78zM110 221q21 12 56.5 24t62.5 21.5t53.5 25t41.5 42t15 64.5q0 51 -32 79.5t-92 28.5q-63 0 -108.5 -43.5t-45.5 -113.5 q0 -77 49 -128zM335 168q-34 -8 -66 -8q-73 0 -124 31q-19 -30 -19 -73q0 -46 28 -73.5t73 -27.5q53 0 84.5 28t31.5 79q0 16 -8 44z"/>
<glyph glyph-name="ccedilla" horiz-adv-x="471" unicode="ç" d="M202 -81l67 71q-98 1 -161 77t-63 186q0 11 2 35q-57 63 -57 158q0 111 67 170t155 59q81 0 129 -44t48 -108q0 -17 -3 -30q56 -40 56 -109q0 -86 -59 -128.5t-145 -42.5q-60 0 -109 19q6 -101 54 -164.5t123 -63.5q49 0 86.5 31.5t44.5 85.5h4q-6 -58 -51 -94t-118 -37 l-64 -68q21 15 63 15q39 0 63.5 -14.5t24.5 -43.5q0 -30 -27.5 -49.5t-68.5 -19.5q-38 0 -60 15.5t-22 33.5q0 8 6 14.5t14 6.5q9 0 15 -5.5t6 -13.5t-6 -13t-13 -5q-5 0 -11 3l-1 1q-2 0 -2 -2q0 -5 7 -12t22.5 -13.5t35.5 -6.5q39 0 60 17t21 46q0 58 -74 58q-17 0 -30 -4 t-18 -8l-5 -3h-6zM129 234q45 -19 109 -19q85 0 143.5 42t58.5 127q0 64 -55 101q-11 -48 -48.5 -76t-81.5 -28q-59 0 -95 33q-32 -64 -32 -156q0 -4 0.5 -12t0.5 -12zM383 486q-35 22 -75 22q-99 0 -147 -92q38 -33 94 -33q44 0 80 27.5t48 75.5zM385 494q2 9 2 29 q0 63 -47.5 106.5t-127.5 43.5q-87 0 -153.5 -58.5t-66.5 -168.5q0 -92 55 -155q12 104 81 170q-6 18 -6 38q0 30 10.5 52.5t24.5 33.5t30.5 18t26 8.5t14.5 1.5v-2q-5 0 -14 -1.5t-26 -8t-30 -17.5t-23.5 -33.5t-10.5 -51.5q0 -21 6 -37q64 61 151 61q62 0 104 -29z"/>
<glyph glyph-name="egrave" horiz-adv-x="489" unicode="è" d="M162 704q-12 4 -12 12q0 9 9 9q4 0 10 -2q20 -9 79 -41t102 -51l-1 -3q-35 16 -70 30.5t-68.5 27t-48.5 18.5zM274 517q-68 0 -107 -77t-39 -192q0 -56 10 -99q8 28 34.5 49.5t58.5 36.5t63 33t51.5 48t20.5 72q0 57 -24.5 93t-67.5 36zM446 -169q117 0 196.5 72.5 t79.5 186.5q0 54 -18 98t-45 70t-60.5 43.5t-62 24t-52.5 6.5v2q24 0 53 -6.5t62.5 -24.5t61 -44.5t45.5 -70.5t18 -98q0 -115 -79.5 -188t-198.5 -73q-99 0 -164.5 48t-83.5 128q-69 27 -111 94.5t-42 153.5q0 111 65.5 189t163.5 78q76 0 124.5 -36.5t48.5 -94.5 q0 -49 -30.5 -78.5t-73.5 -43t-86 -26.5t-73.5 -40t-30.5 -71q0 -52 39 -83v10q0 72 44.5 123.5t109.5 51.5q51 0 81.5 -26.5t30.5 -72.5q0 -55 -47 -99t-134 -44q-40 0 -77 14q18 -78 83.5 -125.5t162.5 -47.5zM194 45q42 -32 111 -32q71 0 111 34.5t40 85.5q0 45 -30 71 t-80 26q-64 0 -108 -51t-44 -122v-12z"/>
<glyph glyph-name="eacute" horiz-adv-x="489" unicode="é" d="M355 704q-15 -6 -48.5 -18.5t-68.5 -27t-70 -30.5l-1 3q43 19 102 51t79 41q6 2 10 2q9 0 9 -9q0 -8 -12 -12zM274 517q-68 0 -107 -77t-39 -192q0 -56 10 -99q8 28 34.5 49.5t58.5 36.5t63 33t51.5 48t20.5 72q0 57 -24.5 93t-67.5 36zM446 -169q117 0 196.5 72.5 t79.5 186.5q0 54 -18 98t-45 70t-60.5 43.5t-62 24t-52.5 6.5v2q24 0 53 -6.5t62.5 -24.5t61 -44.5t45.5 -70.5t18 -98q0 -115 -79.5 -188t-198.5 -73q-99 0 -164.5 48t-83.5 128q-69 27 -111 94.5t-42 153.5q0 111 65.5 189t163.5 78q76 0 124.5 -36.5t48.5 -94.5 q0 -49 -30.5 -78.5t-73.5 -43t-86 -26.5t-73.5 -40t-30.5 -71q0 -52 39 -83v10q0 72 44.5 123.5t109.5 51.5q51 0 81.5 -26.5t30.5 -72.5q0 -55 -47 -99t-134 -44q-40 0 -77 14q18 -78 83.5 -125.5t162.5 -47.5zM194 45q42 -32 111 -32q71 0 111 34.5t40 85.5q0 45 -30 71 t-80 26q-64 0 -108 -51t-44 -122v-12z"/>
<glyph glyph-name="ecircumflex" horiz-adv-x="489" unicode="ê" d="M270 730q15 -12 43.5 -41t65.5 -60l-2 -2q-39 32 -71 54t-46 33q-14 -11 -46 -33t-71 -54l-2 2q37 31 64.5 59t44.5 42q6 4 10 4q6 0 10 -4zM274 517q-68 0 -107 -77t-39 -192q0 -56 10 -99q8 28 34.5 49.5t58.5 36.5t63 33t51.5 48t20.5 72q0 57 -24.5 93t-67.5 36z M446 -169q117 0 196.5 72.5t79.5 186.5q0 54 -18 98t-45 70t-60.5 43.5t-62 24t-52.5 6.5v2q24 0 53 -6.5t62.5 -24.5t61 -44.5t45.5 -70.5t18 -98q0 -115 -79.5 -188t-198.5 -73q-99 0 -164.5 48t-83.5 128q-69 27 -111 94.5t-42 153.5q0 111 65.5 189t163.5 78 q76 0 124.5 -36.5t48.5 -94.5q0 -49 -30.5 -78.5t-73.5 -43t-86 -26.5t-73.5 -40t-30.5 -71q0 -52 39 -83v10q0 72 44.5 123.5t109.5 51.5q51 0 81.5 -26.5t30.5 -72.5q0 -55 -47 -99t-134 -44q-40 0 -77 14q18 -78 83.5 -125.5t162.5 -47.5zM194 45q42 -32 111 -32 q71 0 111 34.5t40 85.5q0 45 -30 71t-80 26q-64 0 -108 -51t-44 -122v-12z"/>
<glyph glyph-name="edieresis" horiz-adv-x="489" unicode="ë" d="M391 654q0 -22 -14.5 -36.5t-34.5 -14.5q-21 0 -34.5 14t-13.5 36t14 37t34 15q22 0 35.5 -14t13.5 -37zM232 654q0 -22 -14.5 -36.5t-34.5 -14.5q-21 0 -34.5 14t-13.5 36t14 37t34 15q22 0 35.5 -14t13.5 -37zM274 517q-68 0 -107 -77t-39 -192q0 -56 10 -99 q8 28 34.5 49.5t58.5 36.5t63 33t51.5 48t20.5 72q0 57 -24.5 93t-67.5 36zM446 -169q117 0 196.5 72.5t79.5 186.5q0 54 -18 98t-45 70t-60.5 43.5t-62 24t-52.5 6.5v2q24 0 53 -6.5t62.5 -24.5t61 -44.5t45.5 -70.5t18 -98q0 -115 -79.5 -188t-198.5 -73q-99 0 -164.5 48 t-83.5 128q-69 27 -111 94.5t-42 153.5q0 111 65.5 189t163.5 78q76 0 124.5 -36.5t48.5 -94.5q0 -49 -30.5 -78.5t-73.5 -43t-86 -26.5t-73.5 -40t-30.5 -71q0 -52 39 -83v10q0 72 44.5 123.5t109.5 51.5q51 0 81.5 -26.5t30.5 -72.5q0 -55 -47 -99t-134 -44q-40 0 -77 14 q18 -78 83.5 -125.5t162.5 -47.5zM194 45q42 -32 111 -32q71 0 111 34.5t40 85.5q0 45 -30 71t-80 26q-64 0 -108 -51t-44 -122v-12z"/>
<glyph glyph-name="igrave" horiz-adv-x="222" unicode="ì" d="M7 704q-12 4 -12 12q0 9 9 9q4 0 10 -2q20 -9 79 -41t102 -51l-1 -3q-35 16 -70 30.5t-68.5 27t-48.5 18.5zM155 507v-504h62v-3h-202v3h63v501h-63v3h140z"/>
<glyph glyph-name="iacute" horiz-adv-x="222" unicode="í" d="M199 704q-15 -6 -48.5 -18.5t-68.5 -27t-70 -30.5l-1 3q43 19 102 51t79 41q6 2 10 2q9 0 9 -9q0 -8 -12 -12zM155 507v-504h62v-3h-202v3h63v501h-63v3h140z"/>
<glyph glyph-name="icircumflex" horiz-adv-x="222" unicode="î" d="M121 730q15 -12 43.5 -41t65.5 -60l-2 -2q-39 32 -71 54t-46 33q-14 -11 -46 -33t-71 -54l-2 2q37 31 64.5 59t44.5 42q6 4 10 4q6 0 10 -4zM155 507v-504h62v-3h-202v3h63v501h-63v3h140z"/>
<glyph glyph-name="idieresis" horiz-adv-x="222" unicode="ï" d="M239 654q0 -22 -14.5 -36.5t-34.5 -14.5q-21 0 -34.5 14t-13.5 36t14 37t34 15q22 0 35.5 -14t13.5 -37zM80 654q0 -22 -14.5 -36.5t-34.5 -14.5q-21 0 -34.5 14t-13.5 36t14 37t34 15q22 0 35.5 -14t13.5 -37zM155 507v-504h62v-3h-202v3h63v501h-63v3h140z"/>
<glyph glyph-name="eth" horiz-adv-x="547" unicode="ð" d="M421 258q0 54 -5.5 93t-19.5 72t-41 49.5t-67 16.5q-76 0 -118 -67.5t-42 -177.5t41 -179.5t117 -69.5q65 0 100 70.5t35 192.5zM272 -10q-101 0 -164 71t-63 178q0 108 65 184.5t161 76.5q85 0 130 -68q-30 106 -90 174l-125 -61v5l122 60q-62 68 -133 88v4 q82 -24 153 -82l121 60v-5l-117 -58q76 -62 123 -152t47 -201q0 -126 -63.5 -200t-166.5 -74z"/>
<glyph glyph-name="ntilde" horiz-adv-x="551" unicode="ñ" d="M352 657q58 0 87 64h3q-18 -41 -40 -60t-58 -19q-29 0 -52.5 11t-37.5 24.5t-33 24.5t-39 11q-58 0 -87 -64h-3q18 41 40 60t58 19q32 0 77 -35.5t85 -35.5zM487 296v2q3 -1 7 -2.5t15 -9t19 -17.5t15 -29t7 -43q0 -45 -24.5 -78.5t-66.5 -45.5q18 -130 140 -130 q83 0 140.5 67t57.5 173q0 113 -75 189t-191 76q-49 0 -93 -14q18 -44 18 -107v-214q0 -26 2 -38q41 12 65.5 44.5t24.5 77.5q0 24 -6.5 43t-15 29t-17.5 16.5t-15 8.5zM378 405q-50 -32 -78 -82t-28 -109q0 -58 30.5 -96.5t83.5 -46.5q-8 35 -8 73v254v7zM378 408 q-3 45 -29 69.5t-70 24.5q-54 0 -89 -42.5t-35 -96.5v-360h62v-3h-202v3h63v501h-63v3h140v-96q15 42 56.5 74t98.5 32q92 0 127 -82q48 15 94 15q117 0 192.5 -76.5t75.5 -190.5q0 -115 -67 -186t-168 -71q-71 0 -116.5 38t-61.5 105q-54 8 -85 47t-31 98q0 60 28.5 110.5 t79.5 83.5z"/>
<glyph glyph-name="ograve" horiz-adv-x="557" unicode="ò" d="M190 704q-12 4 -12 12q0 9 9 9q4 0 10 -2q20 -9 79 -41t102 -51l-1 -3q-35 16 -70 30.5t-68.5 27t-48.5 18.5zM402 424q-25 6 -56 6q-83 0 -139 -50.5t-56 -127.5q0 -55 30.5 -88.5t83.5 -33.5q48 0 78 30t30 78q0 32 -12.5 53t-24.5 26l-12 5v2q2 -1 5.5 -2t12.5 -7.5 t15.5 -15t12 -25t5.5 -36.5q0 -49 -30.5 -79.5t-79.5 -30.5q-53 0 -84.5 34.5t-31.5 89.5q0 78 57 129t140 51q30 0 55 -6q-38 88 -120 88q-75 0 -114 -71t-39 -186q0 -111 50 -184.5t129 -73.5q101 0 173.5 61.5t72.5 168.5q0 94 -62 150q21 -49 21 -111 q0 -101 -59.5 -170.5t-148.5 -69.5q-33 0 -57.5 9t-32.5 17l-9 9v2q3 -4 9 -9.5t30 -14.5t54 -9h1q65 0 97.5 64t32.5 167q0 97 -27 161zM489 383q66 -58 66 -154q0 -109 -76.5 -173.5t-184.5 -64.5q-101 0 -175 76.5t-74 184.5q0 110 69.5 188t166.5 78q71 0 125.5 -36 t82.5 -99z"/>
<glyph glyph-name="oacute" horiz-adv-x="557" unicode="ó" d="M376 704q-15 -6 -48.5 -18.5t-68.5 -27t-70 -30.5l-1 3q43 19 102 51t79 41q6 2 10 2q9 0 9 -9q0 -8 -12 -12zM402 424q-25 6 -56 6q-83 0 -139 -50.5t-56 -127.5q0 -55 30.5 -88.5t83.5 -33.5q48 0 78 30t30 78q0 32 -12.5 53t-24.5 26l-12 5v2q2 -1 5.5 -2t12.5 -7.5 t15.5 -15t12 -25t5.5 -36.5q0 -49 -30.5 -79.5t-79.5 -30.5q-53 0 -84.5 34.5t-31.5 89.5q0 78 57 129t140 51q30 0 55 -6q-38 88 -120 88q-75 0 -114 -71t-39 -186q0 -111 50 -184.5t129 -73.5q101 0 173.5 61.5t72.5 168.5q0 94 -62 150q21 -49 21 -111 q0 -101 -59.5 -170.5t-148.5 -69.5q-33 0 -57.5 9t-32.5 17l-9 9v2q3 -4 9 -9.5t30 -14.5t54 -9h1q65 0 97.5 64t32.5 167q0 97 -27 161zM489 383q66 -58 66 -154q0 -109 -76.5 -173.5t-184.5 -64.5q-101 0 -175 76.5t-74 184.5q0 110 69.5 188t166.5 78q71 0 125.5 -36 t82.5 -99z"/>
<glyph glyph-name="ocircumflex" horiz-adv-x="557" unicode="ô" d="M288 730q15 -12 43.5 -41t65.5 -60l-2 -2q-39 32 -71 54t-46 33q-14 -11 -46 -33t-71 -54l-2 2q37 31 64.5 59t44.5 42q6 4 10 4q6 0 10 -4zM402 424q-25 6 -56 6q-83 0 -139 -50.5t-56 -127.5q0 -55 30.5 -88.5t83.5 -33.5q48 0 78 30t30 78q0 32 -12.5 53t-24.5 26 l-12 5v2q2 -1 5.5 -2t12.5 -7.5t15.5 -15t12 -25t5.5 -36.5q0 -49 -30.5 -79.5t-79.5 -30.5q-53 0 -84.5 34.5t-31.5 89.5q0 78 57 129t140 51q30 0 55 -6q-38 88 -120 88q-75 0 -114 -71t-39 -186q0 -111 50 -184.5t129 -73.5q101 0 173.5 61.5t72.5 168.5q0 94 -62 150 q21 -49 21 -111q0 -101 -59.5 -170.5t-148.5 -69.5q-33 0 -57.5 9t-32.5 17l-9 9v2q3 -4 9 -9.5t30 -14.5t54 -9h1q65 0 97.5 64t32.5 167q0 97 -27 161zM489 383q66 -58 66 -154q0 -109 -76.5 -173.5t-184.5 -64.5q-101 0 -175 76.5t-74 184.5q0 110 69.5 188t166.5 78 q71 0 125.5 -36t82.5 -99z"/>
<glyph glyph-name="otilde" horiz-adv-x="557" unicode="õ" d="M367 657q58 0 87 64h3q-18 -41 -40 -60t-58 -19q-29 0 -52.5 11t-37.5 24.5t-33 24.5t-39 11q-58 0 -87 -64h-3q18 41 40 60t58 19q32 0 77 -35.5t85 -35.5zM402 424q-25 6 -56 6q-83 0 -139 -50.5t-56 -127.5q0 -55 30.5 -88.5t83.5 -33.5q48 0 78 30t30 78 q0 32 -12.5 53t-24.5 26l-12 5v2q2 -1 5.5 -2t12.5 -7.5t15.5 -15t12 -25t5.5 -36.5q0 -49 -30.5 -79.5t-79.5 -30.5q-53 0 -84.5 34.5t-31.5 89.5q0 78 57 129t140 51q30 0 55 -6q-38 88 -120 88q-75 0 -114 -71t-39 -186q0 -111 50 -184.5t129 -73.5q101 0 173.5 61.5 t72.5 168.5q0 94 -62 150q21 -49 21 -111q0 -101 -59.5 -170.5t-148.5 -69.5q-33 0 -57.5 9t-32.5 17l-9 9v2q3 -4 9 -9.5t30 -14.5t54 -9h1q65 0 97.5 64t32.5 167q0 97 -27 161zM489 383q66 -58 66 -154q0 -109 -76.5 -173.5t-184.5 -64.5q-101 0 -175 76.5t-74 184.5 q0 110 69.5 188t166.5 78q71 0 125.5 -36t82.5 -99z"/>
<glyph glyph-name="odieresis" horiz-adv-x="557" unicode="ö" d="M408 654q0 -22 -14.5 -36.5t-34.5 -14.5q-21 0 -34.5 14t-13.5 36t14 37t34 15q22 0 35.5 -14t13.5 -37zM249 654q0 -22 -14.5 -36.5t-34.5 -14.5q-21 0 -34.5 14t-13.5 36t14 37t34 15q22 0 35.5 -14t13.5 -37zM402 424q-25 6 -56 6q-83 0 -139 -50.5t-56 -127.5 q0 -55 30.5 -88.5t83.5 -33.5q48 0 78 30t30 78q0 32 -12.5 53t-24.5 26l-12 5v2q2 -1 5.5 -2t12.5 -7.5t15.5 -15t12 -25t5.5 -36.5q0 -49 -30.5 -79.5t-79.5 -30.5q-53 0 -84.5 34.5t-31.5 89.5q0 78 57 129t140 51q30 0 55 -6q-38 88 -120 88q-75 0 -114 -71t-39 -186 q0 -111 50 -184.5t129 -73.5q101 0 173.5 61.5t72.5 168.5q0 94 -62 150q21 -49 21 -111q0 -101 -59.5 -170.5t-148.5 -69.5q-33 0 -57.5 9t-32.5 17l-9 9v2q3 -4 9 -9.5t30 -14.5t54 -9h1q65 0 97.5 64t32.5 167q0 97 -27 161zM489 383q66 -58 66 -154q0 -109 -76.5 -173.5 t-184.5 -64.5q-101 0 -175 76.5t-74 184.5q0 110 69.5 188t166.5 78q71 0 125.5 -36t82.5 -99z"/>
<glyph glyph-name="divide" d="M231 91q0 8 5.5 14t13.5 6t14 -6t6 -14t-6 -13.5t-14 -5.5q-19 0 -19 19zM231 433q0 8 5.5 14t13.5 6t14 -6t6 -14t-6 -13.5t-14 -5.5q-19 0 -19 19zM450 264v-3q-68 0 -122 -2.5t-78 -2.5q-28 0 -81.5 2.5t-118.5 2.5v3q65 0 118.5 2.5t81.5 2.5q24 0 78 -2.5t122 -2.5z " unicode="÷"/>
<glyph glyph-name="oslash" horiz-adv-x="557" unicode="ø" d="M460 579h2q-13 -23 -31.5 -56.5t-22.5 -41.5q53 -35 81 -98q66 -58 66 -154q0 -109 -76.5 -173.5t-184.5 -64.5q-73 0 -135 43q-18 -33 -55 -98h-2q11 19 28.5 52t25.5 47q-51 36 -81 93t-30 124q0 110 69.5 188t166.5 78q70 0 125 -36q4 7 23 41t31 56zM219 137 q-9 -15 -39 -67q14 -20 39.5 -34t54 -24t33.5 -13q101 0 173.5 61.5t72.5 168.5q0 94 -62 150q21 -49 21 -111q0 -101 -59.5 -170.5t-148.5 -69.5q-33 0 -57.5 9t-32.5 17l-9 9v2q3 -4 9 -9.5t30 -14.5t54 -9h1q65 0 97.5 64t32.5 167q0 97 -27 161q-7 2 -23 4 q-10 -18 -39 -75t-51 -96q-29 -50 -69 -118q25 -14 56 -14q48 0 76.5 30t28.5 78q0 17 -4.5 31t-10.5 22t-12.5 13t-11.5 7l-4 2v2q5 -2 12.5 -6t20 -23.5t12.5 -47.5q0 -49 -29.5 -79.5t-77.5 -30.5q-32 0 -57 14zM213 140q-56 35 -56 112q0 79 53.5 129.5t135.5 50.5 q10 0 30 -2l12 21q-39 63 -107 63q-75 0 -114 -71t-39 -186q0 -110 49 -183q5 9 17.5 32t18.5 34zM214 142q41 77 62 115q19 35 99 171q-18 2 -29 2q-82 0 -134.5 -50t-52.5 -128q0 -74 55 -110zM390 447q-2 -3 -5.5 -8.5t-4.5 -8.5q4 0 11 -2t10 -2q-3 7 -11 21z"/>
<glyph glyph-name="ugrave" horiz-adv-x="572" unicode="ù" d="M166 704q-12 4 -12 12q0 9 9 9q4 0 10 -2q20 -9 79 -41t102 -51l-1 -3q-35 16 -70 30.5t-68.5 27t-48.5 18.5zM307 8v5q0 55 -32 88t-77 33q-9 0 -25 -2v-19q0 -49 29.5 -78.5t76.5 -29.5q15 0 28 3zM309 8q40 10 63.5 43t23.5 78q0 89 -61 137t-146 48h-16v-180 q16 2 25 2q46 0 78.5 -33.5t32.5 -89.5v-5zM173 316h16q76 0 135 -39t72 -112v339h-62v3h138v-437q0 -23 12.5 -35t30.5 -12q17 0 30 13t14 34h3q-2 -28 -24 -54t-62 -26q-34 0 -56 27t-24 83q-15 -73 -88 -100q-5 -57 -48.5 -94t-114.5 -37q-81 0 -140 55.5t-59 163.5 q0 75 39 132.5t110 81.5v135q0 23 -12.5 35t-30.5 12q-17 0 -30 -13t-14 -34h-3q2 28 24 54t62 26q39 0 60.5 -29t21.5 -82v-90zM95 300q-70 -23 -108.5 -80t-38.5 -132q0 -107 58.5 -162t138.5 -55q69 0 112.5 36t48.5 92q-26 -9 -58 -9q-103 0 -139 102q-15 -24 -15 -48 h-2q0 27 16 50q-13 38 -13 90v116z"/>
<glyph glyph-name="uacute" horiz-adv-x="572" unicode="ú" d="M362 704q-15 -6 -48.5 -18.5t-68.5 -27t-70 -30.5l-1 3q43 19 102 51t79 41q6 2 10 2q9 0 9 -9q0 -8 -12 -12zM307 8v5q0 55 -32 88t-77 33q-9 0 -25 -2v-19q0 -49 29.5 -78.5t76.5 -29.5q15 0 28 3zM309 8q40 10 63.5 43t23.5 78q0 89 -61 137t-146 48h-16v-180 q16 2 25 2q46 0 78.5 -33.5t32.5 -89.5v-5zM173 316h16q76 0 135 -39t72 -112v339h-62v3h138v-437q0 -23 12.5 -35t30.5 -12q17 0 30 13t14 34h3q-2 -28 -24 -54t-62 -26q-34 0 -56 27t-24 83q-15 -73 -88 -100q-5 -57 -48.5 -94t-114.5 -37q-81 0 -140 55.5t-59 163.5 q0 75 39 132.5t110 81.5v135q0 23 -12.5 35t-30.5 12q-17 0 -30 -13t-14 -34h-3q2 28 24 54t62 26q39 0 60.5 -29t21.5 -82v-90zM95 300q-70 -23 -108.5 -80t-38.5 -132q0 -107 58.5 -162t138.5 -55q69 0 112.5 36t48.5 92q-26 -9 -58 -9q-103 0 -139 102q-15 -24 -15 -48 h-2q0 27 16 50q-13 38 -13 90v116z"/>
<glyph glyph-name="ucircumflex" horiz-adv-x="572" unicode="û" d="M264 730q15 -12 43.5 -41t65.5 -60l-2 -2q-39 32 -71 54t-46 33q-14 -11 -46 -33t-71 -54l-2 2q37 31 64.5 59t44.5 42q6 4 10 4q6 0 10 -4zM307 8v5q0 55 -32 88t-77 33q-9 0 -25 -2v-19q0 -49 29.5 -78.5t76.5 -29.5q15 0 28 3zM309 8q40 10 63.5 43t23.5 78 q0 89 -61 137t-146 48h-16v-180q16 2 25 2q46 0 78.5 -33.5t32.5 -89.5v-5zM173 316h16q76 0 135 -39t72 -112v339h-62v3h138v-437q0 -23 12.5 -35t30.5 -12q17 0 30 13t14 34h3q-2 -28 -24 -54t-62 -26q-34 0 -56 27t-24 83q-15 -73 -88 -100q-5 -57 -48.5 -94t-114.5 -37 q-81 0 -140 55.5t-59 163.5q0 75 39 132.5t110 81.5v135q0 23 -12.5 35t-30.5 12q-17 0 -30 -13t-14 -34h-3q2 28 24 54t62 26q39 0 60.5 -29t21.5 -82v-90zM95 300q-70 -23 -108.5 -80t-38.5 -132q0 -107 58.5 -162t138.5 -55q69 0 112.5 36t48.5 92q-26 -9 -58 -9 q-103 0 -139 102q-15 -24 -15 -48h-2q0 27 16 50q-13 38 -13 90v116z"/>
<glyph glyph-name="udieresis" horiz-adv-x="572" unicode="ü" d="M383 654q0 -22 -14.5 -36.5t-34.5 -14.5q-21 0 -34.5 14t-13.5 36t14 37t34 15q22 0 35.5 -14t13.5 -37zM224 654q0 -22 -14.5 -36.5t-34.5 -14.5q-21 0 -34.5 14t-13.5 36t14 37t34 15q22 0 35.5 -14t13.5 -37zM307 8v5q0 55 -32 88t-77 33q-9 0 -25 -2v-19 q0 -49 29.5 -78.5t76.5 -29.5q15 0 28 3zM309 8q40 10 63.5 43t23.5 78q0 89 -61 137t-146 48h-16v-180q16 2 25 2q46 0 78.5 -33.5t32.5 -89.5v-5zM173 316h16q76 0 135 -39t72 -112v339h-62v3h138v-437q0 -23 12.5 -35t30.5 -12q17 0 30 13t14 34h3q-2 -28 -24 -54 t-62 -26q-34 0 -56 27t-24 83q-15 -73 -88 -100q-5 -57 -48.5 -94t-114.5 -37q-81 0 -140 55.5t-59 163.5q0 75 39 132.5t110 81.5v135q0 23 -12.5 35t-30.5 12q-17 0 -30 -13t-14 -34h-3q2 28 24 54t62 26q39 0 60.5 -29t21.5 -82v-90zM95 300q-70 -23 -108.5 -80 t-38.5 -132q0 -107 58.5 -162t138.5 -55q69 0 112.5 36t48.5 92q-26 -9 -58 -9q-103 0 -139 102q-15 -24 -15 -48h-2q0 27 16 50q-13 38 -13 90v116z"/>
<glyph glyph-name="yacute" horiz-adv-x="509" unicode="ý" d="M384 704q-15 -6 -48.5 -18.5t-68.5 -27t-70 -30.5l-1 3q43 19 102 51t79 41q6 2 10 2q9 0 9 -9q0 -8 -12 -12zM354 545q-55 0 -85.5 -33t-30.5 -86q0 -62 43 -101t114 -39q14 0 21 1q49 81 49 145q0 49 -29.5 81t-81.5 32zM419 285q-24 -40 -79.5 -114.5t-87 -130 t-31.5 -101.5q0 -10 9 -10q2 0 13 4t21 4q20 0 35.5 -14.5t15.5 -38.5q0 -22 -14.5 -37t-37.5 -15q-26 0 -42.5 19t-16.5 48q0 67 56 164l-204 441h-56v3h204v-3h-69l172 -373q99 139 108 154q-7 -1 -20 -1q-72 0 -115.5 40t-43.5 102q0 53 31.5 87t86.5 34q53 0 83.5 -32.5 t30.5 -82.5q0 -62 -48 -144q70 9 116 61.5t46 136.5q0 80 -54.5 128.5t-138.5 48.5q-37 0 -67.5 -8.5t-47.5 -20.5t-29 -24.5t-17 -21.5l-4 -8h-2q1 3 4.5 9t16.5 20.5t30 26t48 20.5t68 9q85 0 140 -49t55 -130q0 -85 -47 -138.5t-118 -62.5z"/>
<glyph glyph-name="thorn" horiz-adv-x="548" unicode="þ" d="M140 82v-225h62v-3h-202v3h63v840h-63v3h140v-566q0 -57 33.5 -90t86.5 -33q61 0 100 44.5t53 122.5q-9 -1 -28 -1q-102 0 -168.5 52.5t-66.5 141.5q0 57 28.5 95.5t81.5 49.5q-2 16 -2 26q0 72 51.5 118t130.5 46q98 0 162.5 -67t64.5 -177q0 -90 -46 -162t-125 -103 q-19 -87 -79 -142t-140 -55q-48 0 -84 22.5t-53 59.5zM462 430q41 -65 41 -164q0 -29 -7 -66q78 31 123.5 101.5t45.5 160.5q0 109 -64 175.5t-161 66.5q-78 0 -129 -45t-51 -117q0 -9 2 -25q16 3 37 3q105 0 162 -89q12 10 21.5 23t12.5 21l3 8h2q-9 -30 -38 -53zM264 506 q11 -45 44 -72t80 -27h6q-42 99 -124 99h-6zM262 506q-47 -3 -78 -40t-31 -97q0 -87 65.5 -138.5t166.5 -51.5q20 0 29 1q6 38 6 81q0 83 -25 144h-7q-47 0 -81 27.5t-45 73.5z"/>
<glyph glyph-name="OE" horiz-adv-x="985" unicode="Œ" d="M352 -7q118 0 174.5 98.5t56.5 256.5q0 152 -59.5 255t-171.5 103q-118 0 -174.5 -98t-56.5 -256q0 -138 49 -237.5t143 -117.5q-30 9 -48 33.5t-18 59.5q0 37 23.5 61.5t59.5 24.5q35 0 58 -22.5t23 -56.5q0 -24 -11.5 -41t-23.5 -22l-11 -5v2q5 2 12.5 5.5t19.5 20.5 t12 40q0 34 -22 55.5t-57 21.5t-58 -23.5t-23 -60.5q0 -43 28.5 -70t74.5 -27zM674 352h26q70 0 101.5 31.5t31.5 79.5q0 44 -21 69.5t-60 25.5q-30 0 -48 -18t-18 -46q0 -26 16 -42.5t41 -16.5q18 0 30 8t15 16l4 8h2q-1 -4 -3.5 -9.5t-15.5 -15t-32 -9.5q-26 0 -42.5 17 t-16.5 44q0 29 18.5 47.5t49.5 18.5q40 0 62.5 -27t22.5 -73v-219h-3q-7 54 -37.5 81t-96.5 27h-26q-1 -127 -63 -220.5t-165 -125.5h301q86 0 123 38t53 133h2v-174h-449q-20 0 -65.5 -5.5t-58.5 -5.5q-153 0 -237.5 99t-84.5 258q0 157 90.5 260.5t231.5 103.5q15 0 64 -5 t69 -5h430v-174h-2q-16 95 -53 133t-123 38h-286q107 -30 165 -122t58 -223z"/>
<glyph glyph-name="oe" horiz-adv-x="873" unicode="œ" d="M658 517q-68 0 -107 -77t-39 -192q0 -56 10 -99q8 28 34.5 49.5t58.5 36.5t63 33t51.5 48t20.5 72q0 57 -24.5 93t-67.5 36zM582 5q-72 29 -112 101q-32 -53 -83.5 -84t-110.5 -31q-100 0 -165.5 70.5t-65.5 179.5q0 101 59.5 170.5t148.5 69.5q33 0 57.5 -8.5 t33.5 -17.5l8 -9v-2q-3 4 -9 9.5t-30 14.5t-54 9h-1q-65 0 -97.5 -64t-32.5 -167q0 -114 38 -182.5t110 -68.5q75 0 114 71t39 186q0 112 -50 185t-132 73q-29 0 -52.5 -4t-32.5 -8l-9 -5v3q42 22 110 22q62 0 116.5 -32t88.5 -86q30 56 79.5 88t110.5 32q76 0 124.5 -36.5 t48.5 -94.5q0 -49 -30.5 -78.5t-73.5 -43t-86 -26.5t-73.5 -40t-30.5 -71q0 -52 39 -83v10q0 72 44.5 123.5t109.5 51.5q51 0 81.5 -26.5t30.5 -72.5q0 -55 -47 -99t-134 -44q-40 0 -77 14q18 -78 83.5 -125.5t162.5 -47.5q117 0 196.5 72.5t79.5 186.5q0 54 -18 98t-45 70 t-60.5 43.5t-62 24t-52.5 6.5v2q24 0 53 -6.5t62.5 -24.5t61 -44.5t45.5 -70.5t18 -98q0 -115 -79.5 -188t-198.5 -73q-99 0 -164.5 48t-83.5 128zM578 45q42 -32 111 -32q71 0 111 34.5t40 85.5q0 45 -30 71t-80 26q-64 0 -108 -51t-44 -122v-12z"/>
<glyph glyph-name="Scaron" horiz-adv-x="513" unicode="Š" d="M274 780q-9 -9 -20 0q-17 14 -44.5 42t-64.5 59l2 2q39 -32 71 -54t46 -33q14 11 46 33t71 54l2 -2q-37 -31 -65.5 -60t-43.5 -41zM464 710v-196q0 -51 -24.5 -80.5t-65.5 -29.5q-31 0 -50 17.5t-19 46.5q0 27 16.5 44t42.5 17q19 0 31.5 -8.5t16.5 -16.5l3 -9h-2 q-1 4 -3.5 9t-15 14t-30.5 9q-25 0 -41 -16.5t-16 -42.5q0 -28 18 -45t49 -17q40 0 62 28t22 76q0 88 -57.5 142t-139.5 54q-72 0 -113 -40.5t-41 -101.5q0 -45 20.5 -77.5t54 -52t73.5 -35t80 -32t73.5 -37.5t54 -56.5t20.5 -83.5q0 -87 -63.5 -143.5t-155.5 -56.5 q-61 0 -115 27t-80 27q-35 0 -35 -36h-4v209h4q17 -99 78.5 -161t151.5 -62q73 0 112.5 41t39.5 106q0 44 -20.5 77t-54 52t-73 35t-79.5 32.5t-73.5 37.5t-54 57t-20.5 84q0 89 60 141.5t160 52.5q48 0 96.5 -18.5t68.5 -18.5q16 0 25.5 10t9.5 27h3z"/>
<glyph glyph-name="scaron" horiz-adv-x="442" unicode="š" d="M236 637q-9 -9 -20 0q-17 14 -44.5 42t-64.5 59l2 2q39 -32 71 -54t46 -33q14 11 46 33t71 54l2 -2q-37 -31 -65.5 -60t-43.5 -41zM45 89q-40 24 -67.5 78.5t-27.5 123.5q0 138 86.5 227.5t235.5 89.5q142 0 224 -78t82 -193q0 -89 -49.5 -148t-127.5 -67q-7 -58 -58 -95 t-124 -37q-74 0 -118 28.5t-56 70.5zM224 292q5 52 38.5 84.5t85.5 32.5v-2q-52 0 -84.5 -31.5t-37.5 -83.5q6 -2 27.5 -10t28.5 -11t25.5 -11t26 -13t21.5 -14.5t20 -18.5t13.5 -21t10.5 -26t3 -30q0 -2 -0.5 -6.5t-0.5 -6.5q77 8 126 66.5t49 146.5q0 114 -81 191.5 t-223 77.5q-148 0 -234 -89t-86 -226q0 -72 30 -126t62 -72q-3 12 -3 23q0 27 14.5 43.5t36.5 16.5q24 0 38.5 -15t14.5 -36q0 -24 -15 -37.5t-38 -13.5t-45 13q13 -41 55 -66.5t111 -25.5q59 0 94 29.5t35 74.5q0 15 -3 27q-78 17 -105 89q-11 4 -32 12t-33 12.5t-30.5 13 t-29.5 16t-24.5 18.5t-20.5 23t-12 28.5t-5 35.5q0 66 48 105.5t129 39.5q43 0 80 -13.5t52 -13.5q28 0 28 27h3v-159h-3q-31 154 -160 154q-58 0 -87.5 -28.5t-29.5 -73.5q0 -46 30 -72t87 -48zM236 214q27 -69 102 -86q-14 51 -102 86z"/>
<glyph glyph-name="Ydieresis" horiz-adv-x="649" unicode="Ÿ" d="M466 817q0 -22 -14.5 -36.5t-34.5 -14.5q-21 0 -34.5 14t-13.5 36t14 37t34 15q22 0 35.5 -14t13.5 -37zM307 817q0 -22 -14.5 -36.5t-34.5 -14.5q-21 0 -34.5 14t-13.5 36t14 37t34 15q22 0 35.5 -14t13.5 -37zM466 515l-108 -162v-350h62v-3h-207v3h63v339l-224 355 h-52v3h213v-3h-67l212 -338l103 157q-32 4 -51.5 27.5t-19.5 57.5q0 45 30 72t75 27h154v-3h-4q-45 0 -100 -67q9 -15 9 -36q0 -34 -23 -56.5t-58 -22.5h-7zM543 629q-15 -19 -30 -42l-46 -70h6q35 0 57 21.5t22 55.5q0 20 -9 35zM535 640q-19 22 -52 22v2q33 0 53 -22 q3 11 3 20q0 35 -44 35q-45 0 -74 -25.5t-29 -70.5q0 -34 19.5 -56.5t51.5 -26.5l46 70q17 25 26 52z"/>
<glyph glyph-name="circumflex" d="M260 730q15 -12 43.5 -41t65.5 -60l-2 -2q-39 32 -71 54t-46 33q-14 -11 -46 -33t-71 -54l-2 2q37 31 64.5 59t44.5 42q6 4 10 4q6 0 10 -4z" unicode="ˆ"/>
<glyph glyph-name="tilde" d="M335 657q58 0 87 64h3q-18 -41 -40 -60t-58 -19q-29 0 -52.5 11t-37.5 24.5t-33 24.5t-39 11q-58 0 -87 -64h-3q18 41 40 60t58 19q32 0 77 -35.5t85 -35.5z" unicode="˜"/>
<glyph glyph-name="pi" horiz-adv-x="482" unicode="π" d="M327 3v501h-172v-501h62v-3h-202v3h63v501h-63v3h452v-3h-63v-501h63v-3h-202v3h62z"/>
<glyph glyph-name="endash" d="M450 284v-3q-68 0 -123 -2.5t-79 -2.5q-28 0 -80.5 2.5t-117.5 2.5v3q65 0 117.5 2.5t80.5 2.5q24 0 79 -2.5t123 -2.5z" unicode="–"/>
<glyph glyph-name="emdash" horiz-adv-x="700" unicode="—" d="M650 284v-3q-102 0 -184.5 -2.5t-118.5 -2.5q-42 0 -121 2.5t-176 2.5v3q97 0 176 2.5t121 2.5q36 0 118.5 -2.5t184.5 -2.5z"/>
<glyph glyph-name="quoteleft" horiz-adv-x="222" unicode="‘" d="M158 727v-3q-39 -11 -59.5 -41t-20.5 -53q0 -5 5 -5q1 0 5 2t11 4t14 2q20 0 35 -13.5t15 -37.5q0 -21 -14 -36t-36 -15q-24 0 -39 17.5t-15 42.5q0 41 26 82t73 54z"/>
<glyph glyph-name="quotesinglbase" horiz-adv-x="222" unicode="‚" d="M70 -94v3q39 11 59.5 41t20.5 53q0 5 -5 5q-1 0 -5 -2t-11 -4t-14 -2q-20 0 -35 14t-15 37q0 21 14 36t36 15q24 0 39 -17.5t15 -42.5q0 -41 -26 -82t-73 -54z"/>
<glyph glyph-name="quotedblleft" horiz-adv-x="368" unicode="“" d="M157 727v-3q-39 -11 -59.5 -41t-20.5 -53q0 -5 5 -5q1 0 5 2t11 4t14 2q20 0 35 -13.5t15 -37.5q0 -21 -14 -36t-36 -15q-24 0 -39 17.5t-15 42.5q0 41 26 82t73 54zM303 727v-3q-39 -11 -59.5 -41t-20.5 -53q0 -5 5 -5q1 0 5 2t11 4t14 2q20 0 35 -13.5t15 -37.5 q0 -21 -14 -36t-36 -15q-24 0 -39 17.5t-15 42.5q0 41 26 82t73 54z"/>
<glyph glyph-name="quotedblright" horiz-adv-x="368" unicode="”" d="M216 509v3q39 11 59.5 41t20.5 53q0 5 -5 5q-1 0 -5 -2t-11 -4t-14 -2q-20 0 -35 13.5t-15 37.5q0 21 14 36t36 15q24 0 39 -17.5t15 -42.5q0 -41 -26 -82t-73 -54zM70 509v3q39 11 59.5 41t20.5 53q0 5 -5 5q-1 0 -5 -2t-11 -4t-14 -2q-20 0 -35 13.5t-15 37.5 q0 21 14 36t36 15q24 0 39 -17.5t15 -42.5q0 -41 -26 -82t-73 -54z"/>
<glyph glyph-name="dagger" horiz-adv-x="568" unicode="†" d="M91 476q19 0 87.5 -19.5t104.5 -19.5q-1 47 -19.5 126t-18.5 96q0 21 11 33.5t28 12.5q18 0 28.5 -12.5t10.5 -33.5q0 -17 -19 -95.5t-19 -126.5q36 0 104.5 19.5t87.5 19.5q21 0 33.5 -11.5t12.5 -29.5q0 -17 -12.5 -29t-33.5 -12q-20 0 -88.5 20t-103.5 21 q0 -140 20 -321.5t20 -219.5q0 -21 -11.5 -33.5t-29.5 -12.5q-17 0 -29 12.5t-12 33.5q0 38 20 219.5t20 321.5q-35 -1 -103.5 -21t-88.5 -20q-21 0 -33.5 12t-12.5 29q0 18 12.5 29.5t33.5 11.5z"/>
<glyph glyph-name="daggerdbl" horiz-adv-x="568" unicode="‡" d="M91 486q19 0 87.5 -19.5t104.5 -19.5q-1 47 -19.5 121t-18.5 91q0 21 11 33.5t28 12.5q18 0 28.5 -12.5t10.5 -33.5q0 -17 -19 -90.5t-19 -121.5q36 0 104.5 19.5t87.5 19.5q21 0 33.5 -11.5t12.5 -29.5q0 -17 -12.5 -29t-33.5 -12q-20 0 -88.5 20t-103.5 21 q0 -33 12.5 -89t12.5 -80t-12.5 -80t-12.5 -88q36 0 104.5 20.5t87.5 20.5q21 0 33.5 -12t12.5 -29q0 -18 -12.5 -29.5t-33.5 -11.5q-20 0 -88.5 19t-103.5 20q0 -48 19 -121.5t19 -90.5q0 -21 -10.5 -33.5t-28.5 -12.5q-17 0 -28 12.5t-11 33.5q0 17 18.5 90.5t19.5 121.5 q-35 -1 -103.5 -20t-88.5 -19q-21 0 -33.5 11.5t-12.5 29.5q0 17 12.5 29t33.5 12q19 0 87.5 -20.5t104.5 -20.5q-1 31 -13 87.5t-12 80.5t12 80.5t13 88.5q-35 -1 -103.5 -21t-88.5 -20q-21 0 -33.5 12t-12.5 29q0 18 12.5 29.5t33.5 11.5z"/>
<glyph glyph-name="ellipsis" horiz-adv-x="666" unicode="…" d="M607 45q0 -22 -14.5 -36.5t-34.5 -14.5q-21 0 -34.5 14t-13.5 36t14 37t34 15q22 0 35.5 -14t13.5 -37zM385 45q0 -22 -14.5 -36.5t-34.5 -14.5q-21 0 -34.5 14t-13.5 36t14 37t34 15q22 0 35.5 -14t13.5 -37zM163 45q0 -22 -14.5 -36.5t-34.5 -14.5q-21 0 -34.5 14 t-13.5 36t14 37t34 15q22 0 35.5 -14t13.5 -37z"/>
<glyph glyph-name="perthousand" horiz-adv-x="1099" unicode="‰" d="M1059 175q0 -76 -48 -130t-114 -54q-68 0 -113.5 51.5t-45.5 127.5q0 75 48 129t114 54q69 0 114 -51t45 -127zM990 171q0 79 -23.5 128.5t-66.5 49.5q-46 0 -69.5 -48t-23.5 -127t23.5 -129t66.5 -50q46 0 69.5 48.5t23.5 127.5zM361 531q0 -76 -48 -130t-114 -54 q-68 0 -113.5 51.5t-45.5 127.5q0 75 48 129t114 54q69 0 114 -51t45 -127zM292 527q0 79 -23.5 128.5t-66.5 49.5q-46 0 -69.5 -48t-23.5 -127t23.5 -129t66.5 -50q46 0 69.5 48.5t23.5 127.5zM704 175q0 -76 -48 -130t-114 -54q-68 0 -113.5 51.5t-45.5 127.5q0 75 48 129 t114 54q69 0 114 -51t45 -127zM635 171q0 79 -23.5 128.5t-66.5 49.5q-46 0 -69.5 -48t-23.5 -127t23.5 -129t66.5 -50q46 0 69.5 48.5t23.5 127.5zM529 723h3q-54 -132 -95.5 -239t-52.5 -135q-15 -35 -62.5 -141t-99.5 -233h-3q48 116 87 215.5t63 158.5q21 50 65 150.5 t95 223.5z"/>
<glyph glyph-name="guilsinglleft" horiz-adv-x="394" unicode="‹" d="M344 40l-1 -5q-95 75 -174 131t-111 81q-8 6 -8 14q0 9 8 15q32 25 111 81t174 131l1 -5q-97 -76 -177.5 -142.5t-96.5 -79.5q22 -17 100.5 -82t173.5 -139z"/>
<glyph glyph-name="guilsinglright" horiz-adv-x="394" unicode="›" d="M51 35l-1 5q95 74 173.5 139t100.5 82q-16 13 -96.5 79.5t-177.5 142.5l1 5q95 -75 174 -131t111 -81q8 -6 8 -15q0 -8 -8 -14q-32 -25 -111 -81t-174 -131z"/>
<glyph glyph-name="fraction" horiz-adv-x="113" unicode="⁄" d="M210 723h3q-54 -132 -95.5 -239t-52.5 -135q-15 -35 -62.5 -141t-99.5 -233h-3q48 116 87 215.5t63 158.5q21 50 65 150.5t95 223.5z"/>
<glyph glyph-name="Euro" horiz-adv-x="621" unicode="€" d="M365 -10q-102 0 -174.5 83.5t-87.5 214.5h-98v3h98q-3 27 -3 55q0 32 3 62h-98v3h99q16 132 91 215.5t183 83.5q48 0 93.5 -18.5t65.5 -18.5q16 0 25.5 10t9.5 27h3v-209h-3q-21 100 -64 152.5t-130 52.5q-90 0 -136.5 -80t-54.5 -215h218v-3h-218q-1 -18 -1 -56 q0 -33 3 -61h181q33 44 92 44t94 -40.5t35 -104.5q0 -84 -58.5 -142t-167.5 -58zM370 288q-18 -26 -18 -61q0 -44 28 -73t72 -29q29 0 50.5 14.5t28.5 28.5l7 14h2q-1 -2 -2.5 -6t-9 -14.5t-16.5 -18t-25 -14t-35 -6.5q-45 0 -73.5 29.5t-28.5 74.5q0 35 18 61h-179 q14 -126 73.5 -203t144.5 -77q80 0 130.5 52.5t50.5 129.5q0 64 -34 103.5t-92 39.5t-89 -42h32v-3h-35z"/>
<glyph glyph-name="trademark" horiz-adv-x="848" unicode="™" d="M712 750h96v-3h-34v-352h34v-3h-132v3h36v343l-106 -348h-30l-129 349v-281q0 -63 42 -65v-3h-82v3q36 0 36 65v289h-36v3h102l110 -305zM173 747h-15q-53 0 -76.5 -20.5t-28.5 -69.5h-3v112h2q0 -19 19 -19h265q18 0 21 19h2v-112h-3q-5 49 -28 69.5t-77 20.5h-16v-353 h36v-3h-134v3h36v353z"/>
<glyph glyph-name="partialdiff" horiz-adv-x="547" unicode="∂" d="M421 258q0 54 -5.5 93t-19.5 72t-41 49.5t-67 16.5q-76 0 -118 -67.5t-42 -177.5t41 -179.5t117 -69.5q65 0 100 70.5t35 192.5zM272 -10q-101 0 -164 71t-63 178q0 108 65 184.5t161 76.5q85 0 130 -68q-31 112 -94 179t-132 87v4q54 -15 109.5 -51t105.5 -89.5t81 -132 t31 -165.5q0 -126 -63.5 -200t-166.5 -74z"/>
<glyph glyph-name="product" horiz-adv-x="567" unicode="∏" d="M403 697h-238v-694h62v-3h-207v3h63v694h-63v3h527v-3h-62v-694h62v-3h-207v3h63v694z"/>
<glyph glyph-name="summation" horiz-adv-x="529" unicode="∑" d="M75 634l209 -365l-209 -364h233q89 0 133 15.5t62 62.5h3l-51 -144h-421l246 430l-246 431h421l51 -144h-3q-18 47 -62 62.5t-133 15.5h-233z"/>
<glyph glyph-name="minus" d="M450 264v-3q-68 0 -123 -2.5t-79 -2.5q-28 0 -80.5 2.5t-117.5 2.5v3q65 0 117.5 2.5t80.5 2.5q24 0 79 -2.5t123 -2.5z" unicode="−"/>
<glyph glyph-name="radical" horiz-adv-x="533" unicode="√" d="M441 750h95v-3h-92l-181 -747h-38l-169 504h-56v3h136l141 -433z"/>
<glyph glyph-name="infinity" horiz-adv-x="507" unicode="∞" d="M64 262q0 -45 23 -75t65 -30q43 0 67.5 30t24.5 75q0 46 -24.5 76.5t-67.5 30.5q-42 0 -65 -30.5t-23 -76.5zM263 262q0 -45 23.5 -75t66.5 -30t66.5 30t23.5 75q0 46 -23.5 76.5t-66.5 30.5q-42 0 -66 -30.5t-24 -76.5zM45 262q0 46 31 78t76 32q35 0 62.5 -20.5 t38.5 -53.5q11 33 38 53.5t62 20.5q46 0 77.5 -32t31.5 -78q0 -45 -31.5 -76.5t-77.5 -31.5q-35 0 -62 20t-38 52q-11 -32 -38.5 -52t-62.5 -20q-45 0 -76 31.5t-31 76.5z"/>
<glyph glyph-name="approxequal" d="M348 175q66 0 100 67h3q-20 -41 -45 -60.5t-67 -19.5q-33 0 -60.5 11.5t-43 25.5t-37.5 25.5t-45 11.5q-66 0 -100 -67h-3q20 41 45 60.5t67 19.5q37 0 88.5 -37t97.5 -37zM348 295q66 0 100 67h3q-20 -41 -45 -60.5t-67 -19.5q-33 0 -60.5 11.5t-43 25.5t-37.5 25.5 t-45 11.5q-66 0 -100 -67h-3q20 41 45 60.5t67 19.5q37 0 88.5 -37t97.5 -37z" unicode="≈"/>
<glyph glyph-name="notequal" d="M313 463h3q-19 -58 -40 -134l56 -3q57 -2 118 -2v-3q-62 0 -118 -2.5t-59 -2.5l-34 -107q31 0 88 -2.5t123 -2.5v-3q-66 0 -124.5 -2.5t-92.5 -2.5q-28 -75 -46 -133h-3q22 68 39 133q-7 0 -60 2.5t-113 2.5v3q61 0 114 2.5t62 2.5l35 107q-37 0 -92.5 2.5t-118.5 2.5v3 q62 0 119.5 2.5t97.5 2.5q42 121 46 134z" unicode="≠"/>
<glyph glyph-name="lessequal" d="M450 98v-3q-68 0 -123 -2.5t-79 -2.5q-28 0 -80.5 2.5t-117.5 2.5v3q65 0 117.5 2.5t80.5 2.5q24 0 79 -2.5t123 -2.5zM450 188l-1 -3q-129 41 -236 72.5t-155 46.5q-8 3 -8 8t8 8q48 15 155 46.5t236 72.5l1 -3q-129 -41 -234.5 -77t-140.5 -47q28 -9 136 -46t239 -78z " unicode="≤"/>
<glyph glyph-name="greaterequal" d="M51 185l-1 3q131 41 239 78t136 46q-35 11 -140.5 47t-234.5 77l1 3q129 -41 236 -72.5t155 -46.5q8 -3 8 -8t-8 -8q-48 -15 -155 -46.5t-236 -72.5zM50 95v3q68 0 123 2.5t79 2.5q28 0 80.5 -2.5t117.5 -2.5v-3q-65 0 -117.5 -2.5t-80.5 -2.5q-24 0 -79 2.5t-123 2.5z " unicode="≥"/>
<glyph glyph-name="lozenge" horiz-adv-x="533" unicode="◊" d="M214 658l-147 -240l245 -376l147 239zM249 0l-229 348l215 352h42l229 -348l-215 -352h-42z"/>
</font>
</defs>
</svg>
