<svg height="443pt" viewBox="-27 0 443 443.929" width="443pt" xmlns="http://www.w3.org/2000/svg"><path d="m353.832031 174.929688h-.625c-8.34375-.066407-16.429687 2.882812-22.769531 8.304687-5.375-13.957031-18.375-23.945313-33.554688-23.945313-9.226562.09375-18.042968 3.808594-24.550781 10.347657-6.03125-12.003907-18.277343-19.613281-31.710937-19.707031h-.664063c-7.4375 0-14.710937 1.925781-19.710937 6.007812v-84.652344c0-21.027344-16.40625-38.132812-36.335938-38.132812-19.90625 0-36.214844 17.089844-36.230468 38.105468l-.167969 168.582032-8.648438-10.5c-8.539062-10.628906-21.109375-17.230469-34.707031-18.226563-13.316406-.910156-26.417969 3.71875-36.199219 12.800781l-8.363281 6.9375c-2.902344 2.402344-3.730469 6.507813-1.992188 9.847657l81.445313 156.515625c14.988281 28.792968 43.511719 46.714844 74.441406 46.714844h91.347657c46.871093 0 85.046874-40.628907 85.09375-90.523438.019531-22.085938.042968-38.578125.058593-51.953125.046875-35.933594.0625-49.152344-.027343-88.722656-.050782-20.96875-16.257813-37.800781-36.128907-37.800781zm20.15625 126.484374c-.015625 13.375-.039062 29.886719-.058593 51.976563-.039063 41.082031-31.035157 74.539063-69.09375 74.539063h-91.347657c-24.941406 0-48.023437-14.621094-60.246093-38.101563l-78.46875-150.769531 3.539062-2.945313c.101562-.085937.207031-.179687.304688-.269531 6.570312-6.179688 15.410156-9.355469 24.410156-8.765625 9.199218.703125 17.691406 5.203125 23.445312 12.417969l22.792969 27.746094c2.144531 2.609374 5.695313 3.589843 8.875 2.453124 3.179687-1.136718 5.304687-4.152343 5.304687-7.527343l.136719-190.902344c.007813-12.195313 9.238281-22.113281 20.335938-22.113281 11.097656 0 20.328125 9.925781 20.328125 22.132812v115.089844c0 .40625-.019532.8125-.019532 1.21875 0 .183594.019532.367188.019532.546875v49.1875c0 4.417969 3.582031 8 8 8 4.417968 0 8-3.582031 8-8v-50.679687c0-11.761719 8.898437-20.71875 19.710937-20.71875h.664063c11.101562 0 20.625 9.46875 20.625 21.675781v45.03125c0 4.417969 3.582031 8 8 8 4.417968 0 8-3.582031 8-8v-35.332031c0-12.203126 8.867187-22.132813 20.03125-22.132813 11.101562 0 19.96875 9.925781 19.96875 22.132813v33.332031c0 4.417969 3.582031 8 8 8 4.417968 0 8-3.582031 8-8v-18.050781c0-12.199219 8.859375-21.65625 19.960937-21.65625h.625c11.070313 0 20.097657 9.660156 20.128907 21.828124.089843 39.542969.074218 52.742188.027343 88.65625zm0 0"/><path d="m14.121094 48.445312 15.125-15.125v176.609376c0 4.417968 3.582031 8 8 8 4.417968 0 8-3.582032 8-8v-175.34375l13.863281 13.859374c3.125 3.125 8.191406 3.125 11.3125 0 3.125-3.125 3.125-8.191406 0-11.316406l-26.332031-26.328125c-1.375-2.148437-3.621094-3.589843-6.148438-3.9375-2.527344-.351562-5.078125.425781-6.984375 2.121094l-28.148437 28.144531c-3.125 3.125-3.125 8.191406 0 11.316406 3.121094 3.125 8.1875 3.125 11.3125 0zm0 0"/><path d="m124.566406 75.050781c4.417969 0 8-3.582031 8-8 0-28.195312 22.855469-51.050781 51.050782-51.050781 28.195312 0 51.050781 22.855469 51.050781 51.050781 0 4.417969 3.582031 8 8 8s8-3.582031 8-8c0-37.03125-30.019531-67.050781-67.050781-67.050781s-67.050782 30.019531-67.050782 67.050781c0 4.417969 3.582032 8 8 8zm0 0"/></svg>